SplineFontDB: 3.0
FontName: LindenHill-Regular
FullName: Linden Hill Regular
FamilyName: Linden Hill
Weight: Regular
Copyright: Copyright (c) 2010, Barry Schwartz (chemoelectric@chemoelectric.org)\n
Version: 1.202
ItalicAngle: 0
UnderlinePosition: -405
UnderlineWidth: 200
Ascent: 2970
Descent: 1126
sfntRevision: 0x000133b6
LayerCount: 2
Layer: 0 1 "Back"  1
Layer: 1 1 "Fore"  0
NeedsXUIDChange: 1
XUID: [1021 288 713564382 7104384]
FSType: 0
OS2Version: 4
OS2_WeightWidthSlopeOnly: 0
OS2_UseTypoMetrics: 1
CreationTime: 1249677682
ModificationTime: 1319826929
PfmFamily: 17
TTFWeight: 400
TTFWidth: 5
LineGap: 0
VLineGap: 0
Panose: 2 0 5 3 0 0 0 0 0 0
OS2TypoAscent: 3633
OS2TypoAOffset: 0
OS2TypoDescent: -1888
OS2TypoDOffset: 0
OS2TypoLinegap: 0
OS2WinAscent: 3633
OS2WinAOffset: 0
OS2WinDescent: 1081
OS2WinDOffset: 0
HheadAscent: 3633
HheadAOffset: 0
HheadDescent: -1888
HheadDOffset: 0
OS2SubXSize: 2662
OS2SubYSize: 2867
OS2SubXOff: 0
OS2SubYOff: 573
OS2SupXSize: 2662
OS2SupYSize: 2867
OS2SupXOff: 0
OS2SupYOff: 1966
OS2StrikeYSize: 204
OS2StrikeYPos: 1060
OS2Vendor: 'PfEd'
OS2CodePages: 00000093.00000000
OS2UnicodeRanges: 8000006f.00000042.00000000.00000000
Lookup: 3 0 0 "'aalt' Access All Alternates lookup 0"  {"'aalt' Access All Alternates lookup 0 subtable"  } ['aalt' ('DFLT' <'dflt' > ) ]
Lookup: 3 0 0 "'aalt' Access All Alternates in Latin lookup 1"  {"'aalt' Access All Alternates in Latin lookup 1 subtable"  } ['aalt' ('latn' <'AZE ' 'CAT ' 'CRT ' 'MOL ' 'ROM ' 'TRK ' 'dflt' > ) ]
Lookup: 1 0 0 "'locl' Localized Forms in Latin lookup 2"  {"'locl' Localized Forms in Latin lookup 2 subtable"  } ['locl' ('latn' <'CAT ' > ) ]
Lookup: 1 0 0 "'locl' Localized Forms in Latin lookup 3"  {"'locl' Localized Forms in Latin lookup 3 subtable"  } ['locl' ('latn' <'MOL ' 'ROM ' > ) ]
Lookup: 1 0 0 "'locl' Localized Forms in Latin lookup 4"  {"'locl' Localized Forms in Latin lookup 4 subtable"  } ['locl' ('latn' <'AZE ' 'CRT ' 'TRK ' > ) ]

StartChar: .notdef
Encoding: 65536 -1 0
Width: 2048
Flags: W
LayerCount: 2
Fore
SplineSet
213 0 m 1,0,-1
 213 2904 l 1,1,-1
 1835 2904 l 1,2,-1
 1835 0 l 1,3,-1
 213 0 l 1,0,-1
1085 721 m 0,4,5
 1085 757.36 1085 757.36 1043 797.68 c 128,-1,6
 1001 838 1001 838 976.5 867 c 0,7,8
 918 936.244897959 918 936.244897959 918 1012.62244898 c 128,-1,9
 918 1089 918 1089 947 1141 c 128,-1,10
 976 1193 976 1193 1030.5 1247 c 128,-1,11
 1085 1301 1085 1301 1145.5 1353.5 c 0,12,13
 1471.01180858 1635.9689248 1471.01180858 1635.9689248 1521 1780.5 c 0,14,15
 1544 1847 1544 1847 1544 1940 c 128,-1,16
 1544 2033 1544 2033 1508.5 2128 c 128,-1,17
 1473 2223 1473 2223 1416 2301.5 c 128,-1,18
 1359 2380 1359 2380 1287.5 2451 c 128,-1,19
 1216 2522 1216 2522 1145 2570.5 c 0,20,21
 992.020618557 2675 992.020618557 2675 919.010309278 2675 c 128,-1,22
 846 2675 846 2675 780.5 2645.5 c 128,-1,23
 715 2616 715 2616 667.5 2575.5 c 0,24,25
 557 2481.28421053 557 2481.28421053 557 2418.14210526 c 128,-1,26
 557 2355 557 2355 627 2355 c 1,27,-1
 852 2359 l 1,28,29
 964 2359 964 2359 1072.5 2314 c 128,-1,30
 1181 2269 1181 2269 1246 2203.5 c 128,-1,31
 1311 2138 1311 2138 1311 2071.5 c 128,-1,32
 1311 2005 1311 2005 1275.5 1936.5 c 128,-1,33
 1240 1868 1240 1868 1183 1810.5 c 128,-1,34
 1126 1753 1126 1753 1057 1696 c 128,-1,35
 988 1639 988 1639 918.5 1578.5 c 128,-1,36
 849 1518 849 1518 792 1454.5 c 0,37,38
 664 1311.90350877 664 1311.90350877 664 1143 c 0,39,40
 664 903.041666667 664 903.041666667 846 740 c 0,41,42
 940.88372093 655 940.88372093 655 1012.94186047 655 c 128,-1,43
 1085 655 1085 655 1085 721 c 0,4,5
863 460.5 m 128,-1,45
 786 393 786 393 786 342 c 128,-1,46
 786 291 786 291 856 216.5 c 128,-1,47
 926 142 926 142 969.5 141 c 128,-1,48
 1013 140 1013 140 1051 167 c 128,-1,49
 1089 194 1089 194 1116.5 228 c 0,50,51
 1180 306.509090909 1180 306.509090909 1180 346.754545455 c 128,-1,52
 1180 387 1180 387 1112 457.5 c 128,-1,53
 1044 528 1044 528 992 528 c 128,-1,44
 940 528 940 528 863 460.5 c 128,-1,45
EndSplineSet
EndChar

StartChar: exclam
Encoding: 33 33 4
Width: 1249
GlyphClass: 2
Flags: W
LayerCount: 2
Fore
SplineSet
517.5 25.5 m 128,-1,1
 451 92 451 92 451 135.5 c 128,-1,2
 451 179 451 179 522.5 245 c 128,-1,3
 594 311 594 311 635 311 c 128,-1,4
 676 311 676 311 737.5 243 c 128,-1,5
 799 175 799 175 799 132.5 c 128,-1,6
 799 90 799 90 732.5 24.5 c 128,-1,7
 666 -41 666 -41 625 -41 c 128,-1,0
 584 -41 584 -41 517.5 25.5 c 128,-1,1
455 2540 m 0,8,9
 455 2637.39189189 455 2637.39189189 671 2669.5 c 0,10,11
 708 2675 708 2675 725 2675 c 0,12,13
 778 2675 778 2675 778 2630 c 0,14,15
 774 2375 774 2375 724 1826.5 c 128,-1,16
 674 1278 674 1278 670.5 1135.5 c 128,-1,17
 667 993 667 993 666 933 c 128,-1,18
 665 873 665 873 664.5 838.5 c 128,-1,19
 664 804 664 804 662.5 763.5 c 128,-1,20
 661 723 661 723 657 701.5 c 128,-1,21
 653 680 653 680 645 659.5 c 0,22,23
 630.756097561 623 630.756097561 623 604.37804878 623 c 128,-1,24
 578 623 578 623 566 635 c 128,-1,25
 554 647 554 647 547 668.5 c 0,26,27
 510.230971502 781.433444673 510.230971502 781.433444673 482.615485751 1543.21672234 c 128,-1,28
 455 2305 455 2305 455 2540 c 0,8,9
EndSplineSet
Position2: "'cpsp' Capital Spacing in Latin lookup 1 subtable" dx=16 dy=0 dh=33 dv=0
EndChar

StartChar: numbersign
Encoding: 35 35 6
Width: 1748
GlyphClass: 2
Flags: W
LayerCount: 2
Fore
SplineSet
98 1053 m 1,0,-1
 98 1192 l 1,1,-1
 500 1192 l 1,2,-1
 586 1499 l 1,3,-1
 102 1499 l 1,4,-1
 102 1638 l 1,5,-1
 627 1638 l 1,6,-1
 950 2814 l 1,7,-1
 1118 2814 l 1,8,-1
 791 1638 l 1,9,-1
 1130 1638 l 1,10,-1
 1458 2814 l 1,11,-1
 1622 2814 l 1,12,-1
 1294 1638 l 1,13,-1
 1651 1638 l 1,14,-1
 1651 1499 l 1,15,-1
 1257 1499 l 1,16,-1
 1171 1192 l 1,17,-1
 1647 1192 l 1,18,-1
 1647 1053 l 1,19,-1
 1130 1053 l 1,20,-1
 778 -201 l 1,21,-1
 614 -201 l 1,22,-1
 967 1053 l 1,23,-1
 627 1053 l 1,24,-1
 283 -201 l 1,25,-1
 115 -201 l 1,26,-1
 463 1053 l 1,27,-1
 98 1053 l 1,0,-1
668 1192 m 1,28,-1
 1004 1192 l 1,29,-1
 1090 1499 l 1,30,-1
 754 1499 l 1,31,-1
 668 1192 l 1,28,-1
EndSplineSet
EndChar

StartChar: percent
Encoding: 37 37 8
Width: 3198
GlyphClass: 2
Flags: W
LayerCount: 2
Fore
SplineSet
250 -164 m 2,0,1
 180 -164 180 -164 180 -140 c 128,-1,2
 180 -116 180 -116 217 -74 c 1,3,-1
 2679 2552 l 1,4,5
 2301 2363 2301 2363 1802 2363 c 0,6,7
 1720 2363 1720 2363 1507 2388 c 1,8,9
 1585 2264 1585 2264 1585 2093 c 128,-1,10
 1585 1922 1585 1922 1512.5 1765.5 c 128,-1,11
 1440 1609 1440 1609 1323.5 1498 c 128,-1,12
 1207 1387 1207 1387 1054 1320 c 128,-1,13
 901 1253 901 1253 763.5 1253 c 128,-1,14
 626 1253 626 1253 532.5 1292 c 128,-1,15
 439 1331 439 1331 382 1398 c 0,16,17
 266 1534.35087719 266 1534.35087719 266 1704.6754386 c 128,-1,18
 266 1875 266 1875 322 2007.5 c 128,-1,19
 378 2140 378 2140 469.5 2239 c 128,-1,20
 561 2338 561 2338 674 2412.5 c 0,21,22
 903.791946309 2564 903.791946309 2564 1130 2564 c 0,23,24
 1224.8 2564 1224.8 2564 1313.9 2541.5 c 0,25,26
 1482.2 2499 1482.2 2499 1743.1 2499 c 128,-1,27
 2004 2499 2004 2499 2221.5 2535 c 128,-1,28
 2439 2571 2439 2571 2579 2613.5 c 128,-1,29
 2719 2656 2719 2656 2836 2692 c 128,-1,30
 2953 2728 2953 2728 2986 2728 c 128,-1,31
 3019 2728 3019 2728 3019 2707 c 0,32,33
 3019 2675 3019 2675 2945 2593 c 1,34,-1
 377 -164 l 1,35,-1
 250 -164 l 2,0,1
492.5 1817.5 m 128,-1,37
 442 1710 442 1710 442 1624.5 c 128,-1,38
 442 1539 442 1539 494.5 1480 c 128,-1,39
 547 1421 547 1421 652.5 1421 c 128,-1,40
 758 1421 758 1421 870 1477 c 128,-1,41
 982 1533 982 1533 1072.5 1622.5 c 128,-1,42
 1163 1712 1163 1712 1236 1817.5 c 0,43,44
 1389 2038.61643836 1389 2038.61643836 1389 2220 c 0,45,46
 1389 2299 1389 2299 1332 2349.5 c 128,-1,47
 1275 2400 1275 2400 1191.5 2400 c 128,-1,48
 1108 2400 1108 2400 1005.5 2348 c 128,-1,49
 903 2296 903 2296 806 2210.5 c 128,-1,50
 709 2125 709 2125 626 2025 c 128,-1,36
 543 1925 543 1925 492.5 1817.5 c 128,-1,37
1595 255 m 0,51,52
 1565 341 1565 341 1565 461 c 128,-1,53
 1565 581 1565 581 1621 714 c 128,-1,54
 1677 847 1677 847 1768 946 c 128,-1,55
 1859 1045 1859 1045 1972.5 1119.5 c 0,56,57
 2201.7852349 1270 2201.7852349 1270 2429 1270 c 0,58,59
 2624.55752212 1270 2624.55752212 1270 2750 1157.5 c 0,60,61
 2884 1037.32539683 2884 1037.32539683 2884 791 c 0,62,63
 2884 624 2884 624 2812.5 467.5 c 128,-1,64
 2741 311 2741 311 2624.5 200 c 0,65,66
 2367.36036036 -45 2367.36036036 -45 2048 -45 c 0,67,68
 1699.65116279 -45 1699.65116279 -45 1595 255 c 0,51,52
1777.5 490.5 m 128,-1,70
 1741 403 1741 403 1741 324 c 128,-1,71
 1741 245 1741 245 1795.5 184 c 128,-1,72
 1850 123 1850 123 1955.5 123 c 128,-1,73
 2061 123 2061 123 2173 179.5 c 128,-1,74
 2285 236 2285 236 2375.5 326 c 128,-1,75
 2466 416 2466 416 2538.5 522.5 c 0,76,77
 2691 746.517241379 2691 746.517241379 2691 926 c 0,78,79
 2691 1005 2691 1005 2632 1055.5 c 128,-1,80
 2573 1106 2573 1106 2496 1106 c 128,-1,81
 2419 1106 2419 1106 2335.5 1068.5 c 128,-1,82
 2252 1031 2252 1031 2170.5 970 c 128,-1,83
 2089 909 2089 909 2010.5 828 c 128,-1,84
 1932 747 1932 747 1873 662.5 c 128,-1,69
 1814 578 1814 578 1777.5 490.5 c 128,-1,70
EndSplineSet
EndChar

StartChar: ampersand
Encoding: 38 38 9
Width: 3481
GlyphClass: 2
Flags: W
LayerCount: 2
Fore
SplineSet
3342 299 m 0,0,1
 3383 299 3383 299 3383 254 c 0,2,3
 3383 128 3383 128 3242 33.5 c 128,-1,4
 3101 -61 3101 -61 2896 -61 c 0,5,6
 2775.96341463 -61 2775.96341463 -61 2647.98170732 8.5 c 0,7,8
 2444.8185654 118.827004219 2444.8185654 118.827004219 2346 188 c 1,9,-1
 2306 217 l 1,10,11
 2179.63696809 65.3643617021 2179.63696809 65.3643617021 1884.5 -23 c 0,12,13
 1557.60889788 -120.871587462 1557.60889788 -120.871587462 1172 -62 c 0,14,15
 586.211852167 27.4333050127 586.211852167 27.4333050127 320.5 427 c 0,16,17
 180 638.278195489 180 638.278195489 180 922 c 0,18,19
 180 1269 180 1269 444 1470 c 0,20,21
 561 1559 561 1559 721 1606 c 1,22,23
 639.111782477 1671.51057402 639.111782477 1671.51057402 566.555891239 1792.75528701 c 0,24,25
 438 2007.57894737 438 2007.57894737 438 2139.78947368 c 128,-1,26
 438 2272 438 2272 485.5 2380 c 128,-1,27
 533 2488 533 2488 620 2572 c 0,28,29
 811.607142857 2757 811.607142857 2757 1139 2757 c 0,30,31
 1296 2757 1296 2757 1437 2695 c 128,-1,32
 1578 2633 1578 2633 1663.5 2527.5 c 128,-1,33
 1749 2422 1749 2422 1749 2330 c 128,-1,34
 1749 2238 1749 2238 1725.5 2172 c 128,-1,35
 1702 2106 1702 2106 1660 2050.5 c 0,36,37
 1565.02702703 1925 1565.02702703 1925 1401 1925 c 0,38,39
 1326 1925 1326 1925 1248.5 1954 c 128,-1,40
 1171 1983 1171 1983 1171 2023 c 0,41,42
 1171 2044.86075949 1171 2044.86075949 1238.5 2067.93037975 c 128,-1,43
 1306 2091 1306 2091 1346 2111.5 c 0,44,45
 1442 2160.7 1442 2160.7 1442 2289.35 c 128,-1,46
 1442 2418 1442 2418 1338.5 2509.5 c 128,-1,47
 1235 2601 1235 2601 1100 2601 c 128,-1,48
 965 2601 965 2601 861.5 2513.5 c 128,-1,49
 758 2426 758 2426 758 2298 c 0,50,51
 758 2140.66666667 758 2140.66666667 871 1990 c 0,52,53
 994.928176796 1824.76243094 994.928176796 1824.76243094 1154.9640884 1672.88121547 c 128,-1,54
 1315 1521 1315 1521 1371 1469 c 128,-1,55
 1427 1417 1427 1417 1541 1310.5 c 128,-1,56
 1655 1204 1655 1204 1761 1109 c 128,-1,57
 1867 1014 1867 1014 1954 942 c 128,-1,58
 2041 870 2041 870 2084.5 835 c 128,-1,59
 2128 800 2128 800 2201.5 744.5 c 128,-1,60
 2275 689 2275 689 2281 684 c 2,61,-1
 2392 598 l 1,62,63
 2638 951.625 2638 951.625 2638 1356 c 0,64,65
 2638 1756.71428571 2638 1756.71428571 2507.5 1794 c 0,66,67
 2420 1819 2420 1819 2077 1819 c 1,68,-1
 2068 1978 l 1,69,-1
 3162 1978 l 1,70,-1
 3166 1819 l 1,71,72
 3118 1818 3118 1818 3000 1817.5 c 128,-1,73
 2882 1817 2882 1817 2833.5 1809.5 c 128,-1,74
 2785 1802 2785 1802 2785 1769 c 0,75,76
 2785 1758 2785 1758 2793.5 1736.5 c 128,-1,77
 2802 1715 2802 1715 2812 1684.5 c 0,78,79
 2839 1602.15 2839 1602.15 2839 1414.575 c 128,-1,80
 2839 1227 2839 1227 2808.5 1097 c 128,-1,81
 2778 967 2778 967 2735 864.5 c 0,82,83
 2645.78383052 651.833549503 2645.78383052 651.833549503 2574 543 c 1,84,-1
 2544 496 l 1,85,86
 2560 485 2560 485 2627.5 438.5 c 128,-1,87
 2695 392 2695 392 2716.5 378.5 c 128,-1,88
 2738 365 2738 365 2795 332.5 c 128,-1,89
 2852 300 2852 300 2887 288.5 c 0,90,91
 3087.36231884 222.666666667 3087.36231884 222.666666667 3287.5 287.5 c 0,92,93
 3323 299 3323 299 3342 299 c 0,0,1
641 1343.5 m 128,-1,95
 561 1223 561 1223 561 1072 c 128,-1,96
 561 921 561 921 607.5 803 c 128,-1,97
 654 685 654 685 733.5 593 c 128,-1,98
 813 501 813 501 918.5 425.5 c 128,-1,99
 1024 350 1024 350 1142.5 300.5 c 0,100,101
 1390.27272727 197 1390.27272727 197 1626 197 c 0,102,103
 1956.35294118 197 1956.35294118 197 2136.5 319.5 c 0,104,105
 2149 328 2149 328 2150 328 c 2,106,-1
 1798 586 l 1,107,108
 1630 715 1630 715 1358.5 966 c 128,-1,109
 1087 1217 1087 1217 827 1491 c 1,110,94
 721 1464 721 1464 641 1343.5 c 128,-1,95
EndSplineSet
Substitution2: "'c2sc' Capitals to Small Capitals in Latin lookup 13 subtable" ampersand.c2
AlternateSubs2: "'aalt' Access All Alternates in Latin lookup 1 subtable" ampersand.c2
AlternateSubs2: "'aalt' Access All Alternates lookup 0 subtable" ampersand.c2
Position2: "'cpsp' Capital Spacing in Latin lookup 1 subtable" dx=16 dy=0 dh=33 dv=0
EndChar

StartChar: parenleft
Encoding: 40 40 11
Width: 1282
GlyphClass: 2
Flags: W
LayerCount: 2
Fore
SplineSet
180 981.5 m 0,0,1
 180 1205 180 1205 233.5 1452.5 c 128,-1,2
 287 1700 287 1700 372 1882 c 128,-1,3
 457 2064 457 2064 560.5 2222.5 c 128,-1,4
 664 2381 664 2381 767 2486 c 0,5,6
 982.786900369 2705.97693727 982.786900369 2705.97693727 1094 2776 c 1,7,-1
 1147 2810 l 1,8,-1
 1212 2732 l 1,9,10
 876.835164835 2463.86813187 876.835164835 2463.86813187 652 1943 c 0,11,12
 455 1486.61666667 455 1486.61666667 455 954 c 0,13,14
 455 421.785046729 455 421.785046729 640.5 -51.5 c 0,15,16
 722.19530558 -259.937555359 722.19530558 -259.937555359 827.09765279 -415.968777679 c 128,-1,17
 932 -572 932 -572 985.5 -633 c 0,18,19
 1096.02747253 -759.021978022 1096.02747253 -759.021978022 1171 -819 c 1,20,-1
 1098 -905 l 1,21,22
 934.421052632 -782.315789474 934.421052632 -782.315789474 716 -506 c 0,23,24
 180 172.072289157 180 172.072289157 180 981.5 c 0,0,1
EndSplineSet
Substitution2: "'case' Case-Sensitive Forms in Latin lookup 15 subtable" parenleft.uppercase
AlternateSubs2: "'aalt' Access All Alternates in Latin lookup 1 subtable" parenleft.uppercase
AlternateSubs2: "'aalt' Access All Alternates lookup 0 subtable" parenleft.uppercase
EndChar

StartChar: parenright
Encoding: 41 41 12
Width: 1282
GlyphClass: 2
Flags: W
LayerCount: 2
Fore
SplineSet
70 2732 m 1,0,-1
 135 2810 l 1,1,2
 318.155031732 2703.15956482 318.155031732 2703.15956482 537.5 2460 c 0,3,4
 956.913277544 1995.05042375 956.913277544 1995.05042375 1068 1346.5 c 0,5,6
 1102 1148 1102 1148 1102 928.5 c 128,-1,7
 1102 709 1102 709 1051.5 483.5 c 128,-1,8
 1001 258 1001 258 920 81 c 128,-1,9
 839 -96 839 -96 741 -257.5 c 128,-1,10
 643 -419 643 -419 545 -534 c 0,11,12
 336.728987993 -778.399656947 336.728987993 -778.399656947 234 -863 c 1,13,-1
 184 -905 l 1,14,-1
 115 -819 l 1,15,16
 336.673724735 -646.587102984 336.673724735 -646.587102984 531 -291.5 c 0,17,18
 827 249.372727273 827 249.372727273 827 954 c 0,19,20
 827 1473.13157895 827 1473.13157895 631 1942.5 c 0,21,22
 541.963076923 2155.72 541.963076923 2155.72 432.481538462 2313.86 c 128,-1,23
 323 2472 323 2472 266 2535.5 c 0,24,25
 151.569269521 2662.97984887 151.569269521 2662.97984887 70 2732 c 1,0,-1
EndSplineSet
Substitution2: "'case' Case-Sensitive Forms in Latin lookup 15 subtable" parenright.uppercase
AlternateSubs2: "'aalt' Access All Alternates in Latin lookup 1 subtable" parenright.uppercase
AlternateSubs2: "'aalt' Access All Alternates lookup 0 subtable" parenright.uppercase
EndChar

StartChar: asterisk
Encoding: 42 42 13
Width: 1863
GlyphClass: 2
Flags: W
LayerCount: 2
Fore
SplineSet
1059 1690.5 m 128,-1,1
 1018 1729 1018 1729 1000.5 1729 c 128,-1,2
 983 1729 983 1729 983 1679 c 128,-1,3
 983 1629 983 1629 1038.5 1449 c 128,-1,4
 1094 1269 1094 1269 1094 1208 c 128,-1,5
 1094 1147 1094 1147 1043.5 1098 c 128,-1,6
 993 1049 993 1049 926.5 1049 c 128,-1,7
 860 1049 860 1049 805 1097 c 128,-1,8
 750 1145 750 1145 750 1201.5 c 128,-1,9
 750 1258 750 1258 809 1473 c 128,-1,10
 868 1688 868 1688 868 1712.5 c 128,-1,11
 868 1737 868 1737 856.5 1737 c 128,-1,12
 845 1737 845 1737 802 1699 c 128,-1,13
 759 1661 759 1661 701.5 1606.5 c 128,-1,14
 644 1552 644 1552 581 1498 c 0,15,16
 429.333333333 1368 429.333333333 1368 344.166666667 1368 c 128,-1,17
 259 1368 259 1368 219.5 1418 c 128,-1,18
 180 1468 180 1468 180 1524 c 128,-1,19
 180 1580 180 1580 244 1629.5 c 128,-1,20
 308 1679 308 1679 398.5 1709.5 c 128,-1,21
 489 1740 489 1740 580 1763.5 c 0,22,23
 799 1820.05494505 799 1820.05494505 799 1847.52747253 c 128,-1,24
 799 1875 799 1875 735.5 1894.5 c 128,-1,25
 672 1914 672 1914 582 1930 c 128,-1,26
 492 1946 492 1946 401.5 1970 c 0,27,28
 184 2027.67955801 184 2027.67955801 184 2171 c 0,29,30
 184 2283.64583333 184 2283.64583333 305 2326.5 c 0,31,32
 329 2335 329 2335 360 2335 c 128,-1,33
 391 2335 391 2335 473 2278.5 c 128,-1,34
 555 2222 555 2222 627.5 2154.5 c 0,35,36
 821.37037037 1974 821.37037037 1974 868 1974 c 0,37,38
 885 1974 885 1974 885 2021.5 c 128,-1,39
 885 2069 885 2069 821.5 2270 c 128,-1,40
 758 2471 758 2471 758 2530.5 c 128,-1,41
 758 2590 758 2590 812 2644.5 c 128,-1,42
 866 2699 866 2699 918.5 2699 c 128,-1,43
 971 2699 971 2699 1001 2688 c 128,-1,44
 1031 2677 1031 2677 1058.5 2653 c 0,45,46
 1118 2601.07272727 1118 2601.07272727 1118 2474 c 0,47,48
 1118 2429 1118 2429 1058.5 2230.5 c 128,-1,49
 999 2032 999 2032 999 1995 c 128,-1,50
 999 1958 999 1958 1021 1958 c 128,-1,51
 1043 1958 1043 1958 1088 1995 c 128,-1,52
 1133 2032 1133 2032 1186 2085 c 128,-1,53
 1239 2138 1239 2138 1296 2191 c 0,54,55
 1432.58490566 2318 1432.58490566 2318 1513.29245283 2318 c 128,-1,56
 1594 2318 1594 2318 1638.5 2280.5 c 128,-1,57
 1683 2243 1683 2243 1683 2186 c 128,-1,58
 1683 2129 1683 2129 1649.5 2083.5 c 128,-1,59
 1616 2038 1616 2038 1562 2010 c 128,-1,60
 1508 1982 1508 1982 1443 1960.5 c 128,-1,61
 1378 1939 1378 1939 1313 1925.5 c 128,-1,62
 1248 1912 1248 1912 1194 1901 c 0,63,64
 1073 1876.35185185 1073 1876.35185185 1073 1851.17592593 c 128,-1,65
 1073 1826 1073 1826 1115.5 1807 c 128,-1,66
 1158 1788 1158 1788 1222 1773.5 c 128,-1,67
 1286 1759 1286 1759 1360 1736 c 128,-1,68
 1434 1713 1434 1713 1498 1686 c 128,-1,69
 1562 1659 1562 1659 1604.5 1611.5 c 128,-1,70
 1647 1564 1647 1564 1647 1503 c 128,-1,71
 1647 1442 1647 1442 1613 1399 c 128,-1,72
 1579 1356 1579 1356 1522 1356 c 128,-1,73
 1465 1356 1465 1356 1398 1394.5 c 128,-1,74
 1331 1433 1331 1433 1270.5 1487.5 c 128,-1,75
 1210 1542 1210 1542 1155 1597 c 128,-1,0
 1100 1652 1100 1652 1059 1690.5 c 128,-1,1
EndSplineSet
EndChar

StartChar: plus
Encoding: 43 43 14
Width: 3125
GlyphClass: 2
Flags: W
LayerCount: 2
Fore
SplineSet
328 844 m 1,0,-1
 328 1081 l 1,1,2
 1234 1081 1234 1081 1405 1069 c 2,3,-1
 1462 1065 l 1,4,5
 1442 1121 1442 1121 1442 2200 c 1,6,-1
 1683 2200 l 1,7,8
 1683 1161 1683 1161 1663 1065 c 1,9,10
 1788 1081 1788 1081 2798 1081 c 1,11,-1
 2798 844 l 1,12,13
 1899 844 1899 844 1722 856 c 2,14,-1
 1663 860 l 1,15,16
 1683 736 1683 736 1683 -274 c 1,17,-1
 1442 -274 l 1,18,19
 1442 625 1442 625 1457 802 c 2,20,-1
 1462 860 l 1,21,22
 1346 844 1346 844 328 844 c 1,0,-1
EndSplineSet
Position2: "'case' Case-Sensitive Forms in Latin lookup 0 subtable" dx=0 dy=205 dh=0 dv=0
EndChar

StartChar: comma
Encoding: 44 44 15
Width: 917
GlyphClass: 2
Flags: W
LayerCount: 2
Fore
SplineSet
143 -541 m 0,0,1
 143 -509.571428571 143 -509.571428571 196 -479.285714286 c 128,-1,2
 249 -449 249 -449 286.5 -419 c 128,-1,3
 324 -389 324 -389 355.5 -353.5 c 0,4,5
 430 -269.53968254 430 -269.53968254 430 -131 c 0,6,7
 430 -39 430 -39 397.5 -6.5 c 128,-1,8
 365 26 365 26 342 42 c 128,-1,9
 319 58 319 58 299.5 68 c 0,10,11
 254 91.3333333333 254 91.3333333333 254 122.166666667 c 128,-1,12
 254 153 254 153 294.5 200.5 c 128,-1,13
 335 248 335 248 380 281.5 c 128,-1,14
 425 315 425 315 438 315 c 128,-1,15
 451 315 451 315 471 310.5 c 128,-1,16
 491 306 491 306 528 286.5 c 128,-1,17
 565 267 565 267 595 235.5 c 0,18,19
 672 154.65 672 154.65 672 11.825 c 128,-1,20
 672 -131 672 -131 617 -265 c 128,-1,21
 562 -399 562 -399 489.5 -468.5 c 128,-1,22
 417 -538 417 -538 332.5 -568 c 128,-1,23
 248 -598 248 -598 195.5 -598 c 128,-1,24
 143 -598 143 -598 143 -541 c 0,0,1
EndSplineSet
EndChar

StartChar: hyphen
Encoding: 45 45 16
Width: 1290
GlyphClass: 2
Flags: W
LayerCount: 2
Fore
SplineSet
139 987 m 1,0,-1
 139 1233 l 1,1,-1
 1151 1532 l 1,2,-1
 1151 1282 l 1,3,-1
 139 987 l 1,0,-1
EndSplineSet
EndChar

StartChar: period
Encoding: 46 46 17
Width: 917
GlyphClass: 2
Flags: W
LayerCount: 2
Fore
SplineSet
326.5 37 m 128,-1,1
 254 115 254 115 254 163 c 128,-1,2
 254 211 254 211 334 281.5 c 128,-1,3
 414 352 414 352 460.5 352 c 128,-1,4
 507 352 507 352 575 271 c 128,-1,5
 643 190 643 190 643 143.5 c 128,-1,6
 643 97 643 97 564.5 28 c 128,-1,7
 486 -41 486 -41 442.5 -41 c 128,-1,0
 399 -41 399 -41 326.5 37 c 128,-1,1
EndSplineSet
EndChar

StartChar: slash
Encoding: 47 47 18
Width: 1810
GlyphClass: 2
Flags: W
LayerCount: 2
Fore
SplineSet
70 -946 m 1,0,-1
 1466 2892 l 1,1,-1
 1659 2892 l 1,2,-1
 262 -946 l 1,3,-1
 70 -946 l 1,0,-1
EndSplineSet
Substitution2: "'case' Case-Sensitive Forms in Latin lookup 15 subtable" slash.uppercase
Substitution2: "'numr' Numerators in Latin lookup 5 subtable" fraction
AlternateSubs2: "'aalt' Access All Alternates in Latin lookup 1 subtable" slash.uppercase fraction
AlternateSubs2: "'aalt' Access All Alternates lookup 0 subtable" slash.uppercase fraction
EndChar

StartChar: colon
Encoding: 58 58 29
Width: 1081
GlyphClass: 2
Flags: W
LayerCount: 2
Fore
SplineSet
412.5 39.5 m 128,-1,1
 344 116 344 116 344 159.5 c 128,-1,2
 344 203 344 203 422 275.5 c 128,-1,3
 500 348 500 348 548 348 c 128,-1,4
 596 348 596 348 666.5 268.5 c 128,-1,5
 737 189 737 189 737 142.5 c 128,-1,6
 737 96 737 96 656 29.5 c 128,-1,7
 575 -37 575 -37 528 -37 c 128,-1,0
 481 -37 481 -37 412.5 39.5 c 128,-1,1
423 1314.5 m 128,-1,9
 344 1388 344 1388 344 1437.5 c 128,-1,10
 344 1487 344 1487 420 1558.5 c 128,-1,11
 496 1630 496 1630 542 1630 c 128,-1,12
 588 1630 588 1630 662.5 1558 c 128,-1,13
 737 1486 737 1486 737 1441.5 c 128,-1,14
 737 1397 737 1397 665 1319 c 128,-1,15
 593 1241 593 1241 547.5 1241 c 128,-1,8
 502 1241 502 1241 423 1314.5 c 128,-1,9
EndSplineSet
EndChar

StartChar: semicolon
Encoding: 59 59 30
Width: 1081
GlyphClass: 2
Flags: W
LayerCount: 2
Fore
SplineSet
295 -598 m 0,0,1
 233 -598 233 -598 233 -532 c 0,2,3
 233 -499.483870968 233 -499.483870968 284.5 -471.241935484 c 128,-1,4
 336 -443 336 -443 372.5 -414 c 128,-1,5
 409 -385 409 -385 440 -350.5 c 0,6,7
 512 -270.370967742 512 -270.370967742 512 -131 c 0,8,9
 512 -39 512 -39 479.5 -6.5 c 128,-1,10
 447 26 447 26 424 42 c 128,-1,11
 401 58 401 58 381.5 68 c 0,12,13
 336 91.3333333333 336 91.3333333333 336 121.166666667 c 128,-1,14
 336 151 336 151 372 199.5 c 128,-1,15
 408 248 408 248 449.5 283.5 c 128,-1,16
 491 319 491 319 505 319 c 128,-1,17
 519 319 519 319 543.5 310.5 c 128,-1,18
 568 302 568 302 605 278.5 c 128,-1,19
 642 255 642 255 674.5 220.5 c 0,20,21
 754 136.107692308 754 136.107692308 754 2.55384615385 c 128,-1,22
 754 -131 754 -131 699 -265 c 128,-1,23
 644 -399 644 -399 571.5 -468.5 c 128,-1,24
 499 -538 499 -538 421 -568 c 128,-1,25
 343 -598 343 -598 295 -598 c 0,0,1
423 1314.5 m 128,-1,27
 344 1388 344 1388 344 1437.5 c 128,-1,28
 344 1487 344 1487 420 1558.5 c 128,-1,29
 496 1630 496 1630 542 1630 c 128,-1,30
 588 1630 588 1630 662.5 1558 c 128,-1,31
 737 1486 737 1486 737 1441.5 c 128,-1,32
 737 1397 737 1397 665 1319 c 128,-1,33
 593 1241 593 1241 547.5 1241 c 128,-1,26
 502 1241 502 1241 423 1314.5 c 128,-1,27
EndSplineSet
EndChar

StartChar: less
Encoding: 60 60 31
Width: 3117
GlyphClass: 2
Flags: W
LayerCount: 2
Fore
SplineSet
242 954 m 1,0,-1
 242 1044 l 1,1,-1
 2875 2306 l 1,2,-1
 2875 2032 l 1,3,-1
 668 999 l 1,4,-1
 2875 -33 l 1,5,-1
 2875 -307 l 1,6,-1
 242 954 l 1,0,-1
EndSplineSet
Position2: "'case' Case-Sensitive Forms in Latin lookup 0 subtable" dx=0 dy=205 dh=0 dv=0
EndChar

StartChar: equal
Encoding: 61 61 32
Width: 3211
GlyphClass: 2
Flags: W
LayerCount: 2
Fore
SplineSet
369 500 m 1,0,-1
 369 741 l 1,1,-1
 2843 741 l 1,2,-1
 2843 500 l 1,3,-1
 369 500 l 1,0,-1
369 1184 m 1,4,-1
 369 1425 l 1,5,-1
 2843 1425 l 1,6,-1
 2843 1184 l 1,7,-1
 369 1184 l 1,4,-1
EndSplineSet
Position2: "'case' Case-Sensitive Forms in Latin lookup 0 subtable" dx=0 dy=205 dh=0 dv=0
EndChar

StartChar: greater
Encoding: 62 62 33
Width: 3117
GlyphClass: 2
Flags: W
LayerCount: 2
Fore
SplineSet
242 -33 m 1,0,-1
 2449 999 l 1,1,-1
 242 2032 l 1,2,-1
 242 2306 l 1,3,-1
 2875 1044 l 1,4,-1
 2875 954 l 1,5,-1
 242 -307 l 1,6,-1
 242 -33 l 1,0,-1
EndSplineSet
Position2: "'case' Case-Sensitive Forms in Latin lookup 0 subtable" dx=0 dy=205 dh=0 dv=0
EndChar

StartChar: question
Encoding: 63 63 34
Width: 1626
GlyphClass: 2
Flags: W
LayerCount: 2
Fore
SplineSet
381 2425 m 2,0,1
 328 2425 328 2425 328 2474 c 0,2,3
 328 2530.05050505 328 2530.05050505 409.5 2600.02525253 c 0,4,5
 563.211764706 2732 563.211764706 2732 692 2732 c 0,6,7
 781.114285714 2732 781.114285714 2732 902.057142857 2649 c 128,-1,8
 1023 2566 1023 2566 1100.5 2490 c 128,-1,9
 1178 2414 1178 2414 1240 2329.5 c 0,10,11
 1380 2138.69354839 1380 2138.69354839 1380 1942 c 0,12,13
 1380 1755 1380 1755 1266 1622 c 0,14,15
 1144.98377282 1479.85395538 1144.98377282 1479.85395538 1036.99188641 1387.92697769 c 128,-1,16
 929 1296 929 1296 869 1240.5 c 128,-1,17
 809 1185 809 1185 769 1140 c 0,18,19
 680 1039.875 680 1039.875 680 958.9375 c 128,-1,20
 680 878 680 878 700 826.5 c 128,-1,21
 720 775 720 775 748 742 c 128,-1,22
 776 709 776 709 804 682 c 0,23,24
 872 616.428571429 872 616.428571429 872 590.214285714 c 0,25,26
 872 532 872 532 811 532 c 0,27,28
 736.197802198 532 736.197802198 532 661.098901099 599 c 128,-1,29
 586 666 586 666 542.5 725.5 c 0,30,31
 442 862.965517241 442 862.965517241 442 1053 c 0,32,33
 442 1234.07086614 442 1234.07086614 585.5 1390 c 0,34,35
 668.432121586 1480.11521873 668.432121586 1480.11521873 812.216060793 1600.55760937 c 128,-1,36
 956 1721 956 1721 1019.5 1786 c 0,37,38
 1163 1932.88976378 1163 1932.88976378 1163 2093 c 0,39,40
 1163 2166 1163 2166 1088.5 2244 c 128,-1,41
 1014 2322 1014 2322 889.5 2375.5 c 128,-1,42
 765 2429 765 2429 635 2429 c 1,43,-1
 381 2425 l 2,0,1
656 40 m 128,-1,45
 582 117 582 117 582 164 c 128,-1,46
 582 211 582 211 660 279.5 c 128,-1,47
 738 348 738 348 785.5 348 c 128,-1,48
 833 348 833 348 904 275.5 c 128,-1,49
 975 203 975 203 975 159.5 c 128,-1,50
 975 116 975 116 900.5 39.5 c 128,-1,51
 826 -37 826 -37 778 -37 c 128,-1,44
 730 -37 730 -37 656 40 c 128,-1,45
EndSplineSet
Position2: "'cpsp' Capital Spacing in Latin lookup 1 subtable" dx=16 dy=0 dh=33 dv=0
EndChar

StartChar: at
Encoding: 64 64 35
Width: 3096
GlyphClass: 2
Flags: W
LayerCount: 2
Fore
SplineSet
2138 1921 m 0,0,1
 2138 1966 2138 1966 2179 1966 c 0,2,3
 2244 1966 2244 1966 2343 1898 c 128,-1,4
 2442 1830 2442 1830 2496 1778.5 c 128,-1,5
 2550 1727 2550 1727 2601.5 1665 c 128,-1,6
 2653 1603 2653 1603 2699 1519.5 c 128,-1,7
 2745 1436 2745 1436 2779.5 1342 c 0,8,9
 2855 1136.28985507 2855 1136.28985507 2855 915.644927536 c 128,-1,10
 2855 695 2855 695 2816.5 534.5 c 128,-1,11
 2778 374 2778 374 2709.5 248.5 c 128,-1,12
 2641 123 2641 123 2545 19.5 c 128,-1,13
 2449 -84 2449 -84 2334.5 -157 c 128,-1,14
 2220 -230 2220 -230 2089 -280 c 0,15,16
 1834.86 -377 1834.86 -377 1596.93 -377 c 128,-1,17
 1359 -377 1359 -377 1197.5 -342.5 c 128,-1,18
 1036 -308 1036 -308 908.5 -246 c 128,-1,19
 781 -184 781 -184 674.5 -98 c 128,-1,20
 568 -12 568 -12 492.5 91.5 c 128,-1,21
 417 195 417 195 364.5 312.5 c 0,22,23
 262 541.904761905 262 541.904761905 262 748.952380952 c 128,-1,24
 262 956 262 956 297 1101 c 128,-1,25
 332 1246 332 1246 398 1378 c 128,-1,26
 464 1510 464 1510 567.5 1622 c 128,-1,27
 671 1734 671 1734 801 1816 c 0,28,29
 1078.43902439 1991 1078.43902439 1991 1462 1991 c 0,30,31
 1628 1991 1628 1991 1760.5 1910 c 128,-1,32
 1893 1829 1893 1829 1964.5 1692.5 c 128,-1,33
 2036 1556 2036 1556 2036 1393 c 2,34,-1
 2036 807 l 2,35,36
 2036 617.875 2036 617.875 2103 542.5 c 0,37,38
 2168.10460251 469.257322176 2168.10460251 469.257322176 2253.55230126 446.128661088 c 128,-1,39
 2339 423 2339 423 2339 401 c 128,-1,40
 2339 379 2339 379 2284.5 345.5 c 0,41,42
 2070.05434783 213.684782609 2070.05434783 213.684782609 2056 209 c 1,43,44
 1961.33932136 277.155688623 1961.33932136 277.155688623 1919.66966068 326.577844311 c 128,-1,45
 1878 376 1878 376 1839 427 c 128,-1,46
 1800 478 1800 478 1782 500 c 1,47,48
 1699 389 1699 389 1566.5 313.5 c 128,-1,49
 1434 238 1434 238 1334.5 238 c 128,-1,50
 1235 238 1235 238 1170.5 255.5 c 128,-1,51
 1106 273 1106 273 1049 308 c 0,52,53
 922 385.98245614 922 385.98245614 922 527.49122807 c 128,-1,54
 922 669 922 669 986 784 c 128,-1,55
 1050 899 1050 899 1159 984 c 0,56,57
 1398.8 1171 1398.8 1171 1745 1171 c 1,58,-1
 1745 1495 l 2,59,60
 1745 1636 1745 1636 1629.5 1751.5 c 0,61,62
 1538 1843 1538 1843 1382 1843 c 128,-1,63
 1226 1843 1226 1843 1090.5 1786.5 c 128,-1,64
 955 1730 955 1730 856 1632.5 c 128,-1,65
 757 1535 757 1535 685 1406.5 c 0,66,67
 541 1149.5 541 1149.5 541 831 c 0,68,69
 541 498.615384615 541 498.615384615 703.5 239 c 0,70,71
 986.418518519 -213 986.418518519 -213 1610 -213 c 0,72,73
 2234.74893617 -213 2234.74893617 -213 2534.5 253.5 c 0,74,75
 2695 503.284768212 2695 503.284768212 2695 877 c 0,76,77
 2695 1120.03076923 2695 1120.03076923 2643.5 1255.51538462 c 128,-1,78
 2592 1391 2592 1391 2550.5 1467 c 128,-1,79
 2509 1543 2509 1543 2462.5 1599 c 128,-1,80
 2416 1655 2416 1655 2370 1702.5 c 128,-1,81
 2324 1750 2324 1750 2282.5 1784.5 c 128,-1,82
 2241 1819 2241 1819 2208.5 1845 c 0,83,84
 2138 1901.4 2138 1901.4 2138 1921 c 0,0,1
1212 656 m 0,85,86
 1212 575 1212 575 1270 515 c 128,-1,87
 1328 455 1328 455 1425.5 455 c 128,-1,88
 1523 455 1523 455 1576.5 470.5 c 128,-1,89
 1630 486 1630 486 1661 509.5 c 128,-1,90
 1692 533 1692 533 1712 565 c 0,91,92
 1745 617.8 1745 617.8 1745 684 c 2,93,-1
 1745 1061 l 1,94,95
 1498.0173913 1061 1498.0173913 1061 1350.5 931.5 c 0,96,97
 1212 809.916030534 1212 809.916030534 1212 656 c 0,85,86
EndSplineSet
EndChar

StartChar: A
Encoding: 65 65 36
Width: 2973
GlyphClass: 2
Flags: W
LayerCount: 2
Fore
SplineSet
111 160 m 1,0,-1
 160 160 l 2,1,2
 270 160 270 160 307 198 c 128,-1,3
 344 236 344 236 392.5 344.5 c 128,-1,4
 441 453 441 453 517.5 623.5 c 128,-1,5
 594 794 594 794 711 1054.5 c 128,-1,6
 828 1315 828 1315 880 1430 c 128,-1,7
 932 1545 932 1545 970 1627.5 c 128,-1,8
 1008 1710 1008 1710 1022 1743 c 128,-1,9
 1036 1776 1036 1776 1053 1815 c 2,10,-1
 1470 2830 l 1,11,-1
 1556 2830 l 1,12,13
 1804 2183 1804 2183 2183 1265.5 c 128,-1,14
 2562 348 2562 348 2602 273 c 128,-1,15
 2642 198 2642 198 2684.5 179 c 128,-1,16
 2727 160 2727 160 2802 160 c 2,17,-1
 2863 160 l 1,18,-1
 2859 0 l 1,19,-1
 1925 0 l 1,20,-1
 1929 160 l 1,21,-1
 2052 160 l 2,22,23
 2154 160 2154 160 2193 168.5 c 128,-1,24
 2232 177 2232 177 2232 209 c 0,25,26
 2232 231.526315789 2232 231.526315789 2213.5 278.263157895 c 128,-1,27
 2195 325 2195 325 2191 336 c 2,28,-1
 1888 1081 l 1,29,-1
 938 1081 l 1,30,-1
 614 360 l 1,31,32
 573 260 573 260 573 221 c 128,-1,33
 573 182 573 182 604.5 171 c 128,-1,34
 636 160 636 160 741 160 c 2,35,-1
 909 160 l 1,36,-1
 909 0 l 1,37,-1
 115 0 l 1,38,-1
 111 160 l 1,0,-1
1016 1262 m 1,39,-1
 1819 1262 l 1,40,-1
 1430 2232 l 1,41,-1
 1016 1262 l 1,39,-1
EndSplineSet
Substitution2: "'c2sc' Capitals to Small Capitals in Latin lookup 13 subtable" A.c2
AlternateSubs2: "'aalt' Access All Alternates in Latin lookup 1 subtable" A.c2
AlternateSubs2: "'aalt' Access All Alternates lookup 0 subtable" A.c2
Position2: "'cpsp' Capital Spacing in Latin lookup 1 subtable" dx=16 dy=0 dh=33 dv=0
EndChar

StartChar: B
Encoding: 66 66 37
Width: 2285
GlyphClass: 2
Flags: W
LayerCount: 2
Fore
SplineSet
111 2568 m 1,0,-1
 119 2732 l 1,1,-1
 1024 2732 l 2,2,3
 1731.42647059 2732 1731.42647059 2732 1927 2329 c 0,4,5
 1987 2205.36363636 1987 2205.36363636 1987 2080.18181818 c 128,-1,6
 1987 1955 1987 1955 1941 1858.5 c 128,-1,7
 1895 1762 1895 1762 1819 1689.5 c 0,8,9
 1665.72842277 1543.28698225 1665.72842277 1543.28698225 1462 1483 c 1,10,11
 1839.49275362 1397.85125858 1839.49275362 1397.85125858 1997.5 1083.5 c 0,12,13
 2085 909.421052632 2085 909.421052632 2085 739.210526316 c 0,14,15
 2085 408.382978723 2085 408.382978723 1901 242 c 0,16,17
 1656.23891938 20.7091599831 1656.23891938 20.7091599831 1001 3 c 0,18,19
 890 0 890 0 725 0 c 2,20,-1
 143 0 l 1,21,-1
 143 160 l 1,22,-1
 266 160 l 2,23,24
 371 160 371 160 404.5 181 c 128,-1,25
 438 202 438 202 438 279 c 2,26,-1
 438 2421 l 2,27,28
 438 2537.30508475 438 2537.30508475 362.5 2556.5 c 0,29,30
 317.266666667 2568 317.266666667 2568 225 2568 c 2,31,-1
 111 2568 l 1,0,-1
762 1409 m 1,32,-1
 770 311 l 2,33,34
 770 227 770 227 822 203.5 c 128,-1,35
 874 180 874 180 1015 180 c 128,-1,36
 1156 180 1156 180 1254.5 199.5 c 128,-1,37
 1353 219 1353 219 1420 250.5 c 128,-1,38
 1487 282 1487 282 1538 328.5 c 128,-1,39
 1589 375 1589 375 1618.5 422.5 c 128,-1,40
 1648 470 1648 470 1666 527 c 0,41,42
 1696 622 1696 622 1696 737 c 128,-1,43
 1696 852 1696 852 1662 950.5 c 128,-1,44
 1628 1049 1628 1049 1572 1117.5 c 128,-1,45
 1516 1186 1516 1186 1437.5 1239 c 128,-1,46
 1359 1292 1359 1292 1276.5 1323.5 c 128,-1,47
 1194 1355 1194 1355 1099 1375 c 0,48,49
 937.5 1409 937.5 1409 762 1409 c 1,32,-1
896 2552 m 0,50,51
 770 2552 770 2552 770 2458 c 2,52,-1
 770 1528 l 1,53,-1
 1171 1528 l 2,54,55
 1372.54166667 1528 1372.54166667 1528 1494 1693 c 0,56,57
 1606 1845.1509434 1606 1845.1509434 1606 2011 c 0,58,59
 1606 2296.48684211 1606 2296.48684211 1317 2460 c 0,60,61
 1154.39534884 2552 1154.39534884 2552 896 2552 c 0,50,51
EndSplineSet
Substitution2: "'c2sc' Capitals to Small Capitals in Latin lookup 13 subtable" B.c2
AlternateSubs2: "'aalt' Access All Alternates in Latin lookup 1 subtable" B.c2
AlternateSubs2: "'aalt' Access All Alternates lookup 0 subtable" B.c2
Position2: "'cpsp' Capital Spacing in Latin lookup 1 subtable" dx=16 dy=0 dh=33 dv=0
EndChar

StartChar: C
Encoding: 67 67 38
Width: 3018
GlyphClass: 2
Flags: W
LayerCount: 2
Fore
SplineSet
2588 2739.5 m 1,0,-1
 2589 2765 l 1,1,-1
 2744 2765 l 1,2,3
 2756 2366 2756 2366 2793 1982 c 1,4,-1
 2646 1978 l 1,5,6
 2627.27272727 2137.18181818 2627.27272727 2137.18181818 2625.63636364 2166.09090909 c 128,-1,7
 2624 2195 2624 2195 2618 2228.5 c 128,-1,8
 2612 2262 2612 2262 2610.5 2273 c 128,-1,9
 2609 2284 2609 2284 2597.5 2303.5 c 128,-1,10
 2586 2323 2586 2323 2579.5 2327.5 c 128,-1,11
 2573 2332 2573 2332 2552 2346 c 128,-1,12
 2531 2360 2531 2360 2515 2365.5 c 0,13,14
 2480.66081871 2377.30409357 2480.66081871 2377.30409357 2389.83040936 2424.15204678 c 128,-1,15
 2299 2471 2299 2471 2106.5 2509.5 c 128,-1,16
 1914 2548 1914 2548 1714 2548 c 128,-1,17
 1514 2548 1514 2548 1333 2489 c 128,-1,18
 1152 2430 1152 2430 1014 2323.5 c 128,-1,19
 876 2217 876 2217 775 2074.5 c 0,20,21
 569 1783.85643564 569 1783.85643564 569 1405 c 0,22,23
 569 1081.5 569 1081.5 729 781.5 c 0,24,25
 885.23690205 488.555808656 885.23690205 488.555808656 1166 304.5 c 0,26,27
 1455.06779661 115 1455.06779661 115 1810 115 c 0,28,29
 2152.5 115 2152.5 115 2482.5 335 c 0,30,31
 2663.80733945 455.871559633 2663.80733945 455.871559633 2666 537 c 2,32,-1
 2679 881 l 1,33,-1
 2822 881 l 1,34,-1
 2798 283 l 1,35,36
 2434.71480144 28.7003610108 2434.71480144 28.7003610108 1958.5 -46 c 0,37,38
 1831 -66 1831 -66 1708 -66 c 0,39,40
 1000.53276353 -66 1000.53276353 -66 609 299.5 c 0,41,42
 221 661.70212766 221 661.70212766 221 1286 c 0,43,44
 221 1869.92139738 221 1869.92139738 598.5 2270.5 c 0,45,46
 808.137256263 2492.95350774 808.137256263 2492.95350774 1123.5 2623 c 0,47,48
 1407.225 2740 1407.225 2740 1658.6125 2740 c 128,-1,49
 1910 2740 1910 2740 2074.5 2720 c 128,-1,50
 2239 2700 2239 2700 2316 2676.5 c 128,-1,51
 2393 2653 2393 2653 2450 2633 c 128,-1,52
 2507 2613 2507 2613 2527 2613 c 128,-1,53
 2547 2613 2547 2613 2559 2616.5 c 128,-1,54
 2571 2620 2571 2620 2578 2636 c 0,55,56
 2588 2658.85714286 2588 2658.85714286 2588 2739.5 c 1,0,-1
EndSplineSet
Substitution2: "'c2sc' Capitals to Small Capitals in Latin lookup 13 subtable" C.c2
AlternateSubs2: "'aalt' Access All Alternates in Latin lookup 1 subtable" C.c2
AlternateSubs2: "'aalt' Access All Alternates lookup 0 subtable" C.c2
Position2: "'cpsp' Capital Spacing in Latin lookup 1 subtable" dx=16 dy=0 dh=33 dv=0
EndChar

StartChar: D
Encoding: 68 68 39
Width: 3047
GlyphClass: 2
Flags: W
LayerCount: 2
Fore
SplineSet
111 2732 m 1,0,-1
 1217 2732 l 2,1,2
 1818.92105263 2732 1818.92105263 2732 2070.5 2652 c 0,3,4
 2409.25970901 2544.27724735 2409.25970901 2544.27724735 2615.5 2268.5 c 0,5,6
 2867 1932.20306513 2867 1932.20306513 2867 1470 c 0,7,8
 2867 848.35359116 2867 848.35359116 2453.5 428 c 0,9,10
 2032.47826087 -2.41584530158e-13 2032.47826087 -2.41584530158e-13 1241 0 c 2,11,-1
 184 0 l 1,12,-1
 180 160 l 1,13,-1
 291 160 l 2,14,15
 440.777777778 160 440.777777778 160 463.388888889 178.5 c 128,-1,16
 486 197 486 197 494 221 c 0,17,18
 504 251 504 251 504 340 c 2,19,-1
 504 2421 l 2,20,21
 504 2528 504 2528 484.5 2541 c 128,-1,22
 465 2554 465 2554 437.5 2560.5 c 0,23,24
 405.769230769 2568 405.769230769 2568 295 2568 c 2,25,-1
 123 2568 l 1,26,-1
 111 2732 l 1,0,-1
836 348 m 2,27,28
 836 242.5 836 242.5 849.5 222.25 c 128,-1,29
 863 202 863 202 882.5 189.5 c 128,-1,30
 902 177 902 177 924 173.5 c 128,-1,31
 946 170 946 170 986.5 165.5 c 0,32,33
 1036 160 1036 160 1220 160 c 128,-1,34
 1404 160 1404 160 1588 197 c 128,-1,35
 1772 234 1772 234 1905.5 298 c 128,-1,36
 2039 362 2039 362 2143 453 c 128,-1,37
 2247 544 2247 544 2313 646.5 c 128,-1,38
 2379 749 2379 749 2422 869 c 0,39,40
 2499 1083.88372093 2499 1083.88372093 2499 1276.44186047 c 128,-1,41
 2499 1469 2499 1469 2475 1591.5 c 128,-1,42
 2451 1714 2451 1714 2399 1833 c 128,-1,43
 2347 1952 2347 1952 2271 2057 c 128,-1,44
 2195 2162 2195 2162 2084.5 2251 c 128,-1,45
 1974 2340 1974 2340 1839 2404 c 0,46,47
 1552.125 2540 1552.125 2540 1155 2540 c 2,48,-1
 1004 2540 l 2,49,50
 933 2540 933 2540 900.5 2527.5 c 0,51,52
 836 2502.69230769 836 2502.69230769 836 2347 c 2,53,-1
 836 348 l 2,27,28
EndSplineSet
Substitution2: "'c2sc' Capitals to Small Capitals in Latin lookup 13 subtable" D.c2
AlternateSubs2: "'aalt' Access All Alternates in Latin lookup 1 subtable" D.c2
AlternateSubs2: "'aalt' Access All Alternates lookup 0 subtable" D.c2
Position2: "'cpsp' Capital Spacing in Latin lookup 1 subtable" dx=16 dy=0 dh=33 dv=0
EndChar

StartChar: E
Encoding: 69 69 40
Width: 2523
GlyphClass: 2
Flags: W
LayerCount: 2
Fore
SplineSet
979 188 m 0,0,1
 1798 196 1798 196 1954.5 209 c 128,-1,2
 2111 222 2111 222 2133 244 c 128,-1,3
 2155 266 2155 266 2166.5 298.5 c 128,-1,4
 2178 331 2178 331 2232 655 c 1,5,-1
 2372 635 l 1,6,-1
 2269 0 l 1,7,-1
 193 0 l 1,8,-1
 193 160 l 1,9,-1
 299 160 l 2,10,11
 451.533333333 160 451.533333333 160 474.266666667 175.5 c 128,-1,12
 497 191 497 191 505.5 212 c 0,13,14
 516 237.941176471 516 237.941176471 516 315 c 2,15,-1
 516 2392 l 2,16,17
 516 2514.34482759 516 2514.34482759 471.5 2543.5 c 0,18,19
 434.105263158 2568 434.105263158 2568 229 2568 c 2,20,-1
 115 2568 l 1,21,-1
 111 2732 l 1,22,-1
 2220 2732 l 1,23,24
 2226 2379 2226 2379 2241 2089 c 1,25,-1
 2081 2081 l 1,26,27
 2065.55940959 2485.02878229 2065.55940959 2485.02878229 2019.5 2534.5 c 0,28,29
 2006 2549 2006 2549 1973.5 2552.5 c 128,-1,30
 1941 2556 1941 2556 1782 2556 c 2,31,-1
 1085 2556 l 2,32,33
 916 2556 916 2556 893 2538 c 128,-1,34
 870 2520 870 2520 860 2494.5 c 0,35,36
 848 2463.9 848 2463.9 848 2363 c 2,37,-1
 848 1794 l 2,38,39
 848 1673.78571429 848 1673.78571429 860.5 1660.39285714 c 128,-1,40
 873 1647 873 1647 890 1639.5 c 0,41,42
 911.533333333 1630 911.533333333 1630 983 1630 c 2,43,-1
 1602 1630 l 2,44,45
 1710.2173913 1630 1710.2173913 1630 1726.10869565 1651.5 c 128,-1,46
 1742 1673 1742 1673 1748.5 1699 c 0,47,48
 1757 1733 1757 1733 1757 1835 c 2,49,-1
 1757 1991 l 1,50,-1
 1909 1987 l 1,51,-1
 1909 1008 l 1,52,-1
 1757 1008 l 1,53,-1
 1757 1221 l 2,54,55
 1757 1391.9047619 1757 1391.9047619 1740 1412.95238095 c 128,-1,56
 1723 1434 1723 1434 1716.5 1438.5 c 128,-1,57
 1710 1443 1710 1443 1689.5 1446.5 c 128,-1,58
 1669 1450 1669 1450 1655.5 1450 c 2,59,-1
 995 1450 l 2,60,61
 892.515151515 1450 892.515151515 1450 873.257575758 1429.5 c 0,62,63
 848 1402.61290323 848 1402.61290323 848 1323 c 2,64,-1
 848 356 l 2,65,66
 848 250 848 250 873 219 c 128,-1,67
 898 188 898 188 979 188 c 0,0,1
EndSplineSet
Substitution2: "'c2sc' Capitals to Small Capitals in Latin lookup 13 subtable" E.c2
AlternateSubs2: "'aalt' Access All Alternates in Latin lookup 1 subtable" E.c2
AlternateSubs2: "'aalt' Access All Alternates lookup 0 subtable" E.c2
Position2: "'cpsp' Capital Spacing in Latin lookup 1 subtable" dx=16 dy=0 dh=33 dv=0
EndChar

StartChar: F
Encoding: 70 70 41
Width: 2433
GlyphClass: 2
Flags: W
LayerCount: 2
Fore
SplineSet
111 2732 m 1,0,-1
 2212 2732 l 1,1,2
 2219 2350 2219 2350 2232 2089 c 1,3,-1
 2073 2081 l 1,4,5
 2057.55940959 2485.02878229 2057.55940959 2485.02878229 2011.5 2534.5 c 0,6,7
 1998 2549 1998 2549 1965.5 2552.5 c 128,-1,8
 1933 2556 1933 2556 1774 2556 c 2,9,-1
 1077 2556 l 2,10,11
 908 2556 908 2556 885 2538 c 128,-1,12
 862 2520 862 2520 852 2494.5 c 0,13,14
 840 2463.9 840 2463.9 840 2363 c 2,15,-1
 840 1794 l 2,16,17
 840 1673.78571429 840 1673.78571429 852.5 1660.39285714 c 128,-1,18
 865 1647 865 1647 882 1639.5 c 0,19,20
 903.533333333 1630 903.533333333 1630 975 1630 c 2,21,-1
 1593 1630 l 2,22,23
 1703.90909091 1630 1703.90909091 1630 1718.45454545 1650 c 128,-1,24
 1733 1670 1733 1670 1740 1694.5 c 0,25,26
 1749 1726 1749 1726 1749 1827 c 2,27,-1
 1749 1987 l 1,28,-1
 1901 1987 l 1,29,-1
 1901 1008 l 1,30,-1
 1749 1008 l 1,31,-1
 1749 1280.5 l 2,32,33
 1749 1306 1749 1306 1746.5 1330.5 c 128,-1,34
 1744 1355 1744 1355 1743 1370 c 128,-1,35
 1742 1385 1742 1385 1736 1399.5 c 128,-1,36
 1730 1414 1730 1414 1726.5 1421 c 128,-1,37
 1723 1428 1723 1428 1711.5 1435 c 128,-1,38
 1700 1442 1700 1442 1693.5 1444 c 128,-1,39
 1687 1446 1687 1446 1669 1448 c 128,-1,40
 1651 1450 1651 1450 1639.5 1450 c 2,41,-1
 987 1450 l 2,42,43
 884.515151515 1450 884.515151515 1450 865.257575758 1429.5 c 0,44,45
 840 1402.61290323 840 1402.61290323 840 1323 c 2,46,-1
 840 356 l 2,47,48
 840 243 840 243 863.5 201.5 c 128,-1,49
 887 160 887 160 963 160 c 2,50,-1
 1237 160 l 1,51,-1
 1237 0 l 1,52,-1
 184 0 l 1,53,-1
 184 160 l 1,54,-1
 303 160 l 2,55,56
 444.705882353 160 444.705882353 160 466.352941176 176 c 128,-1,57
 488 192 488 192 496.5 211.5 c 0,58,59
 508 237.882352941 508 237.882352941 508 315 c 2,60,-1
 508 2392 l 2,61,62
 508 2521.53488372 508 2521.53488372 480.5 2531.76744186 c 128,-1,63
 453 2542 453 2542 434.5 2552 c 128,-1,64
 416 2562 416 2562 362 2563.5 c 128,-1,65
 308 2565 308 2565 260.5 2566.5 c 128,-1,66
 213 2568 213 2568 115 2568 c 1,67,-1
 111 2732 l 1,0,-1
EndSplineSet
Substitution2: "'c2sc' Capitals to Small Capitals in Latin lookup 13 subtable" F.c2
AlternateSubs2: "'aalt' Access All Alternates in Latin lookup 1 subtable" F.c2
AlternateSubs2: "'aalt' Access All Alternates lookup 0 subtable" F.c2
Position2: "'cpsp' Capital Spacing in Latin lookup 1 subtable" dx=16 dy=0 dh=33 dv=0
EndChar

StartChar: G
Encoding: 71 71 42
Width: 3252
GlyphClass: 2
Flags: W
LayerCount: 2
Fore
SplineSet
249 935 m 128,-1,1
 221 1074 221 1074 221 1228.5 c 128,-1,2
 221 1383 221 1383 255 1544.5 c 128,-1,3
 289 1706 289 1706 357.5 1859 c 128,-1,4
 426 2012 426 2012 522.5 2149.5 c 128,-1,5
 619 2287 619 2287 751 2402 c 128,-1,6
 883 2517 883 2517 1037 2600.5 c 0,7,8
 1362.52095808 2777 1362.52095808 2777 1778 2777 c 0,9,10
 2007 2777 2007 2777 2194.5 2729.5 c 128,-1,11
 2382 2682 2382 2682 2613 2589 c 1,12,-1
 2613 2793 l 1,13,-1
 2777 2793 l 1,14,-1
 2806 1901 l 1,15,-1
 2646 1896 l 1,16,-1
 2617 2322 l 1,17,18
 2404.63587922 2485.35701599 2404.63587922 2485.35701599 2050 2552 c 0,19,20
 1901 2580 1901 2580 1726.5 2580 c 128,-1,21
 1552 2580 1552 2580 1385 2535.5 c 128,-1,22
 1218 2491 1218 2491 1093.5 2410.5 c 128,-1,23
 969 2330 969 2330 871.5 2221.5 c 128,-1,24
 774 2113 774 2113 713 1982.5 c 0,25,26
 590 1719.36065574 590 1719.36065574 590 1417 c 0,27,28
 590 1092.0962963 590 1092.0962963 728.5 791.5 c 0,29,30
 865.537680961 494.077477619 865.537680961 494.077477619 1134.5 303 c 0,31,32
 1411.79891304 106 1411.79891304 106 1790 106 c 0,33,34
 2170.5 106 2170.5 106 2442 287 c 0,35,36
 2471.7 306.8 2471.7 306.8 2499 332 c 1,37,-1
 2499 1065 l 1,38,-1
 2011 1065 l 1,39,-1
 2007 1225 l 1,40,-1
 3138 1225 l 1,41,-1
 3142 1065 l 1,42,-1
 2830 1065 l 1,43,-1
 2830 225 l 1,44,45
 2770 200 2770 200 2672 155.5 c 128,-1,46
 2574 111 2574 111 2508.5 81.5 c 128,-1,47
 2443 52 2443 52 2343 15.5 c 128,-1,48
 2243 -21 2243 -21 2155.5 -42.5 c 0,49,50
 1945.90697674 -94 1945.90697674 -94 1720.95348837 -94 c 128,-1,51
 1496 -94 1496 -94 1305 -56.5 c 128,-1,52
 1114 -19 1114 -19 964.5 48.5 c 128,-1,53
 815 116 815 116 692 211 c 128,-1,54
 569 306 569 306 482.5 419.5 c 128,-1,55
 396 533 396 533 336.5 664.5 c 128,-1,0
 277 796 277 796 249 935 c 128,-1,1
EndSplineSet
Substitution2: "'c2sc' Capitals to Small Capitals in Latin lookup 13 subtable" G.c2
AlternateSubs2: "'aalt' Access All Alternates in Latin lookup 1 subtable" G.c2
AlternateSubs2: "'aalt' Access All Alternates lookup 0 subtable" G.c2
Position2: "'cpsp' Capital Spacing in Latin lookup 1 subtable" dx=16 dy=0 dh=33 dv=0
EndChar

StartChar: H
Encoding: 72 72 43
Width: 2949
GlyphClass: 2
Flags: W
LayerCount: 2
Fore
SplineSet
111 2568 m 1,0,-1
 111 2732 l 1,1,-1
 1130 2732 l 1,2,-1
 1130 2568 l 1,3,-1
 1024 2568 l 2,4,5
 870.434782609 2568 870.434782609 2568 845.217391304 2548 c 128,-1,6
 820 2528 820 2528 809 2507 c 0,7,8
 791 2472.63636364 791 2472.63636364 791 2388 c 2,9,-1
 791 1610 l 1,10,-1
 2122 1610 l 1,11,-1
 2122 2421 l 2,12,13
 2122 2529.63157895 2122 2529.63157895 2103.5 2541.31578947 c 128,-1,14
 2085 2553 2085 2553 2056.5 2560 c 0,15,16
 2023.92857143 2568 2023.92857143 2568 1909 2568 c 2,17,-1
 1737 2568 l 1,18,-1
 1733 2732 l 1,19,-1
 2773 2732 l 1,20,-1
 2773 2568 l 1,21,-1
 2658 2568 l 2,22,23
 2522.23809524 2568 2522.23809524 2568 2499.61904762 2549 c 128,-1,24
 2477 2530 2477 2530 2468 2509.5 c 0,25,26
 2454 2477.61111111 2454 2477.61111111 2454 2396 c 2,27,-1
 2454 328 l 2,28,29
 2454 210 2454 210 2491.5 185 c 128,-1,30
 2529 160 2529 160 2699 160 c 2,31,-1
 2839 160 l 1,32,-1
 2834 0 l 1,33,-1
 1815 0 l 1,34,-1
 1810 160 l 1,35,-1
 1929 160 l 2,36,37
 2064.1 160 2064.1 160 2084.05 179 c 128,-1,38
 2104 198 2104 198 2111.5 221 c 0,39,40
 2122 253.2 2122 253.2 2122 340 c 2,41,-1
 2122 1413 l 1,42,-1
 791 1413 l 1,43,-1
 791 340 l 2,44,45
 791 217 791 217 837.5 187 c 0,46,47
 879.35 160 879.35 160 1085 160 c 2,48,-1
 1204 160 l 1,49,-1
 1196 0 l 1,50,-1
 147 0 l 1,51,-1
 143 160 l 1,52,53
 231.25 160 231.25 160 287.125 160 c 128,-1,54
 343 160 343 160 370.5 164 c 128,-1,55
 398 168 398 168 408.5 170 c 128,-1,56
 419 172 419 172 432.5 184.5 c 128,-1,57
 446 197 446 197 448.5 205 c 128,-1,58
 451 213 451 213 455 238.5 c 128,-1,59
 459 264 459 264 459 281.5 c 2,60,-1
 459 2433 l 2,61,62
 459 2527.90322581 459 2527.90322581 414.5 2548 c 0,63,64
 370.214285714 2568 370.214285714 2568 217 2568 c 2,65,-1
 111 2568 l 1,0,-1
EndSplineSet
Substitution2: "'c2sc' Capitals to Small Capitals in Latin lookup 13 subtable" H.c2
AlternateSubs2: "'aalt' Access All Alternates in Latin lookup 1 subtable" H.c2
AlternateSubs2: "'aalt' Access All Alternates lookup 0 subtable" H.c2
Position2: "'cpsp' Capital Spacing in Latin lookup 1 subtable" dx=16 dy=0 dh=33 dv=0
EndChar

StartChar: I
Encoding: 73 73 44
Width: 1318
GlyphClass: 2
Flags: W
LayerCount: 2
Fore
SplineSet
111 2568 m 1,0,-1
 115 2732 l 1,1,-1
 1143 2732 l 1,2,-1
 1143 2568 l 1,3,-1
 1073 2568 l 2,4,5
 930.666666667 2568 930.666666667 2568 907.333333333 2560.5 c 128,-1,6
 884 2553 884 2553 867 2543 c 128,-1,7
 850 2533 850 2533 844.5 2520.5 c 128,-1,8
 839 2508 839 2508 832.5 2487 c 0,9,10
 823 2456.30769231 823 2456.30769231 823 2380 c 2,11,-1
 823 348 l 2,12,13
 823 216.5 823 216.5 845.5 197.75 c 128,-1,14
 868 179 868 179 896 171 c 0,15,16
 934.5 160 934.5 160 1044 160 c 2,17,-1
 1204 160 l 1,18,-1
 1208 0 l 1,19,-1
 160 0 l 1,20,-1
 156 160 l 1,21,-1
 262 160 l 2,22,23
 421.666666667 160 421.666666667 160 446.333333333 178.5 c 128,-1,24
 471 197 471 197 480 221 c 0,25,26
 492 253 492 253 492 340 c 2,27,-1
 492 2421 l 2,28,29
 492 2528 492 2528 472.5 2541 c 128,-1,30
 453 2554 453 2554 425.5 2560.5 c 0,31,32
 393.769230769 2568 393.769230769 2568 283 2568 c 2,33,-1
 111 2568 l 1,0,-1
EndSplineSet
Substitution2: "'c2sc' Capitals to Small Capitals in Latin lookup 13 subtable" I.c2
AlternateSubs2: "'aalt' Access All Alternates in Latin lookup 1 subtable" I.c2
AlternateSubs2: "'aalt' Access All Alternates lookup 0 subtable" I.c2
Position2: "'cpsp' Capital Spacing in Latin lookup 1 subtable" dx=16 dy=0 dh=33 dv=0
EndChar

StartChar: J
Encoding: 74 74 45
Width: 1249
GlyphClass: 2
Flags: W
LayerCount: 2
Fore
SplineSet
225 -831 m 0,0,1
 492 -831 492 -831 492 -98 c 2,2,-1
 492 2421 l 2,3,4
 492 2520.85 492 2520.85 472.5 2537.425 c 128,-1,5
 453 2554 453 2554 429.5 2560 c 0,6,7
 398.166666667 2568 398.166666667 2568 307 2568 c 2,8,-1
 156 2568 l 1,9,-1
 156 2732 l 1,10,-1
 1139 2732 l 1,11,-1
 1130 2568 l 1,12,-1
 999 2568 l 2,13,14
 878.090909091 2568 878.090909091 2568 862.545454545 2550 c 128,-1,15
 847 2532 847 2532 837.5 2510.5 c 0,16,17
 823 2477.68421053 823 2477.68421053 823 2380 c 2,18,-1
 823 -8 l 2,19,20
 823 -223 823 -223 800 -351 c 128,-1,21
 777 -479 777 -479 719 -576 c 128,-1,22
 661 -673 661 -673 528 -802.5 c 128,-1,23
 395 -932 395 -932 273 -994.5 c 128,-1,24
 151 -1057 151 -1057 18.5 -1057 c 128,-1,25
 -114 -1057 -114 -1057 -212.5 -993.5 c 128,-1,26
 -311 -930 -311 -930 -311 -867.5 c 128,-1,27
 -311 -805 -311 -805 -266.5 -744.5 c 128,-1,28
 -222 -684 -222 -684 -162 -645 c 128,-1,29
 -102 -606 -102 -606 -62.5 -606 c 128,-1,30
 -23 -606 -23 -606 7 -629 c 128,-1,31
 37 -652 37 -652 60.5 -685 c 128,-1,32
 84 -718 84 -718 107.5 -751.5 c 0,33,34
 163.268656716 -831 163.268656716 -831 225 -831 c 0,0,1
EndSplineSet
Substitution2: "'c2sc' Capitals to Small Capitals in Latin lookup 13 subtable" J.c2
AlternateSubs2: "'aalt' Access All Alternates in Latin lookup 1 subtable" J.c2
AlternateSubs2: "'aalt' Access All Alternates lookup 0 subtable" J.c2
Position2: "'cpsp' Capital Spacing in Latin lookup 1 subtable" dx=16 dy=0 dh=33 dv=0
EndChar

StartChar: K
Encoding: 75 75 46
Width: 2981
GlyphClass: 2
Flags: W
LayerCount: 2
Fore
SplineSet
2019 2408 m 2,0,1
 2122 2492 2122 2492 2122 2530 c 128,-1,2
 2122 2568 2122 2568 1933 2568 c 2,3,-1
 1774 2568 l 1,4,-1
 1765 2732 l 1,5,-1
 2748 2732 l 1,6,-1
 2748 2568 l 1,7,-1
 2642 2568 l 2,8,9
 2524.34 2568 2524.34 2568 2465.17 2537.5 c 0,10,11
 2387.37729549 2497.40066778 2387.37729549 2497.40066778 2146 2302 c 1,12,-1
 1221 1561 l 1,13,-1
 2458 270 l 2,14,15
 2523 202 2523 202 2558 181 c 128,-1,16
 2593 160 2593 160 2634 160 c 2,17,-1
 2871 160 l 1,18,-1
 2863 0 l 1,19,-1
 2220 0 l 1,20,-1
 975 1368 l 1,21,-1
 823 1245 l 1,22,-1
 823 348 l 2,23,24
 823 247.285714286 823 247.285714286 838 222.642857143 c 128,-1,25
 853 198 853 198 873.5 187 c 128,-1,26
 894 176 894 176 912.5 172 c 128,-1,27
 931 168 931 168 970.5 164.5 c 0,28,29
 1021.28571429 160 1021.28571429 160 1147 160 c 2,30,-1
 1237 160 l 1,31,-1
 1237 0 l 1,32,-1
 188 0 l 1,33,-1
 184 160 l 1,34,-1
 295 160 l 2,35,36
 442.461538462 160 442.461538462 160 460.230769231 181 c 128,-1,37
 478 202 478 202 482 210.5 c 128,-1,38
 486 219 486 219 489 243.5 c 128,-1,39
 492 268 492 268 492 284.5 c 2,40,-1
 492 2421 l 2,41,42
 492 2528 492 2528 472.5 2541 c 128,-1,43
 453 2554 453 2554 425.5 2560.5 c 0,44,45
 393.769230769 2568 393.769230769 2568 283 2568 c 2,46,-1
 111 2568 l 1,47,-1
 111 2732 l 1,48,-1
 1135 2732 l 1,49,-1
 1135 2568 l 1,50,-1
 1004 2568 l 2,51,52
 881.727272727 2568 881.727272727 2568 865.363636364 2550 c 128,-1,53
 849 2532 849 2532 839 2510.5 c 0,54,55
 823 2476.1 823 2476.1 823 2380 c 2,56,-1
 823 1438 l 1,57,-1
 2019 2408 l 2,0,1
EndSplineSet
Substitution2: "'c2sc' Capitals to Small Capitals in Latin lookup 13 subtable" K.c2
AlternateSubs2: "'aalt' Access All Alternates in Latin lookup 1 subtable" K.c2
AlternateSubs2: "'aalt' Access All Alternates lookup 0 subtable" K.c2
Position2: "'cpsp' Capital Spacing in Latin lookup 1 subtable" dx=16 dy=0 dh=33 dv=0
EndChar

StartChar: L
Encoding: 76 76 47
Width: 2392
GlyphClass: 2
Flags: W
LayerCount: 2
Fore
SplineSet
111 2568 m 1,0,-1
 115 2732 l 1,1,-1
 1163 2732 l 1,2,-1
 1163 2568 l 1,3,-1
 979 2568 l 2,4,5
 864.894736842 2568 864.894736842 2568 846.947368421 2552.5 c 128,-1,6
 829 2537 829 2537 819 2520 c 0,7,8
 803 2492.8 803 2492.8 803 2417 c 2,9,-1
 803 348 l 2,10,11
 803 218.905660377 803 218.905660377 854.5 198.5 c 0,12,13
 881 188 881 188 938 188 c 0,14,15
 1973.26674787 194.266747868 1973.26674787 194.266747868 2028 249 c 0,16,17
 2059.26086957 280.260869565 2059.26086957 280.260869565 2074.13043478 352.130434783 c 128,-1,18
 2089 424 2089 424 2098.5 472 c 128,-1,19
 2108 520 2108 520 2116.5 569.5 c 128,-1,20
 2125 619 2125 619 2138 692 c 1,21,-1
 2281 684 l 1,22,-1
 2146 0 l 1,23,-1
 168 0 l 1,24,-1
 164 160 l 1,25,-1
 279 160 l 2,26,27
 419.333333333 160 419.333333333 160 437.666666667 177.5 c 128,-1,28
 456 195 456 195 460 203 c 128,-1,29
 464 211 464 211 467 231 c 0,30,31
 471 257.666666667 471 257.666666667 471 315 c 2,32,-1
 471 2433 l 2,33,34
 471 2521 471 2521 427 2544.5 c 128,-1,35
 383 2568 383 2568 254 2568 c 2,36,-1
 111 2568 l 1,0,-1
EndSplineSet
Substitution2: "'c2sc' Capitals to Small Capitals in Latin lookup 13 subtable" L.c2
Substitution2: "'locl' Localized Forms in Latin lookup 2 subtable" L.CAT
AlternateSubs2: "'aalt' Access All Alternates in Latin lookup 1 subtable" L.c2 L.CAT
AlternateSubs2: "'aalt' Access All Alternates lookup 0 subtable" L.c2
Position2: "'cpsp' Capital Spacing in Latin lookup 1 subtable" dx=16 dy=0 dh=33 dv=0
EndChar

StartChar: M
Encoding: 77 77 48
Width: 3366
GlyphClass: 2
Flags: W
LayerCount: 2
Fore
SplineSet
475 2351 m 1,0,-1
 479 2458 l 1,1,2
 479 2526 479 2526 457 2547 c 128,-1,3
 435 2568 435 2568 365 2568 c 2,4,-1
 156 2568 l 1,5,-1
 152 2732 l 1,6,-1
 770 2732 l 1,7,-1
 1704 545 l 1,8,-1
 2621 2732 l 1,9,-1
 3277 2732 l 1,10,-1
 3277 2568 l 1,11,-1
 3138 2568 l 2,12,13
 3014 2568 3014 2568 2969.5 2544.5 c 128,-1,14
 2925 2521 2925 2521 2925 2437 c 2,15,-1
 2925 348 l 2,16,17
 2925 239.1 2925 239.1 2934.5 221.05 c 128,-1,18
 2944 203 2944 203 2957.5 190 c 128,-1,19
 2971 177 2971 177 2986.5 173.5 c 128,-1,20
 3002 170 3002 170 3031.5 165.5 c 0,21,22
 3067.55555556 160 3067.55555556 160 3174 160 c 2,23,-1
 3256 160 l 1,24,-1
 3260 0 l 1,25,-1
 2265 0 l 1,26,-1
 2261 160 l 1,27,-1
 2343 160 l 2,28,29
 2517.55555556 160 2517.55555556 160 2544.27777778 178.5 c 128,-1,30
 2571 197 2571 197 2580.5 221 c 0,31,32
 2593 252.578947368 2593 252.578947368 2593 340 c 2,33,-1
 2593 2220 l 1,34,-1
 1962 733 l 2,35,36
 1827 413 1827 413 1749 211 c 128,-1,37
 1671 9 1671 9 1660 -10 c 128,-1,38
 1649 -29 1649 -29 1627 -29 c 0,39,40
 1591.98170732 -29 1591.98170732 -29 1466 262 c 2,41,-1
 643 2167 l 1,42,-1
 627 299 l 2,43,44
 627 227 627 227 651 199 c 128,-1,45
 675 171 675 171 762 165.5 c 128,-1,46
 849 160 849 160 1036 160 c 1,47,-1
 1036 0 l 1,48,-1
 152 0 l 1,49,-1
 152 160 l 1,50,-1
 193 160 l 2,51,52
 364.666666667 160 364.666666667 160 389.333333333 178.5 c 128,-1,53
 414 197 414 197 424 223 c 0,54,55
 436.125506073 254.526315789 436.125506073 254.526315789 438 352 c 2,56,-1
 475 2351 l 1,0,-1
EndSplineSet
Substitution2: "'c2sc' Capitals to Small Capitals in Latin lookup 13 subtable" M.c2
AlternateSubs2: "'aalt' Access All Alternates in Latin lookup 1 subtable" M.c2
AlternateSubs2: "'aalt' Access All Alternates lookup 0 subtable" M.c2
Position2: "'cpsp' Capital Spacing in Latin lookup 1 subtable" dx=16 dy=0 dh=33 dv=0
EndChar

StartChar: N
Encoding: 78 78 49
Width: 3047
GlyphClass: 2
Flags: W
LayerCount: 2
Fore
SplineSet
111 2732 m 1,0,-1
 745 2732 l 1,1,-1
 2425 565 l 1,2,-1
 2425 2421 l 2,3,4
 2425 2517.42857143 2425 2517.42857143 2379 2547 c 0,5,6
 2346.33333333 2568 2346.33333333 2568 2200 2568 c 2,7,-1
 2056 2568 l 1,8,-1
 2064 2732 l 1,9,-1
 2937 2732 l 1,10,-1
 2937 2568 l 1,11,-1
 2843 2568 l 2,12,13
 2716.48648649 2568 2716.48648649 2568 2677.74324324 2544.5 c 0,14,15
 2617 2507.6557377 2617 2507.6557377 2617 2388 c 2,16,-1
 2617 29 l 2,17,18
 2617 -31 2617 -31 2611.5 -50.5 c 128,-1,19
 2606 -70 2606 -70 2580 -70 c 2,20,-1
 2523 -70 l 2,21,22
 2489.14285714 -70 2489.14285714 -70 2482.07142857 -61 c 128,-1,23
 2475 -52 2475 -52 2470.5 -47 c 128,-1,24
 2466 -42 2466 -42 2454.5 -25.5 c 128,-1,25
 2443 -9 2443 -9 2433 4 c 2,26,-1
 647 2298 l 1,27,-1
 668 348 l 1,28,29
 668 214.769230769 668 214.769230769 720.5 186.5 c 0,30,31
 769.714285714 160 769.714285714 160 971 160 c 2,32,-1
 1040 160 l 1,33,-1
 1040 0 l 1,34,-1
 180 0 l 1,35,-1
 180 160 l 1,36,-1
 303 160 l 2,37,38
 437.534883721 160 437.534883721 160 457 206.5 c 0,39,40
 475 249.5 475 249.5 475 340 c 2,41,-1
 475 2519 l 1,42,-1
 434 2568 l 1,43,-1
 115 2568 l 1,44,-1
 111 2732 l 1,0,-1
EndSplineSet
Substitution2: "'c2sc' Capitals to Small Capitals in Latin lookup 13 subtable" N.c2
AlternateSubs2: "'aalt' Access All Alternates in Latin lookup 1 subtable" N.c2
AlternateSubs2: "'aalt' Access All Alternates lookup 0 subtable" N.c2
Position2: "'cpsp' Capital Spacing in Latin lookup 1 subtable" dx=16 dy=0 dh=33 dv=0
EndChar

StartChar: O
Encoding: 79 79 50
Width: 3268
GlyphClass: 2
Flags: W
LayerCount: 2
Fore
SplineSet
221 1381 m 0,0,1
 221 1575 221 1575 277 1781.5 c 128,-1,2
 333 1988 333 1988 432 2145 c 128,-1,3
 531 2302 531 2302 665.5 2426 c 128,-1,4
 800 2550 800 2550 959 2628.5 c 0,5,6
 1284.08917197 2789 1284.08917197 2789 1642 2789 c 0,7,8
 2114.80701754 2789 2114.80701754 2789 2491 2527.5 c 0,9,10
 2889.01 2250.8345122 2889.01 2250.8345122 3006 1741.5 c 0,11,12
 3047 1563 3047 1563 3047 1386.5 c 128,-1,13
 3047 1210 3047 1210 3018.5 1060.5 c 128,-1,14
 2990 911 2990 911 2930.5 769 c 128,-1,15
 2871 627 2871 627 2785 502 c 128,-1,16
 2699 377 2699 377 2579.5 272.5 c 128,-1,17
 2460 168 2460 168 2316.5 93 c 0,18,19
 2012.28 -66 2012.28 -66 1610 -66 c 0,20,21
 1049.43137255 -66 1049.43137255 -66 673 265 c 0,22,23
 221 662.448275862 221 662.448275862 221 1381 c 0,0,1
624 1819 m 128,-1,25
 590 1660 590 1660 590 1496 c 128,-1,26
 590 1332 590 1332 613.5 1190.5 c 128,-1,27
 637 1049 637 1049 685.5 914.5 c 128,-1,28
 734 780 734 780 802.5 659.5 c 128,-1,29
 871 539 871 539 966 438.5 c 128,-1,30
 1061 338 1061 338 1173.5 265 c 0,31,32
 1410.82876712 111 1410.82876712 111 1720 111 c 0,33,34
 1968.5483871 111 1968.5483871 111 2186 237 c 0,35,36
 2401.87830148 362.088361606 2401.87830148 362.088361606 2536.5 619 c 0,37,38
 2675 883.312977099 2675 883.312977099 2675 1262 c 0,39,40
 2675 1874.28169014 2675 1874.28169014 2322.5 2266.5 c 0,41,42
 2118.69564662 2493.26822418 2118.69564662 2493.26822418 1831 2580 c 0,43,44
 1695 2621 1695 2621 1583.5 2621 c 128,-1,45
 1472 2621 1472 2621 1385 2605 c 128,-1,46
 1298 2589 1298 2589 1202 2549.5 c 128,-1,47
 1106 2510 1106 2510 1019 2451.5 c 128,-1,48
 932 2393 932 2393 853 2300.5 c 128,-1,49
 774 2208 774 2208 716 2093 c 128,-1,24
 658 1978 658 1978 624 1819 c 128,-1,25
EndSplineSet
Substitution2: "'c2sc' Capitals to Small Capitals in Latin lookup 13 subtable" O.c2
AlternateSubs2: "'aalt' Access All Alternates in Latin lookup 1 subtable" O.c2
AlternateSubs2: "'aalt' Access All Alternates lookup 0 subtable" O.c2
Position2: "'cpsp' Capital Spacing in Latin lookup 1 subtable" dx=16 dy=0 dh=33 dv=0
EndChar

StartChar: P
Encoding: 80 80 51
Width: 2338
GlyphClass: 2
Flags: W
LayerCount: 2
Fore
SplineSet
111 0 m 1,0,-1
 111 160 l 1,1,-1
 238 160 l 2,2,3
 338.909090909 160 338.909090909 160 355.954545455 172.5 c 128,-1,4
 373 185 373 185 378.5 201.5 c 0,5,6
 385 221 385 221 385 279 c 2,7,-1
 385 2421 l 2,8,9
 385 2523.25 385 2523.25 360 2542.625 c 0,10,11
 327.258064516 2568 327.258064516 2568 229 2568 c 2,12,-1
 123 2568 l 1,13,-1
 127 2732 l 1,14,-1
 971 2732 l 2,15,16
 1391.15384615 2732 1391.15384615 2732 1507.07692308 2699 c 0,17,18
 1701.32409904 2643.70335867 1701.32409904 2643.70335867 1835.16204952 2535.35167933 c 128,-1,19
 1969 2427 1969 2427 2064 2241.5 c 128,-1,20
 2159 2056 2159 2056 2159 1823 c 0,21,22
 2159 1458.65 2159 1458.65 1854 1236 c 0,23,24
 1636.19178082 1077 1636.19178082 1077 1294 1077 c 0,25,26
 1033.33333333 1077 1033.33333333 1077 751 1154 c 0,27,28
 718 1163 718 1163 717 1163 c 1,29,-1
 717 279 l 2,30,31
 717 192.965517241 717 192.965517241 752.5 179.5 c 0,32,33
 803.909090909 160 803.909090909 160 995 160 c 2,34,-1
 1200 160 l 1,35,-1
 1200 0 l 1,36,-1
 111 0 l 1,0,-1
717 1286 m 1,37,38
 821 1208 821 1208 1124 1208 c 128,-1,39
 1427 1208 1427 1208 1600.5 1367 c 128,-1,40
 1774 1526 1774 1526 1774 1831 c 0,41,42
 1774 2246.86808511 1774 2246.86808511 1388.5 2447 c 0,43,44
 1155.42622951 2568 1155.42622951 2568 840 2568 c 0,45,46
 768.205128205 2568 768.205128205 2568 748.102564103 2543.5 c 0,47,48
 717 2505.59375 717 2505.59375 717 2380 c 2,49,-1
 717 1286 l 1,37,38
EndSplineSet
Substitution2: "'c2sc' Capitals to Small Capitals in Latin lookup 13 subtable" P.c2
AlternateSubs2: "'aalt' Access All Alternates in Latin lookup 1 subtable" P.c2
AlternateSubs2: "'aalt' Access All Alternates lookup 0 subtable" P.c2
Position2: "'cpsp' Capital Spacing in Latin lookup 1 subtable" dx=16 dy=0 dh=33 dv=0
EndChar

StartChar: Q
Encoding: 81 81 52
Width: 3268
GlyphClass: 2
Flags: W
LayerCount: 2
Fore
SplineSet
252.5 1012.5 m 128,-1,1
 221 1169 221 1169 221 1372 c 128,-1,2
 221 1575 221 1575 277 1781.5 c 128,-1,3
 333 1988 333 1988 432 2145 c 128,-1,4
 531 2302 531 2302 665.5 2426 c 128,-1,5
 800 2550 800 2550 959 2628.5 c 0,6,7
 1284.08917197 2789 1284.08917197 2789 1642 2789 c 0,8,9
 2114.80701754 2789 2114.80701754 2789 2491 2527.5 c 0,10,11
 2889.01 2250.8345122 2889.01 2250.8345122 3006 1741.5 c 0,12,13
 3047 1563 3047 1563 3047 1320.5 c 128,-1,14
 3047 1078 3047 1078 2951 823 c 0,15,16
 2760.18118631 316.137526149 2760.18118631 316.137526149 2310 90 c 0,17,18
 2243.23824451 55.5423197492 2243.23824451 55.5423197492 2101 12 c 1,19,-1
 2052 -4 l 1,20,21
 2244.08703536 -84.0362647325 2244.08703536 -84.0362647325 2558.5 -333 c 0,22,23
 2885.66668749 -592.062601524 2885.66668749 -592.062601524 3020.83334375 -660.531300762 c 128,-1,24
 3156 -729 3156 -729 3225 -729 c 128,-1,25
 3294 -729 3294 -729 3334 -717.5 c 128,-1,26
 3374 -706 3374 -706 3398 -695 c 128,-1,27
 3422 -684 3422 -684 3437 -684 c 0,28,29
 3473 -684 3473 -684 3473 -729 c 0,30,31
 3473 -840.4 3473 -840.4 3320 -922 c 0,32,33
 3220.625 -975 3220.625 -975 3082.3125 -975 c 128,-1,34
 2944 -975 2944 -975 2851 -953.5 c 128,-1,35
 2758 -932 2758 -932 2673.5 -890.5 c 128,-1,36
 2589 -849 2589 -849 2514 -802.5 c 128,-1,37
 2439 -756 2439 -756 2360 -691.5 c 128,-1,38
 2281 -627 2281 -627 2220.5 -574 c 128,-1,39
 2160 -521 2160 -521 2084 -453 c 128,-1,40
 2008 -385 2008 -385 1915.5 -310 c 128,-1,41
 1823 -235 1823 -235 1745 -178 c 128,-1,42
 1667 -121 1667 -121 1605.5 -94 c 128,-1,43
 1544 -67 1544 -67 1511 -62.5 c 128,-1,44
 1478 -58 1478 -58 1399 -49.5 c 128,-1,45
 1320 -41 1320 -41 1228.5 -22 c 128,-1,46
 1137 -3 1137 -3 1034.5 39.5 c 128,-1,47
 932 82 932 82 831 148 c 128,-1,48
 730 214 730 214 640 298 c 128,-1,49
 550 382 550 382 473 492.5 c 128,-1,50
 396 603 396 603 340 729.5 c 128,-1,0
 284 856 284 856 252.5 1012.5 c 128,-1,1
624 1819 m 128,-1,52
 590 1660 590 1660 590 1496 c 128,-1,53
 590 1332 590 1332 613.5 1190.5 c 128,-1,54
 637 1049 637 1049 685.5 914.5 c 128,-1,55
 734 780 734 780 802.5 659.5 c 128,-1,56
 871 539 871 539 966 438.5 c 128,-1,57
 1061 338 1061 338 1173.5 265 c 0,58,59
 1410.82876712 111 1410.82876712 111 1720 111 c 0,60,61
 1968.5483871 111 1968.5483871 111 2186 237 c 0,62,63
 2401.87830148 362.088361606 2401.87830148 362.088361606 2536.5 619 c 0,64,65
 2675 883.312977099 2675 883.312977099 2675 1262 c 0,66,67
 2675 1874.28169014 2675 1874.28169014 2322.5 2266.5 c 0,68,69
 2118.69564662 2493.26822418 2118.69564662 2493.26822418 1831 2580 c 0,70,71
 1695 2621 1695 2621 1583.5 2621 c 128,-1,72
 1472 2621 1472 2621 1385 2605 c 128,-1,73
 1298 2589 1298 2589 1202 2549.5 c 128,-1,74
 1106 2510 1106 2510 1019 2451.5 c 128,-1,75
 932 2393 932 2393 853 2300.5 c 128,-1,76
 774 2208 774 2208 716 2093 c 128,-1,51
 658 1978 658 1978 624 1819 c 128,-1,52
EndSplineSet
Substitution2: "'c2sc' Capitals to Small Capitals in Latin lookup 13 subtable" Q.c2
AlternateSubs2: "'aalt' Access All Alternates in Latin lookup 1 subtable" Q.c2
AlternateSubs2: "'aalt' Access All Alternates lookup 0 subtable" Q.c2
Position2: "'cpsp' Capital Spacing in Latin lookup 1 subtable" dx=16 dy=0 dh=33 dv=0
EndChar

StartChar: R
Encoding: 82 82 53
Width: 2842
GlyphClass: 2
Flags: W
LayerCount: 2
Fore
SplineSet
1159 1257 m 1,0,1
 907.875 1257 907.875 1257 786 1282 c 1,2,-1
 786 279 l 2,3,4
 786 194.2 786 194.2 824 179 c 0,5,6
 871.5 160 871.5 160 1069 160 c 2,7,-1
 1278 160 l 1,8,-1
 1270 0 l 1,9,-1
 180 0 l 1,10,-1
 180 160 l 1,11,-1
 274 160 l 2,12,13
 405.4 160 405.4 160 422.2 170.5 c 128,-1,14
 439 181 439 181 446.5 197.5 c 0,15,16
 455 216.2 455 216.2 455 279 c 2,17,-1
 455 2421 l 2,18,19
 455 2534.74285714 455 2534.74285714 362 2556 c 0,20,21
 309.5 2568 309.5 2568 209 2568 c 2,22,-1
 94 2568 l 1,23,-1
 98 2732 l 1,24,-1
 1040 2732 l 2,25,26
 1366 2732 1366 2732 1548.5 2690.5 c 128,-1,27
 1731 2649 1731 2649 1873.5 2533.5 c 128,-1,28
 2016 2418 2016 2418 2091.5 2267.5 c 128,-1,29
 2167 2117 2167 2117 2167 2000 c 128,-1,30
 2167 1883 2167 1883 2148.5 1808 c 128,-1,31
 2130 1733 2130 1733 2086.5 1657.5 c 128,-1,32
 2043 1582 2043 1582 1977 1519 c 0,33,34
 1831.46676971 1380.08191654 1831.46676971 1380.08191654 1581 1315 c 1,35,-1
 2367 270 l 1,36,37
 2423 200 2423 200 2460 180 c 128,-1,38
 2497 160 2497 160 2544 160 c 2,39,-1
 2720 160 l 1,40,-1
 2728 0 l 1,41,-1
 2134 0 l 1,42,-1
 1257 1262 l 1,43,-1
 1159 1257 l 1,0,1
786 1417 m 1,44,45
 835.2 1376 835.2 1376 1049 1376 c 0,46,47
 1421 1376 1421 1376 1591 1504 c 128,-1,48
 1761 1632 1761 1632 1761 1901 c 0,49,50
 1761 2196.96226415 1761 2196.96226415 1543 2380 c 0,51,52
 1319.08988764 2568 1319.08988764 2568 909 2568 c 0,53,54
 837.205128205 2568 837.205128205 2568 817.102564103 2543.5 c 0,55,56
 786 2505.59375 786 2505.59375 786 2380 c 2,57,-1
 786 1417 l 1,44,45
EndSplineSet
Substitution2: "'c2sc' Capitals to Small Capitals in Latin lookup 13 subtable" R.c2
AlternateSubs2: "'aalt' Access All Alternates in Latin lookup 1 subtable" R.c2
AlternateSubs2: "'aalt' Access All Alternates lookup 0 subtable" R.c2
Position2: "'cpsp' Capital Spacing in Latin lookup 1 subtable" dx=16 dy=0 dh=33 dv=0
EndChar

StartChar: S
Encoding: 83 83 54
Width: 2117
GlyphClass: 2
Flags: W
LayerCount: 2
Fore
SplineSet
262 -115 m 1,0,1
 229.050691244 69.2165898618 229.050691244 69.2165898618 102 696 c 1,2,-1
 246 713 l 1,3,-1
 299 459 l 2,4,5
 327.409309791 324.701444623 327.409309791 324.701444623 343.704654896 305.350722311 c 128,-1,6
 360 286 360 286 383.5 270.5 c 128,-1,7
 407 255 407 255 427 248 c 128,-1,8
 447 241 447 241 539 208.5 c 0,9,10
 747.061538462 135 747.061538462 135 946.530769231 135 c 128,-1,11
 1146 135 1146 135 1269 193 c 128,-1,12
 1392 251 1392 251 1468 366 c 128,-1,13
 1544 481 1544 481 1544 593.5 c 128,-1,14
 1544 706 1544 706 1514 776 c 128,-1,15
 1484 846 1484 846 1438.5 901 c 128,-1,16
 1393 956 1393 956 1320 1013.5 c 0,17,18
 1207.56219512 1102.06402439 1207.56219512 1102.06402439 1020 1204 c 1,19,-1
 852 1298 l 2,20,21
 602.342313788 1438.21870048 602.342313788 1438.21870048 530.171156894 1507.10935024 c 128,-1,22
 458 1576 458 1576 412.5 1632 c 128,-1,23
 367 1688 367 1688 340 1747 c 0,24,25
 279 1880.2962963 279 1880.2962963 279 2035.64814815 c 128,-1,26
 279 2191 279 2191 349 2329 c 128,-1,27
 419 2467 419 2467 533 2561 c 0,28,29
 780.404255319 2765 780.404255319 2765 1094 2765 c 0,30,31
 1250 2765 1250 2765 1373 2724 c 128,-1,32
 1496 2683 1496 2683 1513 2683 c 128,-1,33
 1530 2683 1530 2683 1545.5 2709.5 c 128,-1,34
 1561.08481532 2736.14500684 1561.08481532 2736.14500684 1565 2789 c 1,35,-1
 1704 2798 l 1,36,-1
 1765 2048 l 1,37,-1
 1618 2044 l 1,38,-1
 1581 2408 l 1,39,40
 1450.61398176 2509.41134752 1450.61398176 2509.41134752 1211 2554.5 c 0,41,42
 1118 2572 1118 2572 1007.5 2572 c 128,-1,43
 897 2572 897 2572 789 2517 c 128,-1,44
 681 2462 681 2462 615 2361 c 128,-1,45
 549 2260 549 2260 549 2165 c 128,-1,46
 549 2070 549 2070 567 2011.5 c 128,-1,47
 585 1953 585 1953 621.5 1902 c 128,-1,48
 658 1851 658 1851 701 1807 c 128,-1,49
 744 1763 744 1763 807 1718 c 0,50,51
 904.25 1648.53571429 904.25 1648.53571429 1061 1561 c 1,52,-1
 1286 1438 l 1,53,54
 1527.44852644 1304.22446508 1527.44852644 1304.22446508 1610.72426322 1228.11223254 c 128,-1,55
 1694 1152 1694 1152 1739.5 1098.5 c 128,-1,56
 1785 1045 1785 1045 1813.5 990 c 0,57,58
 1876 869.385964912 1876 869.385964912 1876 739.692982456 c 128,-1,59
 1876 610 1876 610 1837.5 498.5 c 128,-1,60
 1799 387 1799 387 1720.5 289.5 c 128,-1,61
 1642 192 1642 192 1532.5 119.5 c 0,62,63
 1296.13103448 -37 1296.13103448 -37 946 -37 c 0,64,65
 748 -37 748 -37 624 0 c 128,-1,66
 500 37 500 37 471 37 c 0,67,68
 397 37 397 37 397 -49 c 1,69,-1
 401 -102 l 1,70,-1
 262 -115 l 1,0,1
EndSplineSet
Substitution2: "'c2sc' Capitals to Small Capitals in Latin lookup 13 subtable" S.c2
AlternateSubs2: "'aalt' Access All Alternates in Latin lookup 1 subtable" S.c2
AlternateSubs2: "'aalt' Access All Alternates lookup 0 subtable" S.c2
Position2: "'cpsp' Capital Spacing in Latin lookup 1 subtable" dx=16 dy=0 dh=33 dv=0
EndChar

StartChar: T
Encoding: 84 84 55
Width: 2580
GlyphClass: 2
Flags: W
LayerCount: 2
Fore
SplineSet
2470 2732 m 1,0,-1
 2421 2077 l 1,1,-1
 2273 2081 l 1,2,3
 2298 2375 2298 2375 2298 2437.5 c 128,-1,4
 2298 2500 2298 2500 2254.5 2526 c 128,-1,5
 2211 2552 2211 2552 2089 2552 c 0,6,7
 1818.25 2552 1818.25 2552 1670.125 2552 c 128,-1,8
 1522 2552 1522 2552 1495.5 2547 c 128,-1,9
 1469 2542 1469 2542 1457 2539.5 c 128,-1,10
 1445 2537 1445 2537 1432 2523 c 128,-1,11
 1419 2509 1419 2509 1415.5 2500.5 c 128,-1,12
 1412 2492 1412 2492 1408.5 2464.5 c 128,-1,13
 1405 2437 1405 2437 1405 2418 c 2,14,-1
 1405 348 l 2,15,16
 1405 221.214285714 1405 221.214285714 1446 189 c 0,17,18
 1482.90909091 160 1482.90909091 160 1642 160 c 2,19,-1
 1806 160 l 1,20,-1
 1810 0 l 1,21,-1
 729 4 l 1,22,-1
 729 160 l 1,23,24
 797.75 160 797.75 160 844.875 160 c 128,-1,25
 892 160 892 160 924 162 c 128,-1,26
 956 164 956 164 971 165.5 c 128,-1,27
 986 167 986 167 1005.5 172.5 c 128,-1,28
 1025 178 1025 178 1032.5 183 c 128,-1,29
 1040 188 1040 188 1050 199 c 128,-1,30
 1060 210 1060 210 1062.5 220.5 c 128,-1,31
 1065 231 1065 231 1068.5 249.5 c 0,32,33
 1073 273.285714286 1073 273.285714286 1073 332 c 2,34,-1
 1073 2322 l 2,35,36
 1073 2478.63157895 1073 2478.63157895 1053.5 2505.31578947 c 128,-1,37
 1034 2532 1034 2532 1010.5 2540.5 c 0,38,39
 978.705882353 2552 978.705882353 2552 893 2552 c 2,40,-1
 463 2552 l 2,41,42
 328.565217391 2552 328.565217391 2552 296.782608696 2530.5 c 128,-1,43
 265 2509 265 2509 252 2489 c 128,-1,44
 239 2469 239 2469 231.5 2443.5 c 128,-1,45
 224 2418 224 2418 218.5 2381 c 0,46,47
 211.520467836 2334.04678363 211.520467836 2334.04678363 204.260233918 2224.52339181 c 128,-1,48
 197 2115 197 2115 193 2068 c 1,49,-1
 45 2073 l 1,50,51
 81 2420 81 2420 106 2732 c 1,52,-1
 2470 2732 l 1,0,-1
EndSplineSet
Substitution2: "'c2sc' Capitals to Small Capitals in Latin lookup 13 subtable" T.c2
AlternateSubs2: "'aalt' Access All Alternates in Latin lookup 1 subtable" T.c2
AlternateSubs2: "'aalt' Access All Alternates lookup 0 subtable" T.c2
Position2: "'cpsp' Capital Spacing in Latin lookup 1 subtable" dx=16 dy=0 dh=33 dv=0
EndChar

StartChar: U
Encoding: 85 85 56
Width: 2953
GlyphClass: 2
Flags: W
LayerCount: 2
Fore
SplineSet
111 2568 m 1,0,-1
 111 2732 l 1,1,-1
 1094 2732 l 1,2,-1
 1098 2568 l 1,3,-1
 942 2568 l 2,4,5
 820 2568 820 2568 770.5 2540 c 128,-1,6
 721 2512 721 2512 721 2417 c 2,7,-1
 721 901 l 2,8,9
 721 615.784615385 721 615.784615385 900 412 c 0,10,11
 1117.83783784 164 1117.83783784 164 1577 164 c 0,12,13
 2091.09677419 164 2091.09677419 164 2266.5 381.5 c 0,14,15
 2329 459 2329 459 2361 524.5 c 128,-1,16
 2393 590 2393 590 2410 702 c 0,17,18
 2433 853.529411765 2433 853.529411765 2433 1094 c 2,19,-1
 2433 2421 l 2,20,21
 2433 2517.42857143 2433 2517.42857143 2387 2547 c 0,22,23
 2354.33333333 2568 2354.33333333 2568 2208 2568 c 2,24,-1
 2064 2568 l 1,25,-1
 2073 2732 l 1,26,-1
 2843 2732 l 1,27,-1
 2843 2568 l 1,28,-1
 2785 2568 l 2,29,30
 2716 2568 2716 2568 2685.5 2557 c 0,31,32
 2626 2535.54098361 2626 2535.54098361 2626 2388 c 2,33,-1
 2626 934 l 2,34,35
 2626 253.560747664 2626 253.560747664 2154 33 c 0,36,37
 1925.02 -74 1925.02 -74 1577 -74 c 0,38,39
 691.923076923 -74 691.923076923 -74 464.5 473.5 c 0,40,41
 389 655.259259259 389 655.259259259 389 881 c 2,42,-1
 389 2421 l 2,43,44
 389 2522.73333333 389 2522.73333333 360.5 2542.36666667 c 0,45,46
 323.290322581 2568 323.290322581 2568 221 2568 c 2,47,-1
 111 2568 l 1,0,-1
EndSplineSet
Substitution2: "'c2sc' Capitals to Small Capitals in Latin lookup 13 subtable" U.c2
AlternateSubs2: "'aalt' Access All Alternates in Latin lookup 1 subtable" U.c2
AlternateSubs2: "'aalt' Access All Alternates lookup 0 subtable" U.c2
Position2: "'cpsp' Capital Spacing in Latin lookup 1 subtable" dx=16 dy=0 dh=33 dv=0
EndChar

StartChar: V
Encoding: 86 86 57
Width: 3121
GlyphClass: 2
Flags: W
LayerCount: 2
Fore
SplineSet
111 2568 m 1,0,-1
 111 2732 l 1,1,-1
 1139 2732 l 1,2,-1
 1135 2568 l 1,3,-1
 918 2568 l 2,4,5
 863 2568 863 2568 841 2558.5 c 128,-1,6
 819 2549 819 2549 819 2507 c 128,-1,7
 819 2465 819 2465 877 2322 c 2,8,-1
 1638 430 l 1,9,-1
 2499 2408 l 1,10,11
 2519 2463 2519 2463 2519 2488.5 c 128,-1,12
 2519 2514 2519 2514 2504.5 2531.5 c 128,-1,13
 2490 2549 2490 2549 2458.5 2556.5 c 0,14,15
 2410.2 2568 2410.2 2568 2318 2568 c 2,16,-1
 2187 2568 l 1,17,-1
 2179 2732 l 1,18,-1
 3011 2732 l 1,19,-1
 3002 2568 l 1,20,-1
 2884 2568 l 2,21,22
 2783.52941176 2568 2783.52941176 2568 2738 2503.5 c 0,23,24
 2692.65116279 2439.25581395 2692.65116279 2439.25581395 2630.3255814 2295.12790698 c 128,-1,25
 2568 2151 2568 2151 2558.5 2129.5 c 0,26,27
 2542.66666667 2093.66666667 2542.66666667 2093.66666667 2503 2003 c 2,28,-1
 1585 -61 l 1,29,-1
 1516 -61 l 1,30,-1
 565 2249 l 2,31,32
 486 2439 486 2439 452.5 2491.5 c 128,-1,33
 419 2544 419 2544 374.5 2556 c 128,-1,34
 330 2568 330 2568 254 2568 c 2,35,-1
 111 2568 l 1,0,-1
EndSplineSet
Substitution2: "'c2sc' Capitals to Small Capitals in Latin lookup 13 subtable" V.c2
AlternateSubs2: "'aalt' Access All Alternates in Latin lookup 1 subtable" V.c2
AlternateSubs2: "'aalt' Access All Alternates lookup 0 subtable" V.c2
Position2: "'cpsp' Capital Spacing in Latin lookup 1 subtable" dx=16 dy=0 dh=33 dv=0
EndChar

StartChar: W
Encoding: 87 87 58
Width: 4259
GlyphClass: 2
Flags: W
LayerCount: 2
Fore
SplineSet
152 2568 m 1,0,-1
 152 2732 l 1,1,-1
 1061 2732 l 1,2,-1
 1057 2568 l 1,3,-1
 967 2568 l 2,4,5
 781.756756757 2568 781.756756757 2568 742.5 2526.5 c 0,6,7
 725 2508 725 2508 725 2486.5 c 128,-1,8
 725 2465 725 2465 733 2433 c 1,9,-1
 1442 483 l 1,10,-1
 2118 2212 l 1,11,12
 2111 2231 2111 2231 2098.5 2271 c 128,-1,13
 2086 2311 2086 2311 2076 2338.5 c 128,-1,14
 2066 2366 2066 2366 2051 2404.5 c 128,-1,15
 2036 2443 2036 2443 2020 2468.5 c 128,-1,16
 2004 2494 2004 2494 1983.5 2518.5 c 0,17,18
 1942.08163265 2568 1942.08163265 2568 1884 2568 c 2,19,-1
 1683 2568 l 1,20,-1
 1683 2732 l 1,21,-1
 2658 2732 l 1,22,-1
 2658 2568 l 1,23,-1
 2441 2568 l 2,24,25
 2375 2568 2375 2568 2355 2556.5 c 128,-1,26
 2335 2545 2335 2545 2335 2511.5 c 0,27,28
 2335 2461.52083333 2335 2461.52083333 2408 2241 c 1,29,-1
 3006 496 l 1,30,-1
 3736 2408 l 1,31,32
 3752 2466 3752 2466 3752 2487.5 c 128,-1,33
 3752 2509 3752 2509 3737 2528 c 128,-1,34
 3722 2547 3722 2547 3689.5 2555.5 c 0,35,36
 3641.70588235 2568 3641.70588235 2568 3551 2568 c 2,37,-1
 3445 2568 l 1,38,-1
 3445 2732 l 1,39,-1
 4145 2732 l 1,40,-1
 4149 2568 l 1,41,-1
 4100 2568 l 2,42,43
 4004 2568 4004 2568 3971 2528 c 128,-1,44
 3938 2488 3938 2488 3902 2391.5 c 128,-1,45
 3866 2295 3866 2295 3863 2286 c 2,46,-1
 2957 -66 l 1,47,-1
 2888 -66 l 1,48,-1
 2191 1982 l 1,49,-1
 1397 -61 l 1,50,-1
 1331 -61 l 1,51,-1
 463 2310 l 1,52,53
 400.644653219 2483.42580823 400.644653219 2483.42580823 359.82232661 2518.71290412 c 128,-1,54
 319 2554 319 2554 292.5 2561 c 128,-1,55
 266 2568 266 2568 221 2568 c 2,56,-1
 152 2568 l 1,0,-1
EndSplineSet
Substitution2: "'c2sc' Capitals to Small Capitals in Latin lookup 13 subtable" W.c2
AlternateSubs2: "'aalt' Access All Alternates in Latin lookup 1 subtable" W.c2
AlternateSubs2: "'aalt' Access All Alternates lookup 0 subtable" W.c2
Position2: "'cpsp' Capital Spacing in Latin lookup 1 subtable" dx=16 dy=0 dh=33 dv=0
EndChar

StartChar: X
Encoding: 88 88 59
Width: 3112
GlyphClass: 2
Flags: W
LayerCount: 2
Fore
SplineSet
111 0 m 1,0,-1
 111 160 l 1,1,2
 200 160 l 2,3,4
 231 160 231 160 269.5 165 c 128,-1,5
 308 170 308 170 323.5 171.5 c 128,-1,6
 339 173 339 173 368.5 188 c 128,-1,7
 398 203 398 203 408 211 c 128,-1,8
 418 219 418 219 448.5 248 c 128,-1,9
 479 277 479 277 494 295.5 c 128,-1,10
 509 314 509 314 551 361 c 128,-1,11
 593 408 593 408 623 442 c 2,12,-1
 1405 1327 l 1,13,-1
 598 2347 l 2,14,15
 586 2363 586 2363 558.5 2397.5 c 128,-1,16
 531 2432 531 2432 517.5 2449.5 c 128,-1,17
 504 2467 504 2467 478.5 2492.5 c 128,-1,18
 453 2518 453 2518 445 2525.5 c 128,-1,19
 437 2533 437 2533 410 2545.5 c 128,-1,20
 383 2558 383 2558 371.5 2559.5 c 128,-1,21
 360 2561 360 2561 322.5 2564.5 c 128,-1,22
 285 2568 285 2568 261 2568 c 2,23,-1
 180 2568 l 1,24,-1
 180 2732 l 1,25,-1
 1221 2732 l 1,26,-1
 1221 2568 l 1,27,-1
 1110 2568 l 2,28,29
 1006 2568 1006 2568 972 2561.5 c 128,-1,30
 938 2555 938 2555 938 2529 c 128,-1,31
 938 2503 938 2503 961 2464 c 128,-1,32
 984 2425 984 2425 1085 2286 c 1,33,-1
 1618 1573 l 1,34,-1
 2167 2191 l 1,35,36
 2374.29875519 2426.6473029 2374.29875519 2426.6473029 2389.14937759 2458.82365145 c 128,-1,37
 2404 2491 2404 2491 2404 2515 c 0,38,39
 2404 2549 2404 2549 2361.5 2558.5 c 128,-1,40
 2319 2568 2319 2568 2212 2568 c 2,41,-1
 2097 2568 l 1,42,-1
 2101 2732 l 1,43,-1
 2978 2732 l 1,44,-1
 2978 2568 l 1,45,-1
 2904 2568 l 2,46,47
 2765.75 2568 2765.75 2568 2742.375 2551.5 c 128,-1,48
 2719 2535 2719 2535 2698 2521 c 128,-1,49
 2677 2507 2677 2507 2665.5 2494 c 128,-1,50
 2654 2481 2654 2481 2631 2457 c 128,-1,51
 2608 2433 2608 2433 2595 2418.5 c 128,-1,52
 2582 2404 2582 2404 2578.5 2400.5 c 128,-1,53
 2575 2397 2575 2397 2570 2391 c 128,-1,54
 2565 2385 2565 2385 2560 2380 c 2,55,-1
 1720 1454 l 1,56,-1
 2245 786 l 1,57,58
 2597.5090301 335.369899666 2597.5090301 335.369899666 2664.75451505 274.684949833 c 128,-1,59
 2732 214 2732 214 2754 200.5 c 128,-1,60
 2776 187 2776 187 2809 175 c 0,61,62
 2850.25 160 2850.25 160 2929 160 c 2,63,-1
 2998 160 l 1,64,-1
 3002 0 l 1,65,-1
 1946 0 l 1,66,-1
 1946 160 l 1,67,-1
 2044 160 l 2,68,69
 2152 160 2152 160 2200.5 169.5 c 128,-1,70
 2249 179 2249 179 2249 213 c 0,71,72
 2249 232 2249 232 2225 267.5 c 128,-1,73
 2201 303 2201 303 2081 459 c 1,74,-1
 1503 1200 l 1,75,-1
 766 348 l 1,76,77
 672 243 672 243 672 209 c 128,-1,78
 672 175 672 175 706 167.5 c 128,-1,79
 740 160 740 160 836 160 c 2,80,-1
 983 160 l 1,81,-1
 983 0 l 1,82,-1
 111 0 l 1,0,-1
EndSplineSet
Substitution2: "'c2sc' Capitals to Small Capitals in Latin lookup 13 subtable" X.c2
AlternateSubs2: "'aalt' Access All Alternates in Latin lookup 1 subtable" X.c2
AlternateSubs2: "'aalt' Access All Alternates lookup 0 subtable" X.c2
Position2: "'cpsp' Capital Spacing in Latin lookup 1 subtable" dx=16 dy=0 dh=33 dv=0
EndChar

StartChar: Y
Encoding: 89 89 60
Width: 2699
GlyphClass: 2
Flags: W
LayerCount: 2
Fore
SplineSet
152 2568 m 1,0,-1
 156 2732 l 1,1,-1
 1073 2732 l 1,2,-1
 1073 2568 l 1,3,-1
 991 2568 l 2,4,5
 871 2568 871 2568 824.5 2558.5 c 128,-1,6
 778 2549 778 2549 778 2515 c 0,7,8
 778 2495.83673469 778 2495.83673469 852 2372 c 1,9,-1
 1438 1450 l 1,10,-1
 2154 2466 l 1,11,12
 2179 2508 2179 2508 2179 2515 c 0,13,14
 2179 2549 2179 2549 2117 2558.5 c 128,-1,15
 2055 2568 2055 2568 1913 2568 c 2,16,-1
 1847 2568 l 1,17,-1
 1843 2732 l 1,18,-1
 2589 2732 l 1,19,-1
 2589 2568 l 1,20,-1
 2568 2568 l 2,21,22
 2459.15789474 2568 2459.15789474 2568 2435.57894737 2552 c 128,-1,23
 2412 2536 2412 2536 2389.5 2515 c 0,24,25
 2355.45132743 2483.22123894 2355.45132743 2483.22123894 2294 2396 c 2,26,-1
 1495 1241 l 1,27,-1
 1495 348 l 2,28,29
 1495 239.1 1495 239.1 1504.5 221.05 c 128,-1,30
 1514 203 1514 203 1527 190 c 128,-1,31
 1540 177 1540 177 1555.5 173.5 c 128,-1,32
 1571 170 1571 170 1599 165.5 c 0,33,34
 1633.22222222 160 1633.22222222 160 1737 160 c 2,35,-1
 1921 160 l 1,36,-1
 1917 0 l 1,37,-1
 766 0 l 1,38,-1
 770 160 l 1,39,-1
 934 160 l 2,40,41
 1084.57894737 160 1084.57894737 160 1111.28947368 177.5 c 128,-1,42
 1138 195 1138 195 1144 207 c 128,-1,43
 1150 219 1150 219 1155.5 239.5 c 0,44,45
 1163 267.454545455 1163 267.454545455 1163 340 c 2,46,-1
 1163 1274 l 1,47,-1
 492 2318 l 2,48,49
 393 2473 393 2473 361.5 2511.5 c 128,-1,50
 330 2550 330 2550 290 2559 c 128,-1,51
 250 2568 250 2568 152 2568 c 1,0,-1
EndSplineSet
Substitution2: "'c2sc' Capitals to Small Capitals in Latin lookup 13 subtable" Y.c2
AlternateSubs2: "'aalt' Access All Alternates in Latin lookup 1 subtable" Y.c2
AlternateSubs2: "'aalt' Access All Alternates lookup 0 subtable" Y.c2
Position2: "'cpsp' Capital Spacing in Latin lookup 1 subtable" dx=16 dy=0 dh=33 dv=0
EndChar

StartChar: Z
Encoding: 90 90 61
Width: 2719
GlyphClass: 2
Flags: W
LayerCount: 2
Fore
SplineSet
2609 717 m 1,0,-1
 2527 0 l 1,1,-1
 201 0 l 2,2,3
 111 0 111 0 111 82 c 0,4,5
 111 118.076923077 111 118.076923077 195 208.538461538 c 128,-1,6
 279 299 279 299 303 328 c 1,7,-1
 2142 2408 l 1,8,-1
 471 2408 l 2,9,10
 392 2408 392 2408 374 2372.5 c 128,-1,11
 356 2337 356 2337 346.5 2243 c 128,-1,12
 337 2149 337 2149 336 2138.5 c 128,-1,13
 335 2128 335 2128 327 2077.5 c 128,-1,14
 319 2027 319 2027 319 1999 c 1,15,-1
 156 2007 l 1,16,17
 207 2444 207 2444 217 2732 c 1,18,-1
 2449 2732 l 2,19,20
 2518 2732 2518 2732 2547 2724.5 c 128,-1,21
 2576 2717 2576 2717 2576 2695.5 c 128,-1,22
 2576 2674 2576 2674 2562.5 2647 c 128,-1,23
 2549 2620 2549 2620 2528.5 2591 c 128,-1,24
 2508 2562 2508 2562 2489 2538 c 128,-1,25
 2470 2514 2470 2514 2452 2493 c 128,-1,26
 2434 2472 2434 2472 2433 2470 c 2,27,-1
 569 340 l 1,28,-1
 2191 340 l 2,29,30
 2359.33333333 340 2359.33333333 340 2375.66666667 362.5 c 0,31,32
 2409.58894039 409.229662778 2409.58894039 409.229662778 2442 642 c 1,33,-1
 2454 721 l 1,34,-1
 2609 717 l 1,0,-1
EndSplineSet
Substitution2: "'c2sc' Capitals to Small Capitals in Latin lookup 13 subtable" Z.c2
AlternateSubs2: "'aalt' Access All Alternates in Latin lookup 1 subtable" Z.c2
AlternateSubs2: "'aalt' Access All Alternates lookup 0 subtable" Z.c2
Position2: "'cpsp' Capital Spacing in Latin lookup 1 subtable" dx=16 dy=0 dh=33 dv=0
EndChar

StartChar: bracketleft
Encoding: 91 91 62
Width: 1335
GlyphClass: 2
Flags: W
LayerCount: 2
Fore
SplineSet
360 -946 m 1,0,-1
 360 2892 l 1,1,-1
 1266 2892 l 1,2,-1
 1266 2769 l 1,3,-1
 614 2769 l 1,4,-1
 614 -827 l 1,5,-1
 1266 -827 l 1,6,-1
 1266 -946 l 1,7,-1
 360 -946 l 1,0,-1
EndSplineSet
Position2: "'case' Case-Sensitive Forms in Latin lookup 0 subtable" dx=0 dy=205 dh=0 dv=0
EndChar

StartChar: backslash
Encoding: 92 92 63
Width: 1810
GlyphClass: 2
Flags: W
LayerCount: 2
Fore
SplineSet
152 2892 m 1,0,-1
 344 2892 l 1,1,-1
 1741 -946 l 1,2,-1
 1548 -946 l 1,3,-1
 152 2892 l 1,0,-1
EndSplineSet
Substitution2: "'case' Case-Sensitive Forms in Latin lookup 15 subtable" backslash.uppercase
AlternateSubs2: "'aalt' Access All Alternates in Latin lookup 1 subtable" backslash.uppercase
AlternateSubs2: "'aalt' Access All Alternates lookup 0 subtable" backslash.uppercase
EndChar

StartChar: bracketright
Encoding: 93 93 64
Width: 1335
GlyphClass: 2
Flags: W
LayerCount: 2
Fore
SplineSet
70 -827 m 1,0,-1
 721 -827 l 1,1,-1
 721 2769 l 1,2,-1
 70 2769 l 1,3,-1
 70 2892 l 1,4,-1
 975 2892 l 1,5,-1
 975 -946 l 1,6,-1
 70 -946 l 1,7,-1
 70 -827 l 1,0,-1
EndSplineSet
Position2: "'case' Case-Sensitive Forms in Latin lookup 0 subtable" dx=0 dy=205 dh=0 dv=0
EndChar

StartChar: asciicircum
Encoding: 94 94 65
Width: 1662
GlyphClass: 2
Flags: W
LayerCount: 2
Fore
SplineSet
164 1356 m 1,0,-1
 807 2666 l 1,1,-1
 856 2666 l 1,2,-1
 1499 1356 l 1,3,-1
 1241 1356 l 1,4,-1
 831 2224 l 1,5,-1
 422 1356 l 1,6,-1
 164 1356 l 1,0,-1
EndSplineSet
EndChar

StartChar: underscore
Encoding: 95 95 66
Width: 925
GlyphClass: 2
Flags: W
LayerCount: 2
Fore
SplineSet
82 -242 m 1,0,-1
 844 -242 l 1,1,-1
 844 -418 l 1,2,-1
 82 -418 l 1,3,-1
 82 -242 l 1,0,-1
EndSplineSet
EndChar

StartChar: a
Encoding: 97 97 68
Width: 1556
GlyphClass: 2
Flags: W
LayerCount: 2
Fore
SplineSet
238 1016 m 0,0,1
 143 1016 143 1016 143 1163 c 0,2,3
 143 1257.76470588 143 1257.76470588 239 1382 c 0,4,5
 424.454545455 1622 424.454545455 1622 860 1622 c 0,6,7
 1108.11023622 1622 1108.11023622 1622 1191.5 1442.5 c 0,8,9
 1221 1379 1221 1379 1221 1294 c 2,10,-1
 1221 528 l 2,11,12
 1221 342.035087719 1221 342.035087719 1290.5 264 c 0,13,14
 1354.70680012 191.908154254 1354.70680012 191.908154254 1487 156 c 0,15,16
 1524 146 1524 146 1524 122 c 128,-1,17
 1524 98 1524 98 1472 66.5 c 0,18,19
 1252.22641509 -66.6320754717 1252.22641509 -66.6320754717 1241 -70 c 1,20,21
 1149.64646465 -5.51515151515 1149.64646465 -5.51515151515 1107.82323232 42.7424242424 c 0,22,23
 1056.25 102.25 1056.25 102.25 967 217 c 1,24,25
 885 106 885 106 751.5 30.5 c 128,-1,26
 618 -45 618 -45 518.5 -45 c 128,-1,27
 419 -45 419 -45 355 -27 c 128,-1,28
 291 -9 291 -9 235 27 c 0,29,30
 111 106.714285714 111 106.714285714 111 269.357142857 c 128,-1,31
 111 432 111 432 219 576 c 128,-1,32
 327 720 327 720 517.5 806.5 c 128,-1,33
 708 893 708 893 934 893 c 1,34,-1
 934 1139 l 2,35,36
 934 1315.36206897 934 1315.36206897 864 1374.5 c 0,37,38
 798.306122449 1430 798.306122449 1430 688.653061224 1430 c 128,-1,39
 579 1430 579 1430 515 1417 c 128,-1,40
 451 1404 451 1404 417.5 1385 c 0,41,42
 347.530326594 1345.31570762 347.530326594 1345.31570762 328 1303 c 1,43,44
 334 1276 334 1276 345 1236.5 c 0,45,46
 369 1150.31818182 369 1150.31818182 369 1114.15909091 c 128,-1,47
 369 1078 369 1078 320.5 1047 c 128,-1,48
 272 1016 272 1016 238 1016 c 0,0,1
397 373.5 m 0,49,50
 397 293 397 293 456.5 234.5 c 128,-1,51
 516 176 516 176 614 176 c 128,-1,52
 712 176 712 176 765.5 191 c 128,-1,53
 819 206 819 206 850 229 c 128,-1,54
 881 252 881 252 901 283.5 c 0,55,56
 934 335.475 934 335.475 934 401 c 2,57,-1
 934 782 l 1,58,59
 686.068965517 782 686.068965517 782 537 651 c 0,60,61
 397 527.96969697 397 527.96969697 397 373.5 c 0,49,50
EndSplineSet
Substitution2: "'smcp' Lowercase to Small Capitals in Latin lookup 12 subtable" a.sc
AlternateSubs2: "'aalt' Access All Alternates in Latin lookup 1 subtable" a.sc
AlternateSubs2: "'aalt' Access All Alternates lookup 0 subtable" a.sc
EndChar

StartChar: b
Encoding: 98 98 69
Width: 2068
GlyphClass: 2
Flags: W
LayerCount: 2
Fore
SplineSet
340 86 m 1,0,-1
 352 635 l 1,1,-1
 352 2642 l 2,2,3
 352 2765 352 2765 295 2765 c 0,4,5
 263 2765 263 2765 61 2720 c 1,6,-1
 49 2847 l 1,7,8
 187 2871 187 2871 639 2961 c 1,9,-1
 639 1376 l 1,10,11
 646 1381 646 1381 681.5 1410 c 128,-1,12
 717 1439 717 1439 748.5 1463.5 c 128,-1,13
 780 1488 780 1488 835.5 1521.5 c 128,-1,14
 891 1555 891 1555 945 1578 c 0,15,16
 1076.47826087 1634 1076.47826087 1634 1239.23913043 1634 c 128,-1,17
 1402 1634 1402 1634 1548.5 1570 c 128,-1,18
 1695 1506 1695 1506 1784.5 1397.5 c 0,19,20
 1966 1177.46927374 1966 1177.46927374 1966 868 c 0,21,22
 1966 432.515151515 1966 432.515151515 1655 154.5 c 0,23,24
 1440.77966102 -37 1440.77966102 -37 1122 -37 c 0,25,26
 929.680851064 -37 929.680851064 -37 814.840425532 5.5 c 0,27,28
 597.319148936 86 597.319148936 86 569.659574468 86 c 128,-1,29
 542 86 542 86 479 39 c 128,-1,30
 416 -8 416 -8 385 -8 c 0,31,32
 340 -8 340 -8 340 86 c 1,0,-1
1110 1413 m 0,33,34
 818.3125 1413 818.3125 1413 639 1262 c 1,35,-1
 639 401 l 2,36,37
 639 196.82781457 639 196.82781457 923.5 129 c 0,38,39
 999 111 999 111 1064.5 111 c 128,-1,40
 1130 111 1130 111 1181 117 c 128,-1,41
 1232 123 1232 123 1292.5 141 c 128,-1,42
 1353 159 1353 159 1405.5 187 c 128,-1,43
 1458 215 1458 215 1508 263 c 128,-1,44
 1558 311 1558 311 1593 372.5 c 0,45,46
 1671 509.557142857 1671 509.557142857 1671 681.278571429 c 128,-1,47
 1671 853 1671 853 1645 961.5 c 128,-1,48
 1619 1070 1619 1070 1579 1140 c 128,-1,49
 1539 1210 1539 1210 1483 1263 c 128,-1,50
 1427 1316 1427 1316 1375.5 1343.5 c 128,-1,51
 1324 1371 1324 1371 1267 1388 c 0,52,53
 1183.17647059 1413 1183.17647059 1413 1110 1413 c 0,33,34
EndSplineSet
Substitution2: "'smcp' Lowercase to Small Capitals in Latin lookup 12 subtable" b.sc
AlternateSubs2: "'aalt' Access All Alternates in Latin lookup 1 subtable" b.sc
AlternateSubs2: "'aalt' Access All Alternates lookup 0 subtable" b.sc
EndChar

StartChar: c
Encoding: 99 99 70
Width: 1650
GlyphClass: 2
Flags: W
LayerCount: 2
Fore
SplineSet
128 1008 m 128,-1,1
 158 1137 158 1137 221 1252 c 128,-1,2
 284 1367 284 1367 372 1453.5 c 0,3,4
 563.768786127 1642 563.768786127 1642 852 1642 c 0,5,6
 1222.73563218 1642 1222.73563218 1642 1433.5 1440.5 c 0,7,8
 1479 1397 1479 1397 1479 1369.5 c 128,-1,9
 1479 1342 1479 1342 1445 1317 c 128,-1,10
 1411 1292 1411 1292 1365.5 1278 c 0,11,12
 1271.25 1249 1271.25 1249 1232.125 1249 c 128,-1,13
 1193 1249 1193 1249 1150 1272.5 c 128,-1,14
 1107 1296 1107 1296 1064.5 1330 c 128,-1,15
 1022 1364 1022 1364 977.5 1398 c 0,16,17
 871.485294118 1479 871.485294118 1479 780.242647059 1479 c 128,-1,18
 689 1479 689 1479 618.5 1434 c 128,-1,19
 548 1389 548 1389 506 1321 c 128,-1,20
 464 1253 464 1253 436.5 1164.5 c 0,21,22
 389 1011.63636364 389 1011.63636364 389 855.818181818 c 128,-1,23
 389 700 389 700 427.5 585 c 128,-1,24
 466 470 466 470 527 398.5 c 128,-1,25
 588 327 588 327 669 279 c 0,26,27
 814.125 193 814.125 193 964.5625 193 c 128,-1,28
 1115 193 1115 193 1217.5 208.5 c 128,-1,29
 1320 224 1320 224 1369.5 242 c 128,-1,30
 1419 260 1419 260 1459 275.5 c 128,-1,31
 1499 291 1499 291 1516 291 c 0,32,33
 1548 291 1548 291 1548 256 c 128,-1,34
 1548 221 1548 221 1488.5 169.5 c 128,-1,35
 1429 118 1429 118 1337 68.5 c 0,36,37
 1111.18181818 -53 1111.18181818 -53 868 -53 c 0,38,39
 291.650306748 -53 291.650306748 -53 143.5 420.5 c 0,40,41
 98 565.921568627 98 565.921568627 98 722.460784314 c 128,-1,0
 98 879 98 879 128 1008 c 128,-1,1
EndSplineSet
Substitution2: "'smcp' Lowercase to Small Capitals in Latin lookup 12 subtable" c.sc
AlternateSubs2: "'aalt' Access All Alternates in Latin lookup 1 subtable" c.sc
AlternateSubs2: "'aalt' Access All Alternates lookup 0 subtable" c.sc
EndChar

StartChar: d
Encoding: 100 100 71
Width: 2097
GlyphClass: 2
Flags: W
LayerCount: 2
Fore
SplineSet
1438 -106 m 1,0,-1
 1442 193 l 2,1,2
 1442 246 1442 246 1438 258 c 1,3,4
 1184.85964912 -49 1184.85964912 -49 827 -49 c 0,5,6
 525.894230769 -49 525.894230769 -49 313.5 173 c 0,7,8
 98 398.246231156 98 398.246231156 98 758 c 0,9,10
 98 937 98 937 168.5 1099 c 128,-1,11
 239 1261 239 1261 352 1373.5 c 0,12,13
 597.586666667 1618 597.586666667 1618 893.793333333 1618 c 128,-1,14
 1190 1618 1190 1618 1430 1438 c 1,15,-1
 1430 2658 l 2,16,17
 1430 2773 1430 2773 1372 2773 c 0,18,19
 1337 2773 1337 2773 1102 2720 c 1,20,-1
 1094 2847 l 1,21,22
 1295.88987567 2883.8312611 1295.88987567 2883.8312611 1716 2994 c 1,23,-1
 1716 287 l 2,24,25
 1716 181 1716 181 1725 146 c 128,-1,26
 1734 111 1734 111 1760.5 111 c 128,-1,27
 1787 111 1787 111 1819.5 120.5 c 128,-1,28
 1852 130 1852 130 1912.5 149.5 c 128,-1,29
 1973 169 1973 169 2028 184 c 1,30,-1
 2028 74 l 1,31,32
 1945.78136201 51.3189964158 1945.78136201 51.3189964158 1759.390681 -6.84050179211 c 128,-1,33
 1573 -65 1573 -65 1438 -106 c 1,0,-1
436.5 1137.5 m 128,-1,35
 397 1027 397 1027 397 894 c 128,-1,36
 397 761 397 761 442 631.5 c 128,-1,37
 487 502 487 502 567.5 402.5 c 0,38,39
 744.27638191 184 744.27638191 184 1040 184 c 0,40,41
 1177.66666667 184 1177.66666667 184 1252.83333333 225 c 0,42,43
 1379.01098901 293.824175824 1379.01098901 293.824175824 1430 348 c 1,44,-1
 1430 1229 l 1,45,46
 1312.5984252 1390.42716535 1312.5984252 1390.42716535 1085 1462.5 c 0,47,48
 995 1491 995 1491 896 1491 c 128,-1,49
 797 1491 797 1491 704.5 1447 c 128,-1,50
 612 1403 612 1403 544 1325.5 c 128,-1,34
 476 1248 476 1248 436.5 1137.5 c 128,-1,35
EndSplineSet
Substitution2: "'smcp' Lowercase to Small Capitals in Latin lookup 12 subtable" d.sc
AlternateSubs2: "'aalt' Access All Alternates in Latin lookup 1 subtable" d.sc
AlternateSubs2: "'aalt' Access All Alternates lookup 0 subtable" d.sc
EndChar

StartChar: e
Encoding: 101 101 72
Width: 1691
GlyphClass: 2
Flags: W
LayerCount: 2
Fore
SplineSet
410 926 m 1,0,-1
 406 868 l 1,1,2
 406 411.072727273 406 411.072727273 772 268 c 0,3,4
 882 225 882 225 992 225 c 128,-1,5
 1102 225 1102 225 1185 245 c 128,-1,6
 1268 265 1268 265 1324.5 293.5 c 128,-1,7
 1381 322 1381 322 1426.5 350 c 0,8,9
 1537 418 1537 418 1556 418 c 0,10,11
 1593 418 1593 418 1593 381 c 128,-1,12
 1593 344 1593 344 1559 295 c 128,-1,13
 1525 246 1525 246 1457 186.5 c 128,-1,14
 1389 127 1389 127 1302 73.5 c 0,15,16
 1096.28971963 -53 1096.28971963 -53 848 -53 c 0,17,18
 511.396946565 -53 511.396946565 -53 310.5 164.5 c 0,19,20
 98 394.561983471 98 394.561983471 98 750 c 0,21,22
 98 1145.19587629 98 1145.19587629 308 1392 c 0,23,24
 513.912280702 1634 513.912280702 1634 823 1634 c 0,25,26
 1169 1634 1169 1634 1391 1356.5 c 0,27,28
 1503 1216.5 1503 1216.5 1503 1110 c 0,29,30
 1503 1081 1503 1081 1479.5 1065 c 128,-1,31
 1456 1049 1456 1049 1438 1049 c 1,32,-1
 410 926 l 1,0,-1
418 1069 m 1,33,-1
 1122 1159 l 1,34,35
 1095.90909091 1250.31818182 1095.90909091 1250.31818182 1037.95454545 1325.65909091 c 128,-1,36
 980 1401 980 1401 947.5 1429 c 0,37,38
 870.892857143 1495 870.892857143 1495 762.946428571 1495 c 128,-1,39
 655 1495 655 1495 553 1380.5 c 128,-1,40
 451 1266 451 1266 418 1069 c 1,33,-1
EndSplineSet
Substitution2: "'smcp' Lowercase to Small Capitals in Latin lookup 12 subtable" e.sc
AlternateSubs2: "'aalt' Access All Alternates in Latin lookup 1 subtable" e.sc
AlternateSubs2: "'aalt' Access All Alternates lookup 0 subtable" e.sc
EndChar

StartChar: f
Encoding: 102 102 73
Width: 1167
GlyphClass: 2
Flags: W
LayerCount: 2
Fore
SplineSet
70 1409 m 1,0,-1
 119 1606 l 1,1,-1
 369 1606 l 1,2,-1
 369 2048 l 2,3,4
 369 2242.60869565 369 2242.60869565 387 2319.30434783 c 128,-1,5
 405 2396 405 2396 423.5 2456.5 c 128,-1,6
 442 2517 442 2517 472.5 2570 c 128,-1,7
 503 2623 503 2623 543 2678 c 0,8,9
 622.869463869 2787.82051282 622.869463869 2787.82051282 766.434731935 2876.91025641 c 128,-1,10
 910 2966 910 2966 1077 2966 c 128,-1,11
 1244 2966 1244 2966 1334.5 2926 c 128,-1,12
 1425 2886 1425 2886 1425 2824.5 c 128,-1,13
 1425 2763 1425 2763 1347 2657.5 c 128,-1,14
 1269 2552 1269 2552 1212 2552 c 0,15,16
 1182.20833333 2552 1182.20833333 2552 1150.60416667 2613.5 c 128,-1,17
 1119 2675 1119 2675 1097 2711 c 0,18,19
 1043.83333333 2798 1043.83333333 2798 973.416666667 2798 c 128,-1,20
 903 2798 903 2798 854.5 2767.5 c 128,-1,21
 806 2737 806 2737 774.5 2690 c 128,-1,22
 743 2643 743 2643 719.5 2577 c 128,-1,23
 696 2511 696 2511 684 2451.5 c 128,-1,24
 672 2392 672 2392 665 2325 c 0,25,26
 655 2229.28571429 655 2229.28571429 655 2146 c 2,27,-1
 655 1606 l 1,28,-1
 1114 1606 l 1,29,-1
 1069 1409 l 1,30,-1
 655 1409 l 1,31,-1
 655 254 l 2,32,33
 655 185.727272727 655 185.727272727 665.5 172.363636364 c 128,-1,34
 676 159 676 159 690.5 151 c 128,-1,35
 705 143 705 143 721.5 140.5 c 128,-1,36
 738 138 738 138 767.5 135 c 0,37,38
 806.833333333 131 806.833333333 131 913 131 c 2,39,-1
 971 131 l 1,40,-1
 967 0 l 1,41,-1
 115 0 l 1,42,-1
 111 131 l 1,43,-1
 197 131 l 2,44,45
 308 131 308 131 338.5 150 c 128,-1,46
 369 169 369 169 369 242 c 2,47,-1
 369 1409 l 1,48,-1
 70 1409 l 1,0,-1
EndSplineSet
Substitution2: "'smcp' Lowercase to Small Capitals in Latin lookup 12 subtable" f.sc
AlternateSubs2: "'aalt' Access All Alternates in Latin lookup 1 subtable" f.sc
AlternateSubs2: "'aalt' Access All Alternates lookup 0 subtable" f.sc
EndChar

StartChar: g
Encoding: 103 103 74
Width: 1826
GlyphClass: 2
Flags: W
LayerCount: 2
Fore
SplineSet
713 172 m 1,0,-1
 991 176 l 1,1,2
 1737 176 1737 176 1737 -283 c 0,3,4
 1737 -523.908163265 1737 -523.908163265 1538 -729 c 0,5,6
 1200.33663366 -1077 1200.33663366 -1077 635 -1077 c 0,7,8
 271.0625 -1077 271.0625 -1077 72 -882 c 0,9,10
 -33 -779.142857143 -33 -779.142857143 -33 -627 c 0,11,12
 -33 -404.245901639 -33 -404.245901639 191 -239 c 0,13,14
 273.32038835 -178.27184466 273.32038835 -178.27184466 373.660194175 -138.13592233 c 0,15,16
 472.181818182 -98.7272727273 472.181818182 -98.7272727273 537 -82 c 1,17,18
 247.367346939 -45.7959183673 247.367346939 -45.7959183673 161.5 93.5 c 0,19,20
 139 130 139 130 139 172.5 c 128,-1,21
 139 215 139 215 160 255 c 128,-1,22
 181 295 181 295 214.5 323 c 128,-1,23
 248 351 248 351 289 375.5 c 128,-1,24
 330 400 330 400 370.5 415.5 c 0,25,26
 452.817073171 447.004065041 452.817073171 447.004065041 520 463 c 1,27,28
 406.219081272 491.445229682 406.219081272 491.445229682 287.5 615.5 c 0,29,30
 135 774.853932584 135 774.853932584 135 1020 c 0,31,32
 135 1272.88764045 135 1272.88764045 332 1455.5 c 128,-1,33
 528.878787879 1638 528.878787879 1638 782 1638 c 0,34,35
 956.714285714 1638 956.714285714 1638 1033.85714286 1596 c 128,-1,36
 1111 1554 1111 1554 1152 1529.5 c 0,37,38
 1251.57142857 1470 1251.57142857 1470 1339.78571429 1470 c 128,-1,39
 1428 1470 1428 1470 1464.5 1476.5 c 128,-1,40
 1501 1483 1501 1483 1521.5 1492 c 128,-1,41
 1542 1501 1542 1501 1558.5 1517.5 c 128,-1,42
 1575 1534 1575 1534 1581.5 1546 c 128,-1,43
 1588 1558 1588 1558 1598 1579 c 128,-1,44
 1608 1600 1608 1600 1614 1610 c 1,45,-1
 1700 1610 l 1,46,-1
 1700 1507 l 2,47,48
 1700 1366.4 1700 1366.4 1688.5 1345.7 c 128,-1,49
 1677 1325 1677 1325 1666.5 1312.5 c 128,-1,50
 1656 1300 1656 1300 1636.5 1295.5 c 0,51,52
 1595.33333333 1286 1595.33333333 1286 1536 1286 c 2,53,-1
 1470 1286 l 2,54,55
 1360 1286 1360 1286 1360 1275.5 c 128,-1,56
 1360 1265 1360 1265 1374.5 1242.5 c 128,-1,57
 1389 1220 1389 1220 1407 1193 c 0,58,59
 1454 1122.5 1454 1122.5 1454 1000.75 c 128,-1,60
 1454 879 1454 879 1404.5 776 c 128,-1,61
 1355 673 1355 673 1269 594.5 c 0,62,63
 1080.01910828 422 1080.01910828 422 782 422 c 0,64,65
 620 422 620 422 525 382 c 128,-1,66
 430 342 430 342 430 274 c 0,67,68
 430 212.225806452 430 212.225806452 486.5 194 c 0,69,70
 502 189 502 189 513.5 185 c 128,-1,71
 525 181 525 181 546 178.5 c 128,-1,72
 567 176 567 176 580.5 174.5 c 0,73,74
 603 172 603 172 643.875 172 c 2,75,-1
 713 172 l 1,0,-1
283 -603.5 m 0,76,77
 283 -714 283 -714 401.5 -801.5 c 128,-1,78
 520 -889 520 -889 758 -889 c 0,79,80
 1088.04347826 -889 1088.04347826 -889 1299.5 -711.5 c 0,81,82
 1450 -585.167883212 1450 -585.167883212 1450 -393 c 0,83,84
 1450 -90 1450 -90 938 -90 c 0,85,86
 647.14893617 -90 647.14893617 -90 460.5 -249.5 c 0,87,88
 283 -401.181818182 283 -401.181818182 283 -603.5 c 0,76,77
561.5 1371.5 m 128,-1,90
 475 1256 475 1256 475 1092.5 c 128,-1,91
 475 929 475 929 505 831.5 c 128,-1,92
 535 734 535 734 584 673.5 c 0,93,94
 684.834710744 549 684.834710744 549 815 549 c 0,95,96
 930.485436893 549 930.485436893 549 1015.5 654.5 c 0,97,98
 1106 766.807228916 1106 766.807228916 1106 933.403614458 c 128,-1,99
 1106 1100 1106 1100 1077 1199 c 128,-1,100
 1048 1298 1048 1298 999.5 1359.5 c 0,101,102
 898.951219512 1487 898.951219512 1487 773.475609756 1487 c 128,-1,89
 648 1487 648 1487 561.5 1371.5 c 128,-1,90
EndSplineSet
Substitution2: "'smcp' Lowercase to Small Capitals in Latin lookup 12 subtable" g.sc
AlternateSubs2: "'aalt' Access All Alternates in Latin lookup 1 subtable" g.sc
AlternateSubs2: "'aalt' Access All Alternates lookup 0 subtable" g.sc
EndChar

StartChar: h
Encoding: 104 104 75
Width: 1900
GlyphClass: 2
Flags: W
LayerCount: 2
Fore
SplineSet
1024 1389 m 0,0,1
 830.4 1389 830.4 1389 594 1192 c 1,2,-1
 594 225 l 2,3,4
 594 163 594 163 633 147 c 128,-1,5
 672 131 672 131 803 131 c 2,6,-1
 877 131 l 1,7,-1
 872 0 l 1,8,-1
 78 0 l 1,9,-1
 74 131 l 1,10,-1
 119 131 l 2,11,12
 257.8 131 257.8 131 275.4 147 c 0,13,14
 307 175.727272727 307 175.727272727 307 225 c 2,15,-1
 307 2658 l 2,16,17
 307 2729 307 2729 292 2755 c 128,-1,18
 277 2781 277 2781 249 2781 c 128,-1,19
 221 2781 221 2781 74 2757 c 1,20,-1
 74 2900 l 1,21,22
 186 2911 186 2911 594 2974 c 1,23,-1
 594 1315 l 1,24,25
 762.64516129 1455.53763441 762.64516129 1455.53763441 815.822580645 1486.7688172 c 128,-1,26
 869 1518 869 1518 917.5 1544 c 128,-1,27
 966 1570 966 1570 1007 1583.5 c 0,28,29
 1111.77777778 1618 1111.77777778 1618 1185.38888889 1618 c 128,-1,30
 1259 1618 1259 1618 1311 1605 c 128,-1,31
 1363 1592 1363 1592 1401 1572.5 c 128,-1,32
 1439 1553 1439 1553 1469 1518 c 128,-1,33
 1499 1483 1499 1483 1518.5 1450.5 c 128,-1,34
 1538 1418 1538 1418 1552 1366 c 128,-1,35
 1566 1314 1566 1314 1573 1274 c 128,-1,36
 1580 1234 1580 1234 1584 1171 c 0,37,38
 1589 1092.25 1589 1092.25 1589 958 c 2,39,-1
 1589 250 l 2,40,41
 1589 164.352941176 1589 164.352941176 1605.5 153.676470588 c 128,-1,42
 1622 143 1622 143 1645 137.5 c 0,43,44
 1672.18181818 131 1672.18181818 131 1765 131 c 2,45,-1
 1831 131 l 1,46,-1
 1831 0 l 1,47,-1
 1044 0 l 1,48,-1
 1040 131 l 1,49,-1
 1106 131 l 2,50,51
 1229 131 1229 131 1266 150.5 c 128,-1,52
 1303 170 1303 170 1303 246 c 2,53,-1
 1303 1077 l 2,54,55
 1303 1272 1303 1272 1175.5 1348.5 c 0,56,57
 1108 1389 1108 1389 1024 1389 c 0,0,1
EndSplineSet
Substitution2: "'smcp' Lowercase to Small Capitals in Latin lookup 12 subtable" h.sc
AlternateSubs2: "'aalt' Access All Alternates in Latin lookup 1 subtable" h.sc
AlternateSubs2: "'aalt' Access All Alternates lookup 0 subtable" h.sc
EndChar

StartChar: i
Encoding: 105 105 76
Width: 1085
GlyphClass: 2
Flags: W
LayerCount: 2
Fore
SplineSet
111 1540 m 1,0,1
 415 1589 415 1589 688 1663 c 1,2,-1
 688 242 l 2,3,4
 688 163.642578125 688 163.642578125 724 149.5 c 0,5,6
 771.090820312 131 771.090820312 131 942 131 c 2,7,-1
 1016 131 l 1,8,-1
 1016 0 l 1,9,-1
 127 0 l 1,10,-1
 127 131 l 1,11,-1
 164 131 l 2,12,13
 350.818359375 131 350.818359375 131 369.909179688 148.5 c 0,14,15
 401 177 401 177 401 225 c 2,16,-1
 401 1319 l 2,17,18
 401 1397 401 1397 388 1423.5 c 128,-1,19
 375 1450 375 1450 329 1450 c 128,-1,20
 283 1450 283 1450 115 1417 c 1,21,-1
 111 1540 l 1,0,1
478.5 2319.5 m 128,-1,23
 418 2391 418 2391 418 2436 c 128,-1,24
 418 2481 418 2481 483 2543 c 128,-1,25
 548 2605 548 2605 587.5 2605 c 128,-1,26
 627 2605 627 2605 696.5 2540 c 128,-1,27
 766 2475 766 2475 766 2431.5 c 128,-1,28
 766 2388 766 2388 695.5 2318 c 128,-1,29
 625 2248 625 2248 582 2248 c 128,-1,22
 539 2248 539 2248 478.5 2319.5 c 128,-1,23
EndSplineSet
Substitution2: "'smcp' Lowercase to Small Capitals in Latin lookup 12 subtable" i.sc
Substitution2: "'locl' Localized Forms in Latin lookup 4 subtable" i.TRK
AlternateSubs2: "'aalt' Access All Alternates in Latin lookup 1 subtable" i.sc i.TRK
AlternateSubs2: "'aalt' Access All Alternates lookup 0 subtable" i.sc
EndChar

StartChar: j
Encoding: 106 106 77
Width: 1019
GlyphClass: 2
Flags: W
LayerCount: 2
Fore
SplineSet
312 1434 m 128,-1,1
 295 1442 295 1442 279.713867188 1442 c 128,-1,2
 264.428710938 1442 264.428710938 1442 90 1405 c 1,3,-1
 70 1528 l 1,4,5
 192.62890625 1547.16113281 192.62890625 1547.16113281 283.814453125 1569.08007812 c 0,6,7
 546.065429688 1632.12109375 546.065429688 1632.12109375 647 1655 c 1,8,-1
 647 -197 l 2,9,10
 647 -528.015625 647 -528.015625 599.5 -647.5078125 c 128,-1,11
 552 -767 552 -767 513 -817.5 c 128,-1,12
 474 -868 474 -868 442 -892 c 128,-1,13
 410 -916 410 -916 395.5 -926.5 c 128,-1,14
 381 -937 381 -937 338 -964.5 c 128,-1,15
 295 -992 295 -992 253 -1013 c 0,16,17
 141 -1069 141 -1069 61.5 -1069 c 128,-1,18
 -18 -1069 -18 -1069 -94 -1042 c 128,-1,19
 -170 -1015 -170 -1015 -220 -977 c 128,-1,20
 -270 -939 -270 -939 -270 -892 c 128,-1,21
 -270 -845 -270 -845 -193.5 -777 c 128,-1,22
 -117 -709 -117 -709 -73 -709 c 128,-1,23
 -29 -709 -29 -709 2 -736.5 c 128,-1,24
 33 -764 33 -764 59.5 -797 c 0,25,26
 130.166992188 -885 130.166992188 -885 172 -885 c 0,27,28
 360 -885 360 -885 360 -328 c 2,29,-1
 360 1274 l 2,30,31
 360 1386.84179688 360 1386.84179688 344.5 1406.42089844 c 128,-1,0
 329 1426 329 1426 312 1434 c 128,-1,1
371.5 2319.5 m 128,-1,33
 311 2391 311 2391 311 2436 c 128,-1,34
 311 2481 311 2481 376 2543 c 128,-1,35
 441 2605 441 2605 480.5 2605 c 128,-1,36
 520 2605 520 2605 589.5 2540 c 128,-1,37
 659 2475 659 2475 659 2431.5 c 128,-1,38
 659 2388 659 2388 588.5 2318 c 128,-1,39
 518 2248 518 2248 475 2248 c 128,-1,32
 432 2248 432 2248 371.5 2319.5 c 128,-1,33
EndSplineSet
Substitution2: "'smcp' Lowercase to Small Capitals in Latin lookup 12 subtable" j.sc
Substitution2: "'locl' Localized Forms in Latin lookup 4 subtable" j.TRK
AlternateSubs2: "'aalt' Access All Alternates in Latin lookup 1 subtable" j.sc j.TRK
AlternateSubs2: "'aalt' Access All Alternates lookup 0 subtable" j.sc
EndChar

StartChar: k
Encoding: 107 107 78
Width: 1933
GlyphClass: 2
Flags: W
LayerCount: 2
Fore
SplineSet
70 2863 m 1,0,1
 479 2944 479 2944 602 2970 c 1,2,-1
 602 819 l 1,3,-1
 1352 1430 l 2,4,5
 1380 1452 1380 1452 1380 1466 c 0,6,7
 1380 1495 1380 1495 1294 1495 c 2,8,-1
 1171 1495 l 1,9,-1
 1171 1606 l 1,10,-1
 1831 1606 l 1,11,-1
 1827 1495 l 1,12,-1
 1765 1495 l 2,13,14
 1701 1495 1701 1495 1656.5 1479 c 128,-1,15
 1612 1463 1612 1463 1540 1405 c 2,16,-1
 958 942 l 1,17,-1
 1569 229 l 2,18,19
 1581 215 1581 215 1600 191.5 c 128,-1,20
 1619 168 1619 168 1625 163 c 128,-1,21
 1631 158 1631 158 1643 147.5 c 128,-1,22
 1655 137 1655 137 1668.5 136 c 128,-1,23
 1682 135 1682 135 1701 133 c 128,-1,24
 1720 131 1720 131 1753 131 c 2,25,-1
 1864 131 l 1,26,-1
 1860 0 l 1,27,-1
 1376 0 l 1,28,-1
 737 786 l 1,29,-1
 594 676 l 1,30,-1
 594 233 l 2,31,32
 594 162.12 594 162.12 629.5 146.5 c 0,33,34
 664.727272727 131 664.727272727 131 807 131 c 2,35,-1
 918 131 l 1,36,-1
 922 0 l 1,37,-1
 82 0 l 1,38,-1
 82 131 l 1,39,40
 135.75 131 135.75 131 173.875 131 c 128,-1,41
 212 131 212 131 235.5 133 c 128,-1,42
 259 135 259 135 269.5 136.5 c 128,-1,43
 280 138 280 138 291 144 c 128,-1,44
 302 150 302 150 305 154 c 128,-1,45
 308 158 308 158 311.5 171 c 128,-1,46
 315 184 315 184 315 192.5 c 2,47,-1
 315 2576 l 2,48,49
 315 2690 315 2690 304.5 2729.5 c 128,-1,50
 294 2769 294 2769 258 2769 c 128,-1,51
 222 2769 222 2769 78 2732 c 1,52,-1
 70 2863 l 1,0,1
EndSplineSet
Substitution2: "'smcp' Lowercase to Small Capitals in Latin lookup 12 subtable" k.sc
AlternateSubs2: "'aalt' Access All Alternates in Latin lookup 1 subtable" k.sc
AlternateSubs2: "'aalt' Access All Alternates lookup 0 subtable" k.sc
EndChar

StartChar: l
Encoding: 108 108 79
Width: 1073
GlyphClass: 2
Flags: W
LayerCount: 2
Fore
SplineSet
70 2879 m 1,0,1
 419 2927 419 2927 672 2974 c 1,2,-1
 672 242 l 2,3,4
 672 168 672 168 719 149.5 c 128,-1,5
 766 131 766 131 934 131 c 2,6,-1
 1004 131 l 1,7,-1
 1004 0 l 1,8,-1
 111 0 l 1,9,-1
 111 131 l 1,10,-1
 201 131 l 2,11,12
 310 131 310 131 347.5 150.5 c 128,-1,13
 385 170 385 170 385 242 c 2,14,-1
 385 2576 l 2,15,16
 385 2707 385 2707 372.5 2744 c 128,-1,17
 360 2781 360 2781 319 2781 c 0,18,19
 278 2781 278 2781 78 2740 c 1,20,-1
 70 2879 l 1,0,1
EndSplineSet
Substitution2: "'smcp' Lowercase to Small Capitals in Latin lookup 12 subtable" l.sc
Substitution2: "'locl' Localized Forms in Latin lookup 2 subtable" l.CAT
AlternateSubs2: "'aalt' Access All Alternates in Latin lookup 1 subtable" l.sc l.CAT
AlternateSubs2: "'aalt' Access All Alternates lookup 0 subtable" l.sc
EndChar

StartChar: m
Encoding: 109 109 80
Width: 2830
GlyphClass: 2
Flags: W
LayerCount: 2
Fore
SplineSet
291 1450 m 0,0,1
 285.25 1450 285.25 1450 70 1409 c 1,2,-1
 70 1536 l 1,3,4
 216.28 1556.62923077 216.28 1556.62923077 539 1628 c 2,5,-1
 643 1651 l 1,6,7
 635 1512 635 1512 635 1352 c 1,8,9
 648 1359 648 1359 693 1393 c 128,-1,10
 738 1427 738 1427 790.5 1462.5 c 128,-1,11
 843 1498 843 1498 909.5 1534.5 c 0,12,13
 1061.63013699 1618 1061.63013699 1618 1171.31506849 1618 c 128,-1,14
 1281 1618 1281 1618 1338.5 1592.5 c 128,-1,15
 1396 1567 1396 1567 1428.5 1535.5 c 128,-1,16
 1461 1504 1461 1504 1486.5 1460 c 0,17,18
 1519.71266541 1402.69187146 1519.71266541 1402.69187146 1532 1356 c 1,19,20
 1783.33375 1543.5625 1783.33375 1543.5625 1904.666875 1580.78125 c 128,-1,21
 2026 1618 2026 1618 2102 1618 c 128,-1,22
 2178 1618 2178 1618 2239 1599 c 128,-1,23
 2300 1580 2300 1580 2340.5 1550.5 c 128,-1,24
 2381 1521 2381 1521 2410.5 1475 c 128,-1,25
 2440 1429 2440 1429 2455.5 1385 c 128,-1,26
 2471 1341 2471 1341 2480.5 1282 c 0,27,28
 2494 1198.15789474 2494 1198.15789474 2494 1077 c 2,29,-1
 2494 233 l 2,30,31
 2494 160.434782609 2494 160.434782609 2529.5 145 c 0,32,33
 2561.7 131 2561.7 131 2720 131 c 2,34,-1
 2761 131 l 1,35,-1
 2761 0 l 1,36,-1
 1966 0 l 1,37,-1
 1966 131 l 1,38,39
 2133 131 2133 131 2170.5 144.5 c 128,-1,40
 2208 158 2208 158 2208 229 c 2,41,-1
 2208 1077 l 2,42,43
 2208 1336.4137931 2208 1336.4137931 2068.5 1376.5 c 0,44,45
 2025 1389 2025 1389 1956.5 1389 c 128,-1,46
 1888 1389 1888 1389 1820.5 1375 c 128,-1,47
 1753 1361 1753 1361 1706.5 1341 c 0,48,49
 1613.97938144 1301.20618557 1613.97938144 1301.20618557 1552 1253 c 1,50,51
 1569 1126 1569 1126 1569 958 c 2,52,-1
 1569 201 l 2,53,54
 1569 153 1569 153 1590 145 c 128,-1,55
 1611 137 1611 137 1638 134.5 c 0,56,57
 1675.8 131 1675.8 131 1774 131 c 2,58,-1
 1810 131 l 1,59,-1
 1810 0 l 1,60,-1
 1032 0 l 1,61,-1
 1028 131 l 1,62,-1
 1077 131 l 2,63,64
 1204 131 1204 131 1243 142 c 128,-1,65
 1282 153 1282 153 1282 197 c 2,66,-1
 1282 1077 l 2,67,68
 1282 1234 1282 1234 1220.5 1311.5 c 128,-1,69
 1159 1389 1159 1389 1002.53846154 1389 c 128,-1,70
 846.076923077 1389 846.076923077 1389 643 1257 c 1,71,-1
 643 221 l 2,72,73
 643 155.181818182 643 155.181818182 662.5 148.090909091 c 128,-1,74
 682 141 682 141 709.5 136.5 c 0,75,76
 743.111111111 131 743.111111111 131 860 131 c 2,77,-1
 881 131 l 1,78,-1
 881 0 l 1,79,-1
 82 0 l 1,80,-1
 78 131 l 1,81,-1
 193 131 l 2,82,83
 295 131 295 131 325.5 146.5 c 128,-1,84
 356 162 356 162 356 221 c 2,85,-1
 356 1240 l 2,86,87
 356 1374 356 1374 346.5 1412 c 128,-1,88
 337 1450 337 1450 291 1450 c 0,0,1
EndSplineSet
Substitution2: "'smcp' Lowercase to Small Capitals in Latin lookup 12 subtable" m.sc
AlternateSubs2: "'aalt' Access All Alternates in Latin lookup 1 subtable" m.sc
AlternateSubs2: "'aalt' Access All Alternates lookup 0 subtable" m.sc
EndChar

StartChar: n
Encoding: 110 110 81
Width: 1896
GlyphClass: 2
Flags: W
LayerCount: 2
Fore
SplineSet
1227.5 1318.5 m 128,-1,1
 1165 1389 1165 1389 1005.5 1389 c 128,-1,2
 846 1389 846 1389 582 1257 c 1,3,-1
 582 227.5 l 2,4,5
 582 177.222222222 582 177.222222222 604 160.111111111 c 128,-1,6
 626 143 626 143 641 141 c 128,-1,7
 656 139 656 139 685 135.5 c 0,8,9
 722.285714286 131 722.285714286 131 827 131 c 2,10,-1
 881 131 l 1,11,-1
 872 0 l 1,12,-1
 74 0 l 1,13,-1
 70 131 l 1,14,15
 121 131 121 131 158 131 c 128,-1,16
 195 131 195 131 217.5 134.5 c 128,-1,17
 240 138 240 138 250.5 140 c 128,-1,18
 261 142 261 142 271.5 152 c 128,-1,19
 282 162 282 162 285.5 168 c 128,-1,20
 289 174 289 174 292 193.5 c 128,-1,21
 295 213 295 213 295 226 c 2,22,-1
 295 1245 l 2,23,24
 295 1376 295 1376 284.5 1413 c 128,-1,25
 274 1450 274 1450 233 1450 c 0,26,27
 222.375 1450 222.375 1450 78 1417 c 1,28,-1
 78 1544 l 1,29,-1
 582 1647 l 1,30,31
 569 1488 569 1488 569 1356 c 1,32,33
 583 1362 583 1362 625.5 1393.5 c 128,-1,34
 668 1425 668 1425 722.5 1461 c 128,-1,35
 777 1497 777 1497 846 1533.5 c 0,36,37
 1005.73972603 1618 1005.73972603 1618 1136.86986301 1618 c 128,-1,38
 1268 1618 1268 1618 1330.5 1597 c 128,-1,39
 1393 1576 1393 1576 1433.5 1545.5 c 128,-1,40
 1474 1515 1474 1515 1502.5 1458.5 c 128,-1,41
 1531 1402 1531 1402 1545.5 1355.5 c 128,-1,42
 1560 1309 1560 1309 1567.5 1229 c 0,43,44
 1577 1127.66666667 1577 1127.66666667 1577 958 c 2,45,-1
 1577 254 l 2,46,47
 1577 167 1577 167 1622.5 149 c 128,-1,48
 1668 131 1668 131 1827 131 c 1,49,-1
 1823 0 l 1,50,-1
 1061 0 l 1,51,-1
 1057 131 l 1,52,-1
 1151 131 l 2,53,54
 1258.42857143 131 1258.42857143 131 1270.21428571 153 c 0,55,56
 1290 189.933333333 1290 189.933333333 1290 254 c 2,57,-1
 1290 1077 l 2,58,0
 1290 1248 1290 1248 1227.5 1318.5 c 128,-1,1
EndSplineSet
Substitution2: "'smcp' Lowercase to Small Capitals in Latin lookup 12 subtable" n.sc
AlternateSubs2: "'aalt' Access All Alternates in Latin lookup 1 subtable" n.sc
AlternateSubs2: "'aalt' Access All Alternates lookup 0 subtable" n.sc
EndChar

StartChar: o
Encoding: 111 111 82
Width: 1875
GlyphClass: 2
Flags: W
LayerCount: 2
Fore
SplineSet
102 801 m 0,0,1
 102 929 102 929 132 1050 c 128,-1,2
 162 1171 162 1171 226.5 1279.5 c 128,-1,3
 291 1388 291 1388 384.5 1468 c 0,4,5
 587.8625 1642 587.8625 1642 913 1642 c 0,6,7
 1315.97222222 1642 1315.97222222 1642 1540.5 1406 c 0,8,9
 1774 1160.56934307 1774 1160.56934307 1774 754 c 0,10,11
 1774 405.105990783 1774 405.105990783 1545.5 174.5 c 0,12,13
 1312.15068493 -61 1312.15068493 -61 922 -61 c 0,14,15
 460.162162162 -61 460.162162162 -61 232 317 c 0,16,17
 102 532.373134328 102 532.373134328 102 801 c 0,0,1
430 913.5 m 0,18,19
 430 784 430 784 454 669.5 c 128,-1,20
 478 555 478 555 525.5 452.5 c 128,-1,21
 573 350 573 350 637.5 270.5 c 128,-1,22
 702 191 702 191 789.5 144.5 c 128,-1,23
 877 98 877 98 975 98 c 128,-1,24
 1073 98 1073 98 1151 135 c 128,-1,25
 1229 172 1229 172 1280.5 235 c 128,-1,26
 1332 298 1332 298 1366.5 384.5 c 0,27,28
 1430 543.710144928 1430 543.710144928 1430 744.855072464 c 128,-1,29
 1430 946 1430 946 1385.5 1089.5 c 128,-1,30
 1341 1233 1341 1233 1264 1321.5 c 0,31,32
 1106.08474576 1503 1106.08474576 1503 877 1503 c 0,33,34
 692.878378378 1503 692.878378378 1503 564.5 1351 c 0,35,36
 430 1191.752 430 1191.752 430 913.5 c 0,18,19
EndSplineSet
Substitution2: "'smcp' Lowercase to Small Capitals in Latin lookup 12 subtable" o.sc
AlternateSubs2: "'aalt' Access All Alternates in Latin lookup 1 subtable" o.sc
AlternateSubs2: "'aalt' Access All Alternates lookup 0 subtable" o.sc
EndChar

StartChar: p
Encoding: 112 112 83
Width: 2011
GlyphClass: 2
Flags: W
LayerCount: 2
Fore
SplineSet
270 1421 m 1,0,-1
 86 1380 l 1,1,-1
 82 1511 l 1,2,3
 189.652439024 1530.57317073 189.652439024 1530.57317073 389.326219512 1584.28658537 c 128,-1,4
 589 1638 589 1638 623 1647 c 1,5,-1
 623 1311 l 1,6,7
 814.28125 1502.28125 814.28125 1502.28125 1049.5 1581.5 c 0,8,9
 1146 1614 1146 1614 1233 1614 c 0,10,11
 1423 1614 1423 1614 1580 1505.5 c 128,-1,12
 1737 1397 1737 1397 1825 1215.5 c 128,-1,13
 1913 1034 1913 1034 1913 854 c 128,-1,14
 1913 674 1913 674 1877 540.5 c 128,-1,15
 1841 407 1841 407 1772.5 300 c 128,-1,16
 1704 193 1704 193 1609.5 114.5 c 0,17,18
 1412.67515924 -49 1412.67515924 -49 1130 -49 c 0,19,20
 875 -49 875 -49 686 2 c 1,21,-1
 623 20 l 1,22,-1
 623 -827 l 2,23,24
 623 -897 623 -897 682 -913.5 c 128,-1,25
 741 -930 741 -930 946 -930 c 2,26,-1
 1008 -930 l 1,27,-1
 1004 -1061 l 1,28,-1
 61 -1061 l 1,29,-1
 57 -930 l 1,30,31
 245.909090909 -930 245.909090909 -930 276.454545455 -919.5 c 128,-1,32
 307 -909 307 -909 319 -896.5 c 0,33,34
 336 -878.791666667 336 -878.791666667 336 -831 c 2,35,-1
 336 1307 l 2,36,37
 336 1421 336 1421 270 1421 c 1,0,-1
623 225 m 1,38,39
 734.247311828 141.564516129 734.247311828 141.564516129 886.123655914 113.782258065 c 128,-1,40
 1038 86 1038 86 1136 86 c 128,-1,41
 1234 86 1234 86 1325.5 129 c 128,-1,42
 1417 172 1417 172 1471 236.5 c 128,-1,43
 1525 301 1525 301 1560.5 385.5 c 0,44,45
 1622 531.887323944 1622 531.887323944 1622 681.443661972 c 128,-1,46
 1622 831 1622 831 1577 957 c 128,-1,47
 1532 1083 1532 1083 1455.5 1174 c 0,48,49
 1289.04945055 1372 1289.04945055 1372 1049 1372 c 0,50,51
 845.447368421 1372 845.447368421 1372 646.5 1204 c 0,52,53
 624 1185 624 1185 623 1184 c 1,54,-1
 623 225 l 1,38,39
EndSplineSet
Substitution2: "'smcp' Lowercase to Small Capitals in Latin lookup 12 subtable" p.sc
AlternateSubs2: "'aalt' Access All Alternates in Latin lookup 1 subtable" p.sc
AlternateSubs2: "'aalt' Access All Alternates lookup 0 subtable" p.sc
EndChar

StartChar: q
Encoding: 113 113 84
Width: 1970
GlyphClass: 2
Flags: W
LayerCount: 2
Fore
SplineSet
127.5 520 m 128,-1,1
 98 634 98 634 98 774.5 c 128,-1,2
 98 915 98 915 150 1057.5 c 128,-1,3
 202 1200 202 1200 291 1303.5 c 128,-1,4
 380 1407 380 1407 496 1483 c 0,5,6
 726.473684211 1634 726.473684211 1634 1004 1634 c 0,7,8
 1197.10909091 1634 1197.10909091 1634 1369.5 1560.5 c 0,9,10
 1434 1533 1434 1533 1487 1510 c 128,-1,11
 1540 1487 1540 1487 1558 1487 c 128,-1,12
 1576 1487 1576 1487 1594.5 1501 c 128,-1,13
 1613 1515 1613 1515 1622.5 1534.5 c 0,14,15
 1643.88546256 1578.39647577 1643.88546256 1578.39647577 1647 1622 c 1,16,-1
 1729 1622 l 1,17,18
 1727 1579 1727 1579 1715 1389.5 c 0,19,20
 1692 1026.29166667 1692 1026.29166667 1692 541 c 2,21,-1
 1692 -815.5 l 2,22,23
 1692 -908.730769231 1692 -908.730769231 1748 -919.5 c 0,24,25
 1802.6 -930 1802.6 -930 1836.3 -930 c 2,26,-1
 1991 -930 l 1,27,-1
 1991 -1061 l 1,28,-1
 958 -1061 l 1,29,-1
 946 -930 l 1,30,-1
 1090 -930 l 2,31,32
 1282 -930 1282 -930 1343.5 -905 c 128,-1,33
 1405 -880 1405 -880 1405 -791 c 2,34,-1
 1405 238 l 1,35,36
 1182.45454545 71.0909090909 1182.45454545 71.0909090909 1127.22727273 46.5454545455 c 128,-1,37
 1072 22 1072 22 1025 4 c 0,38,39
 938.833333333 -29 938.833333333 -29 813.916666667 -29 c 128,-1,40
 689 -29 689 -29 569.5 14.5 c 128,-1,41
 450 58 450 58 364.5 132.5 c 128,-1,42
 279 207 279 207 218 306.5 c 128,-1,0
 157 406 157 406 127.5 520 c 128,-1,1
1405 1331 m 1,43,44
 1177 1483 1177 1483 971 1483 c 0,45,46
 636.857142857 1483 636.857142857 1483 469 1208 c 0,47,48
 381 1063.82978723 381 1063.82978723 381 918.914893617 c 128,-1,49
 381 774 381 774 435.5 646 c 128,-1,50
 490 518 490 518 577.5 426 c 0,51,52
 772.472826087 221 772.472826087 221 1008 221 c 0,53,54
 1229 221 1229 221 1386.5 419 c 0,55,56
 1404 441 1404 441 1405 442 c 1,57,-1
 1405 1331 l 1,43,44
EndSplineSet
Substitution2: "'smcp' Lowercase to Small Capitals in Latin lookup 12 subtable" q.sc
AlternateSubs2: "'aalt' Access All Alternates in Latin lookup 1 subtable" q.sc
AlternateSubs2: "'aalt' Access All Alternates lookup 0 subtable" q.sc
EndChar

StartChar: r
Encoding: 114 114 85
Width: 1400
GlyphClass: 2
Flags: W
LayerCount: 2
Fore
SplineSet
389 1298 m 2,0,1
 389 1446 389 1446 342 1446 c 0,2,3
 316 1446 316 1446 82 1401 c 1,4,-1
 70 1528 l 1,5,6
 105 1535 105 1535 147 1542.5 c 128,-1,7
 189 1550 189 1550 208 1553.5 c 128,-1,8
 227 1557 227 1557 282.5 1569.5 c 128,-1,9
 338 1582 338 1582 425.5 1603.5 c 128,-1,10
 513 1625 513 1625 668 1663 c 1,11,-1
 668 1200 l 2,12,13
 668 1204.30769231 668 1204.30769231 714 1282.15384615 c 128,-1,14
 760 1360 760 1360 802.5 1414.5 c 128,-1,15
 845 1469 845 1469 889.5 1513.5 c 0,16,17
 994 1618 994 1618 1106 1618 c 0,18,19
 1226.2 1618 1226.2 1618 1301 1552 c 0,20,21
 1313.55384615 1540.92307692 1313.55384615 1540.92307692 1331 1516 c 1,22,-1
 1176 1110 l 1,23,-1
 1110 1135 l 1,24,-1
 1110 1188 l 2,25,26
 1110 1282 1110 1282 1012 1282 c 0,27,28
 945 1282 945 1282 867.5 1243.5 c 128,-1,29
 790 1205 790 1205 733 1136 c 128,-1,30
 676 1067 676 1067 676 991 c 2,31,-1
 676 299 l 2,32,33
 676 183.379310345 676 183.379310345 715.5 157.5 c 0,34,35
 755.947368421 131 755.947368421 131 934 131 c 2,36,-1
 1110 131 l 1,37,-1
 1110 0 l 1,38,-1
 131 0 l 1,39,-1
 131 131 l 1,40,-1
 209 131 l 2,41,42
 339 131 339 131 355 147 c 128,-1,43
 371 163 371 163 379 185 c 0,44,45
 389 212.5 389 212.5 389 299 c 2,46,-1
 389 1298 l 2,0,1
EndSplineSet
Substitution2: "'smcp' Lowercase to Small Capitals in Latin lookup 12 subtable" r.sc
AlternateSubs2: "'aalt' Access All Alternates in Latin lookup 1 subtable" r.sc
AlternateSubs2: "'aalt' Access All Alternates lookup 0 subtable" r.sc
EndChar

StartChar: s
Encoding: 115 115 86
Width: 1421
GlyphClass: 2
Flags: W
LayerCount: 2
Fore
SplineSet
279 -53 m 1,0,-1
 283 -94 l 1,1,-1
 164 -102 l 1,2,-1
 90 578 l 1,3,-1
 217 586 l 1,4,-1
 258 246 l 1,5,6
 380.930029155 150.387755102 380.930029155 150.387755102 512.465014577 118.193877551 c 128,-1,7
 644 86 644 86 706 86 c 128,-1,8
 768 86 768 86 815 107 c 128,-1,9
 862 128 862 128 889.5 163 c 0,10,11
 946 234.909090909 946 234.909090909 946 298.954545455 c 128,-1,12
 946 363 946 363 930 404 c 128,-1,13
 914 445 914 445 891.5 475.5 c 128,-1,14
 869 506 869 506 827.5 541.5 c 0,15,16
 769.198380567 591.372469636 769.198380567 591.372469636 664 659 c 1,17,-1
 516 758 l 1,18,19
 209 958.217391304 209 958.217391304 209 1212 c 0,20,21
 209 1321 209 1321 274.5 1415.5 c 128,-1,22
 340 1510 340 1510 455.5 1566 c 128,-1,23
 571 1622 571 1622 685 1622 c 128,-1,24
 799 1622 799 1622 878.5 1603.5 c 128,-1,25
 958 1585 958 1585 1005 1566.5 c 128,-1,26
 1052 1548 1052 1548 1070 1548 c 0,27,28
 1102 1548 1102 1548 1102 1671 c 1,29,-1
 1233 1667 l 1,30,-1
 1233 1049 l 1,31,-1
 1102 1049 l 1,32,-1
 1098 1339 l 1,33,34
 1029.22511485 1421.52986217 1029.22511485 1421.52986217 850.5 1460.5 c 0,35,36
 784 1475 784 1475 704 1475 c 128,-1,37
 624 1475 624 1475 551.5 1417 c 128,-1,38
 479 1359 479 1359 479 1278 c 0,39,40
 479 1216.52173913 479 1216.52173913 498 1189.26086957 c 128,-1,41
 517 1162 517 1162 522.5 1152 c 128,-1,42
 528 1142 528 1142 546.5 1125 c 128,-1,43
 565 1108 565 1108 571.5 1101.5 c 128,-1,44
 578 1095 578 1095 602.5 1077 c 128,-1,45
 627 1059 627 1059 633.5 1054 c 0,46,47
 656.25 1036.5 656.25 1036.5 705 1004 c 2,48,-1
 889 881 l 2,49,50
 1078.06449739 753.870424172 1078.06449739 753.870424172 1124.53224869 698.435212086 c 128,-1,51
 1171 643 1171 643 1197.5 600.5 c 0,52,53
 1249 517.905660377 1249 517.905660377 1249 417.952830189 c 128,-1,54
 1249 318 1249 318 1215 235.5 c 128,-1,55
 1181 153 1181 153 1117 88 c 0,56,57
 978.169230769 -53 978.169230769 -53 717 -53 c 0,58,59
 577.807692308 -53 577.807692308 -53 450.403846154 -26.5 c 128,-1,60
 323 0 323 0 315 0 c 0,61,62
 279 0 279 0 279 -53 c 1,0,-1
EndSplineSet
Substitution2: "'hist' Historical Forms in Latin lookup 14 subtable" longs
Substitution2: "'smcp' Lowercase to Small Capitals in Latin lookup 12 subtable" s.sc
AlternateSubs2: "'aalt' Access All Alternates in Latin lookup 1 subtable" longs s.sc
AlternateSubs2: "'aalt' Access All Alternates lookup 0 subtable" longs s.sc
EndChar

StartChar: t
Encoding: 116 116 87
Width: 1294
GlyphClass: 2
Flags: W
LayerCount: 2
Fore
SplineSet
139 1380 m 2,0,1
 90 1380 90 1380 90 1413 c 0,2,3
 90 1434.95833333 90 1434.95833333 195 1547.97916667 c 128,-1,4
 300 1661 300 1661 335 1700.5 c 128,-1,5
 370 1740 370 1740 438 1826.5 c 0,6,7
 583.040462428 2011 583.040462428 2011 598 2011 c 0,8,9
 623 2011 623 2011 623 1982 c 2,10,-1
 623 1577 l 1,11,-1
 1176 1577 l 1,12,-1
 1151 1380 l 1,13,-1
 623 1380 l 1,14,-1
 623 426 l 2,15,16
 623 241.652173913 623 241.652173913 798 196 c 0,17,18
 844 184 844 184 906.5 184 c 128,-1,19
 969 184 969 184 1038.5 203.5 c 128,-1,20
 1108 223 1108 223 1150 242.5 c 128,-1,21
 1192 262 1192 262 1196 262 c 0,22,23
 1225 262 1225 262 1225 214.5 c 128,-1,24
 1225 167 1225 167 1148.5 104 c 128,-1,25
 1072 41 1072 41 956 -2 c 128,-1,26
 840 -45 840 -45 735.5 -45 c 128,-1,27
 631 -45 631 -45 552 -11 c 128,-1,28
 473 23 473 23 427 84 c 0,29,30
 336 204.673913043 336 204.673913043 336 393 c 2,31,-1
 336 1380 l 1,32,-1
 139 1380 l 2,0,1
EndSplineSet
Substitution2: "'smcp' Lowercase to Small Capitals in Latin lookup 12 subtable" t.sc
AlternateSubs2: "'aalt' Access All Alternates in Latin lookup 1 subtable" t.sc
AlternateSubs2: "'aalt' Access All Alternates lookup 0 subtable" t.sc
EndChar

StartChar: u
Encoding: 117 117 88
Width: 1892
GlyphClass: 2
Flags: W
LayerCount: 2
Fore
SplineSet
205 1475 m 1,0,-1
 70 1462 l 1,1,-1
 70 1585 l 1,2,3
 386 1614 386 1614 569 1647 c 1,4,-1
 569 623 l 2,5,6
 569 361 569 361 656.5 273.5 c 0,7,8
 737 193 737 193 909 193 c 0,9,10
 1161.75 193 1161.75 193 1278 348 c 1,11,-1
 1278 1348 l 2,12,13
 1278 1425 1278 1425 1259.5 1447.5 c 128,-1,14
 1241 1470 1241 1470 1205.5 1470 c 128,-1,15
 1170 1470 1170 1470 1126.5 1466 c 0,16,17
 1022.43037975 1456.43037975 1022.43037975 1456.43037975 1016 1450 c 1,18,-1
 1004 1577 l 1,19,20
 1232 1592 1232 1592 1565 1647 c 1,21,-1
 1565 455 l 2,22,23
 1565 182.736842105 1565 182.736842105 1583.5 159.368421053 c 0,24,25
 1605.95833333 131 1605.95833333 131 1636.97916667 131 c 128,-1,26
 1668 131 1668 131 1823 176 c 1,27,-1
 1823 45 l 1,28,29
 1676.95454545 14.8636363636 1676.95454545 14.8636363636 1520.47727273 -29.5681818182 c 128,-1,30
 1364 -74 1364 -74 1319 -86 c 1,31,32
 1313 60 1313 60 1290 205 c 1,33,34
 1139.24882629 39.1737089202 1139.24882629 39.1737089202 928 -32.5 c 0,35,36
 844 -61 844 -61 762 -61 c 128,-1,37
 680 -61 680 -61 610 -42.5 c 128,-1,38
 540 -24 540 -24 490.5 8 c 128,-1,39
 441 40 441 40 404 87.5 c 128,-1,40
 367 135 367 135 344 187.5 c 128,-1,41
 321 240 321 240 307 305.5 c 0,42,43
 283 417.785714286 283 417.785714286 283 565 c 2,44,-1
 283 1372 l 2,45,46
 283 1434 283 1434 266 1454.5 c 128,-1,47
 249 1475 249 1475 205 1475 c 1,0,-1
EndSplineSet
Substitution2: "'smcp' Lowercase to Small Capitals in Latin lookup 12 subtable" u.sc
AlternateSubs2: "'aalt' Access All Alternates in Latin lookup 1 subtable" u.sc
AlternateSubs2: "'aalt' Access All Alternates lookup 0 subtable" u.sc
EndChar

StartChar: v
Encoding: 118 118 89
Width: 1888
GlyphClass: 2
Flags: W
LayerCount: 2
Fore
SplineSet
70 1475 m 1,0,-1
 70 1606 l 1,1,-1
 807 1606 l 1,2,-1
 803 1475 l 1,3,-1
 745 1475 l 2,4,5
 669 1475 669 1475 637.5 1464.5 c 128,-1,6
 606 1454 606 1454 606 1421.5 c 128,-1,7
 606 1389 606 1389 651 1274 c 1,8,-1
 1016 406 l 1,9,10
 1123.08860759 663.805907173 1123.08860759 663.805907173 1237.5443038 908.902953586 c 128,-1,11
 1352 1154 1352 1154 1380 1215 c 0,12,13
 1446 1358.78571429 1446 1358.78571429 1446 1406.89285714 c 128,-1,14
 1446 1455 1446 1455 1409 1465 c 128,-1,15
 1372 1475 1372 1475 1266 1475 c 2,16,-1
 1253 1475 l 1,17,-1
 1253 1606 l 1,18,-1
 1819 1606 l 1,19,-1
 1819 1475 l 1,20,-1
 1794 1475 l 2,21,22
 1723.88888889 1475 1723.88888889 1475 1689.94444444 1449 c 128,-1,23
 1656 1423 1656 1423 1629.5 1374 c 0,24,25
 1577.43529412 1277.72941176 1577.43529412 1277.72941176 1450 991 c 1,26,-1
 971 -74 l 1,27,-1
 913 -70 l 1,28,-1
 336 1253 l 1,29,30
 264 1413 264 1413 240 1434 c 128,-1,31
 216 1455 216 1455 189 1464 c 0,32,33
 156 1475 156 1475 70 1475 c 1,0,-1
EndSplineSet
Substitution2: "'smcp' Lowercase to Small Capitals in Latin lookup 12 subtable" v.sc
AlternateSubs2: "'aalt' Access All Alternates in Latin lookup 1 subtable" v.sc
AlternateSubs2: "'aalt' Access All Alternates lookup 0 subtable" v.sc
EndChar

StartChar: w
Encoding: 119 119 90
Width: 3231
GlyphClass: 2
Flags: W
LayerCount: 2
Fore
SplineSet
803 1475 m 2,0,1
 680 1475 680 1475 680 1405 c 0,2,3
 680 1374 680 1374 721 1274 c 1,4,-1
 1102 385 l 1,5,-1
 1536 1331 l 1,6,7
 1498 1422 1498 1422 1455 1448.5 c 128,-1,8
 1412 1475 1412 1475 1323 1475 c 2,9,-1
 1171 1475 l 1,10,-1
 1163 1606 l 1,11,-1
 2048 1606 l 1,12,-1
 2048 1475 l 1,13,14
 1863.8 1475 1863.8 1475 1847.4 1454.5 c 128,-1,15
 1831 1434 1831 1434 1831 1413 c 128,-1,16
 1831 1392 1831 1392 1868 1294 c 1,17,-1
 2249 389 l 1,18,-1
 2687 1315 l 1,19,20
 2720 1389 2720 1389 2720 1419.5 c 0,21,22
 2720 1475 2720 1475 2540 1475 c 2,23,-1
 2433 1475 l 1,24,-1
 2433 1606 l 1,25,-1
 3158 1606 l 1,26,-1
 3162 1475 l 1,27,28
 3038.64705882 1475 3038.64705882 1475 3008.82352941 1462 c 128,-1,29
 2979 1449 2979 1449 2955.5 1434.5 c 0,30,31
 2912.41306348 1407.91444342 2912.41306348 1407.91444342 2879 1339 c 2,32,-1
 2200 -70 l 1,33,-1
 2109 -66 l 1,34,-1
 1614 1155 l 1,35,-1
 1061 -74 l 1,36,-1
 975 -70 l 1,37,-1
 406 1253 l 2,38,39
 351 1381 351 1381 329.5 1417 c 128,-1,40
 308 1453 308 1453 263 1464 c 128,-1,41
 218 1475 218 1475 70 1475 c 1,42,-1
 70 1606 l 1,43,-1
 930 1606 l 1,44,-1
 926 1475 l 1,45,-1
 803 1475 l 2,0,1
EndSplineSet
Substitution2: "'smcp' Lowercase to Small Capitals in Latin lookup 12 subtable" w.sc
AlternateSubs2: "'aalt' Access All Alternates in Latin lookup 1 subtable" w.sc
AlternateSubs2: "'aalt' Access All Alternates lookup 0 subtable" w.sc
EndChar

StartChar: x
Encoding: 120 120 91
Width: 2134
GlyphClass: 2
Flags: W
LayerCount: 2
Fore
SplineSet
1233 131 m 1,0,1
 1442 131 1442 131 1442 180 c 0,2,3
 1442 203 1442 203 1404.5 243 c 128,-1,4
 1367 283 1367 283 1360 291 c 2,5,-1
 1020 688 l 1,6,-1
 610 254 l 1,7,8
 557 195 557 195 557 170.5 c 0,9,10
 557 131 557 131 750 131 c 2,11,-1
 848 131 l 1,12,-1
 848 0 l 1,13,-1
 70 0 l 1,14,-1
 74 131 l 1,15,-1
 106 131 l 2,16,17
 226.967741935 131 226.967741935 131 266.483870968 155.5 c 0,18,19
 338.235939643 199.986282579 338.235939643 199.986282579 410 270 c 1,20,-1
 926 786 l 1,21,-1
 397 1348 l 2,22,23
 313.186851211 1436.89273356 313.186851211 1436.89273356 293.593425606 1443.94636678 c 128,-1,24
 274 1451 274 1451 247 1461 c 0,25,26
 209.2 1475 209.2 1475 123 1475 c 1,27,-1
 123 1606 l 1,28,-1
 1012 1606 l 1,29,-1
 1012 1475 l 1,30,-1
 930 1475 l 2,31,32
 828 1475 828 1475 782.5 1466.5 c 128,-1,33
 737 1458 737 1458 737 1431.5 c 128,-1,34
 737 1405 737 1405 782 1348 c 1,35,-1
 1102 979 l 1,36,-1
 1430 1323 l 1,37,38
 1507 1406 1507 1406 1507 1434 c 0,39,40
 1507 1475 1507 1475 1323 1475 c 1,41,-1
 1323 1606 l 1,42,-1
 2044 1606 l 1,43,-1
 2044 1475 l 1,44,-1
 1962.5 1475 l 2,45,46
 1825.81818182 1475 1825.81818182 1475 1798.90909091 1456.5 c 128,-1,47
 1772 1438 1772 1438 1748.5 1420 c 128,-1,48
 1725 1402 1725 1402 1713 1389.5 c 128,-1,49
 1701 1377 1701 1377 1663 1339 c 2,50,-1
 1200 881 l 1,51,-1
 1769 279 l 1,52,53
 1873.80620155 163.713178295 1873.80620155 163.713178295 1898.40310078 153.356589147 c 128,-1,54
 1923 143 1923 143 1947 137 c 128,-1,55
 1971 131 1971 131 1990 131 c 2,56,-1
 2060 131 l 1,57,-1
 2060 0 l 1,58,-1
 1233 0 l 1,59,-1
 1233 131 l 1,0,1
EndSplineSet
Substitution2: "'smcp' Lowercase to Small Capitals in Latin lookup 12 subtable" x.sc
AlternateSubs2: "'aalt' Access All Alternates in Latin lookup 1 subtable" x.sc
AlternateSubs2: "'aalt' Access All Alternates lookup 0 subtable" x.sc
EndChar

StartChar: y
Encoding: 121 121 92
Width: 1921
GlyphClass: 2
Flags: W
LayerCount: 2
Fore
SplineSet
184 -705 m 1,0,-1
 303 -713 l 1,1,2
 368 -713 368 -713 471 -573.5 c 128,-1,3
 574 -434 574 -434 754 -86 c 2,4,-1
 877 152 l 1,5,-1
 365 1253 l 2,6,7
 354 1278 354 1278 336.5 1316 c 128,-1,8
 319 1354 319 1354 314 1367.5 c 128,-1,9
 309 1381 309 1381 294.5 1404.5 c 128,-1,10
 280 1428 280 1428 275 1433.5 c 128,-1,11
 270 1439 270 1439 253 1451.5 c 128,-1,12
 236 1464 236 1464 225 1465.5 c 128,-1,13
 214 1467 214 1467 188.5 1471 c 128,-1,14
 163 1475 163 1475 140.5 1475 c 2,15,-1
 78 1475 l 1,16,-1
 70 1606 l 1,17,-1
 852 1606 l 1,18,-1
 844 1475 l 1,19,-1
 774 1475 l 2,20,21
 695 1475 695 1475 663 1464.5 c 128,-1,22
 631 1454 631 1454 631 1429 c 128,-1,23
 631 1404 631 1404 636.5 1384.5 c 128,-1,24
 642 1365 642 1365 647.5 1351 c 128,-1,25
 653 1337 653 1337 664.5 1310.5 c 128,-1,26
 676 1284 676 1284 680 1274 c 2,27,-1
 1028 492 l 1,28,-1
 1286 1073 l 1,29,30
 1421 1371 1421 1371 1421 1412.5 c 128,-1,31
 1421 1454 1421 1454 1383 1464.5 c 128,-1,32
 1345 1475 1345 1475 1241 1475 c 2,33,-1
 1184 1475 l 1,34,-1
 1184 1606 l 1,35,-1
 1851 1606 l 1,36,-1
 1851 1475 l 1,37,-1
 1753 1475 l 2,38,39
 1697.3 1475 1697.3 1475 1679.15 1469.5 c 128,-1,40
 1661 1464 1661 1464 1651.5 1462 c 128,-1,41
 1642 1460 1642 1460 1630 1447 c 128,-1,42
 1618 1434 1618 1434 1612.5 1428 c 128,-1,43
 1607 1422 1607 1422 1595.5 1399 c 128,-1,44
 1584 1376 1584 1376 1578.5 1363 c 0,45,46
 1555.88888889 1309.55555556 1555.88888889 1309.55555556 1532 1257 c 2,47,-1
 909 -119 l 2,48,49
 533.990765564 -945.724903187 533.990765564 -945.724903187 323 -1036.5 c 0,50,51
 266.054054054 -1061 266.054054054 -1061 192.027027027 -1061 c 128,-1,52
 118 -1061 118 -1061 73.5 -1008.5 c 128,-1,53
 29 -956 29 -956 29 -873 c 128,-1,54
 29 -790 29 -790 72 -747.5 c 128,-1,55
 115 -705 115 -705 184 -705 c 1,0,-1
EndSplineSet
Substitution2: "'smcp' Lowercase to Small Capitals in Latin lookup 12 subtable" y.sc
AlternateSubs2: "'aalt' Access All Alternates in Latin lookup 1 subtable" y.sc
AlternateSubs2: "'aalt' Access All Alternates lookup 0 subtable" y.sc
EndChar

StartChar: z
Encoding: 122 122 93
Width: 1802
GlyphClass: 2
Flags: W
LayerCount: 2
Fore
SplineSet
1663 618 m 1,0,-1
 1618 0 l 1,1,-1
 217 0 l 2,2,3
 119.411764706 0 119.411764706 0 108.705882353 13 c 128,-1,4
 98 26 98 26 98 37.5 c 128,-1,5
 98 49 98 49 101 57.5 c 128,-1,6
 104 66 104 66 111 77 c 128,-1,7
 118 88 118 88 125 97 c 128,-1,8
 132 106 132 106 144 119.5 c 128,-1,9
 156 133 156 133 165 142.5 c 128,-1,10
 174 152 174 152 189 168 c 128,-1,11
 204 184 204 184 213 193 c 2,12,-1
 1274 1339 l 1,13,-1
 438 1339 l 2,14,15
 313.644067797 1339 313.644067797 1339 300 1281.5 c 0,16,17
 266 1138.21428571 266 1138.21428571 266 1081 c 1,18,-1
 160 1085 l 1,19,-1
 225 1667 l 1,20,-1
 328 1667 l 1,21,22
 328 1658 l 2,23,24
 328 1610 328 1610 337 1599 c 1,25,26
 353 1585 353 1585 418 1585 c 2,27,-1
 1520 1585 l 2,28,29
 1659 1585 1659 1585 1659 1556 c 0,30,31
 1659 1538.1954023 1659 1538.1954023 1598 1478.59770115 c 128,-1,32
 1537 1419 1537 1419 1503 1380 c 1,33,-1
 467 250 l 1,34,-1
 1343 250 l 2,35,36
 1432.25 250 1432.25 250 1449.125 265 c 128,-1,37
 1466 280 1466 280 1478 301 c 128,-1,38
 1490 322 1490 322 1495 344.5 c 128,-1,39
 1500 367 1500 367 1507 410.5 c 0,40,41
 1515.064 460.612 1515.064 460.612 1528 618 c 1,42,-1
 1663 618 l 1,0,-1
EndSplineSet
Substitution2: "'smcp' Lowercase to Small Capitals in Latin lookup 12 subtable" z.sc
AlternateSubs2: "'aalt' Access All Alternates in Latin lookup 1 subtable" z.sc
AlternateSubs2: "'aalt' Access All Alternates lookup 0 subtable" z.sc
EndChar

StartChar: braceleft
Encoding: 123 123 94
Width: 1150
GlyphClass: 2
Flags: W
LayerCount: 2
Fore
SplineSet
397 -98 m 1,0,-1
 414 401 l 1,1,2
 414 638.548387097 414 638.548387097 384.5 712.774193548 c 128,-1,3
 355 787 355 787 340.5 813 c 128,-1,4
 326 839 326 839 303 859 c 128,-1,5
 280 879 280 879 262.5 890 c 128,-1,6
 245 901 245 901 216.5 910 c 128,-1,7
 188 919 188 919 169.5 923 c 128,-1,8
 151 927 151 927 119.5 932.5 c 128,-1,9
 88 938 88 938 70 942 c 1,10,-1
 70 1020 l 1,11,12
 84 1023 84 1023 130.5 1031.5 c 128,-1,13
 177 1040 177 1040 208.5 1049 c 128,-1,14
 240 1058 240 1058 286.5 1090.5 c 128,-1,15
 333 1123 333 1123 354.5 1175 c 0,16,17
 410 1309.23255814 410 1309.23255814 410 1561 c 1,18,-1
 397 2060 l 1,19,20
 397 2690.05128205 397 2690.05128205 817 2848 c 0,21,22
 934 2892 934 2892 1081 2892 c 1,23,-1
 1081 2773 l 1,24,25
 786.376237624 2773 786.376237624 2773 705.5 2509.5 c 0,26,27
 659 2358 659 2358 659 2085 c 1,28,-1
 680 1495 l 1,29,30
 680 1285 680 1285 617.5 1162.5 c 128,-1,31
 555 1040 555 1040 406 983 c 1,32,33
 600.515248066 909.084205735 600.515248066 909.084205735 652 701 c 0,34,35
 676 604 676 604 676 467 c 1,36,-1
 659 -119 l 1,37,38
 659 -407.647058824 659 -407.647058824 688 -502.323529412 c 128,-1,39
 717 -597 717 -597 748.5 -654.5 c 128,-1,40
 780 -712 780 -712 823.5 -747 c 0,41,42
 922.928571429 -827 922.928571429 -827 1081 -827 c 1,43,-1
 1081 -946 l 1,44,45
 397 -946 397 -946 397 -98 c 1,0,-1
EndSplineSet
Position2: "'case' Case-Sensitive Forms in Latin lookup 0 subtable" dx=0 dy=205 dh=0 dv=0
EndChar

StartChar: bar
Encoding: 124 124 95
Width: 901
GlyphClass: 2
Flags: W
LayerCount: 2
Fore
SplineSet
360 -946 m 1,0,-1
 360 2892 l 1,1,-1
 541 2892 l 1,2,-1
 541 -946 l 1,3,-1
 360 -946 l 1,0,-1
EndSplineSet
Position2: "'case' Case-Sensitive Forms in Latin lookup 0 subtable" dx=0 dy=205 dh=0 dv=0
EndChar

StartChar: braceright
Encoding: 125 125 96
Width: 1150
GlyphClass: 2
Flags: W
LayerCount: 2
Fore
SplineSet
741 401 m 1,0,-1
 758 -98 l 1,1,2
 758 -754.816239316 758 -754.816239316 336 -904.5 c 0,3,4
 219 -946 219 -946 70 -946 c 1,5,-1
 70 -827 l 1,6,7
 427.153846154 -827 427.153846154 -827 481 -407 c 0,8,9
 496 -290 496 -290 496 -119 c 1,10,-1
 475 467 l 1,11,12
 475 672 475 672 538.5 799.5 c 128,-1,13
 602 927 602 927 750 983 c 1,14,15
 600 1040 600 1040 537.5 1163 c 128,-1,16
 475 1286 475 1286 475 1495 c 1,17,18
 492 2085 l 1,19,20
 492 2455.72727273 492 2455.72727273 408 2597 c 0,21,22
 354.889771599 2686.32174777 354.889771599 2686.32174777 298.444885799 2716.66087388 c 0,23,24
 193.627906977 2773 193.627906977 2773 70 2773 c 1,25,-1
 70 2892 l 1,26,27
 492.364485981 2892 492.364485981 2892 661 2545 c 0,28,29
 758 2345.40384615 758 2345.40384615 758 2060 c 1,30,-1
 741 1561 l 1,31,32
 741 1321.73333333 741 1321.73333333 769 1249.86666667 c 128,-1,33
 797 1178 797 1178 810.5 1151.5 c 128,-1,34
 824 1125 824 1125 847 1104.5 c 128,-1,35
 870 1084 870 1084 887.5 1073 c 128,-1,36
 905 1062 905 1062 935 1052.5 c 0,37,38
 980.104895105 1038.21678322 980.104895105 1038.21678322 1014.05244755 1032.10839161 c 128,-1,39
 1048 1026 1048 1026 1053 1025 c 0,40,41
 1070.5 1021.5 1070.5 1021.5 1081 1020 c 1,42,-1
 1081 942 l 1,43,44
 1064 938 1064 938 1032 932.5 c 128,-1,45
 1000 927 1000 927 982 923 c 128,-1,46
 964 919 964 919 935.5 910 c 128,-1,47
 907 901 907 901 890 890 c 128,-1,48
 873 879 873 879 850 859 c 128,-1,49
 827 839 827 839 813 813 c 128,-1,50
 799 787 799 787 783.5 748 c 128,-1,51
 768 709 768 709 760 660 c 0,52,53
 741 543.625 741 543.625 741 401 c 1,0,-1
EndSplineSet
Position2: "'case' Case-Sensitive Forms in Latin lookup 0 subtable" dx=0 dy=205 dh=0 dv=0
EndChar

StartChar: exclamdown
Encoding: 161 161 99
Width: 1249
GlyphClass: 2
Flags: W
LayerCount: 2
Fore
SplineSet
514.5 2390.5 m 128,-1,1
 451 2459 451 2459 451 2501.5 c 128,-1,2
 451 2544 451 2544 517.5 2609.5 c 128,-1,3
 584 2675 584 2675 625 2675 c 128,-1,4
 666 2675 666 2675 732.5 2608 c 128,-1,5
 799 2541 799 2541 799 2497.5 c 128,-1,6
 799 2454 799 2454 729.5 2388 c 128,-1,7
 660 2322 660 2322 619 2322 c 128,-1,0
 578 2322 578 2322 514.5 2390.5 c 128,-1,1
471 4 m 0,8,9
 475 259 475 259 525.5 807 c 128,-1,10
 576 1355 576 1355 579.5 1497.5 c 128,-1,11
 583 1640 583 1640 584 1700 c 128,-1,12
 585 1760 585 1760 585 1794.5 c 128,-1,13
 585 1829 585 1829 587 1870 c 128,-1,14
 589 1911 589 1911 593 1932.5 c 128,-1,15
 597 1954 597 1954 604.5 1974.5 c 0,16,17
 617.853658537 2011 617.853658537 2011 643.426829268 2011 c 128,-1,18
 669 2011 669 2011 679.5 2002 c 128,-1,19
 690 1993 690 1993 696.5 1980 c 128,-1,20
 703 1967 703 1967 708 1948.5 c 128,-1,21
 713 1930 713 1930 715 1916.5 c 0,22,23
 744.932577739 1714.45510026 744.932577739 1714.45510026 769.96628887 1020.22755013 c 128,-1,24
 795 326 795 326 795 94 c 0,25,26
 795 -3.24324324324 795 -3.24324324324 578 -35.5 c 0,27,28
 541 -41 541 -41 524 -41 c 0,29,30
 471 -41 471 -41 471 4 c 0,8,9
EndSplineSet
Position2: "'cpsp' Capital Spacing in Latin lookup 1 subtable" dx=16 dy=0 dh=33 dv=0
EndChar

StartChar: cent
Encoding: 162 162 100
Width: 1748
GlyphClass: 2
Flags: W
LayerCount: 2
Fore
SplineSet
954 1786 m 1,0,-1
 1249 2970 l 1,1,-1
 1413 2949 l 1,2,-1
 1073 1774 l 1,3,4
 1289 1739 1289 1739 1437 1615 c 128,-1,5
 1585 1491 1585 1491 1585 1327 c 0,6,7
 1585 1225 1585 1225 1514.5 1151 c 128,-1,8
 1444 1077 1444 1077 1349 1077 c 128,-1,9
 1254 1077 1254 1077 1190 1135 c 128,-1,10
 1126 1193 1126 1193 1126 1255 c 128,-1,11
 1126 1317 1126 1317 1151 1358 c 128,-1,12
 1176 1399 1176 1399 1206 1422.5 c 0,13,14
 1286 1485.16666667 1286 1485.16666667 1286 1524.08333333 c 128,-1,15
 1286 1563 1286 1563 1212.5 1609.5 c 128,-1,16
 1139 1656 1139 1656 1044 1659 c 1,17,-1
 651 213 l 1,18,19
 785 90 785 90 983 90 c 0,20,21
 1231.31818182 90 1231.31818182 90 1442.5 292 c 0,22,23
 1523 369 1523 369 1561 426 c 1,24,-1
 1651 340 l 1,25,26
 1648 338 1648 338 1616.5 302 c 128,-1,27
 1585 266 1585 266 1547 226 c 128,-1,28
 1509 186 1509 186 1443 135 c 128,-1,29
 1377 84 1377 84 1306.5 45 c 0,30,31
 1136.57692308 -49 1136.57692308 -49 949.288461538 -49 c 128,-1,32
 762 -49 762 -49 602 25 c 1,33,-1
 389 -827 l 1,34,-1
 246 -791 l 1,35,-1
 500 82 l 1,36,37
 316 198 316 198 207 406 c 128,-1,38
 98 614 98 614 98 933.517241379 c 128,-1,39
 98 1253.03448276 98 1253.03448276 325.294117647 1519.51724138 c 128,-1,40
 552.588235294 1786 552.588235294 1786 954 1786 c 1,0,-1
561 319 m 1,41,-1
 918 1647 l 1,42,43
 766 1617 766 1617 653.5 1507 c 0,44,45
 426 1284.55555556 426 1284.55555556 426 901.277777778 c 128,-1,46
 426 518 426 518 561 319 c 1,41,-1
EndSplineSet
EndChar

StartChar: sterling
Encoding: 163 163 101
Width: 1781
GlyphClass: 2
Flags: W
LayerCount: 2
Fore
SplineSet
848 2122 m 1,0,-1
 852 1470 l 2,1,2
 852 1328 852 1328 831 1163 c 1,3,-1
 1319 1163 l 1,4,-1
 1319 1004 l 1,5,-1
 807 1004 l 1,6,7
 749.667990469 727.224781573 749.667990469 727.224781573 658 550 c 1,8,-1
 627 492 l 1,9,10
 647 504 647 504 697 504 c 128,-1,11
 747 504 747 504 813 482 c 128,-1,12
 879 460 879 460 929.5 424.5 c 128,-1,13
 980 389 980 389 1027 346 c 128,-1,14
 1074 303 1074 303 1116 260 c 128,-1,15
 1158 217 1158 217 1197 181.5 c 0,16,17
 1284.33802817 102 1284.33802817 102 1357.16901408 102 c 128,-1,18
 1430 102 1430 102 1473 158.5 c 128,-1,19
 1516 215 1516 215 1516 267.5 c 128,-1,20
 1516 320 1516 320 1499 353 c 128,-1,21
 1482 386 1482 386 1458 411 c 128,-1,22
 1434 436 1434 436 1410 461.5 c 0,23,24
 1352 523.125 1352 523.125 1352 585.0625 c 128,-1,25
 1352 647 1352 647 1388 694 c 128,-1,26
 1424 741 1424 741 1483 741 c 128,-1,27
 1542 741 1542 741 1593.5 689 c 0,28,29
 1700 581.466019417 1700 581.466019417 1700 429.733009709 c 128,-1,30
 1700 278 1700 278 1639.5 173 c 128,-1,31
 1579 68 1579 68 1466 3.5 c 128,-1,32
 1353 -61 1353 -61 1251.5 -61 c 128,-1,33
 1150 -61 1150 -61 1097.5 -46.5 c 128,-1,34
 1045 -32 1045 -32 1010 -12.5 c 128,-1,35
 975 7 975 7 937 45 c 128,-1,36
 899 83 899 83 877.5 111 c 128,-1,37
 856 139 856 139 818.5 192 c 0,38,39
 670.622641509 401 670.622641509 401 594 401 c 0,40,41
 530.751879699 401 530.751879699 401 468 240.5 c 0,42,43
 394.918604651 53.5802772809 394.918604651 53.5802772809 335.959302326 0.290138640429 c 128,-1,44
 277 -53 277 -53 213 -53 c 128,-1,45
 149 -53 149 -53 109.5 -9.5 c 128,-1,46
 70 34 70 34 70 93.5 c 128,-1,47
 70 153 70 153 101.5 204 c 128,-1,48
 133 255 133 255 186.5 292.5 c 128,-1,49
 240 330 240 330 292.5 358.5 c 128,-1,50
 345 387 345 387 405 416 c 128,-1,51
 465 445 465 445 492 463 c 1,52,53
 533 508 533 508 555.5 641 c 128,-1,54
 578 774 578 774 578 885 c 1,55,-1
 565 1004 l 1,56,-1
 111 1004 l 1,57,-1
 111 1163 l 1,58,-1
 549 1163 l 1,59,60
 512 1552 512 1552 512 1692 c 128,-1,61
 512 1832 512 1832 550 2012 c 128,-1,62
 588 2192 588 2192 656 2319.5 c 128,-1,63
 724 2447 724 2447 818.5 2535 c 0,64,65
 1003.20454545 2707 1003.20454545 2707 1266 2707 c 0,66,67
 1513.79190751 2707 1513.79190751 2707 1648.5 2523.5 c 0,68,69
 1712 2437 1712 2437 1712 2344 c 128,-1,70
 1712 2251 1712 2251 1665.5 2196.5 c 128,-1,71
 1619 2142 1619 2142 1556 2142 c 0,72,73
 1422 2142 1422 2142 1384 2343 c 1,74,75
 1362 2445 1362 2445 1345 2479 c 0,76,77
 1301 2569 1301 2569 1181 2572 c 0,78,79
 1176 2572 1176 2572 1152.5 2572 c 128,-1,80
 1129 2572 1129 2572 1087 2558.5 c 128,-1,81
 1045 2545 1045 2545 1001 2512 c 128,-1,82
 957 2479 957 2479 923.5 2429.5 c 0,83,84
 848 2317.94029851 848 2317.94029851 848 2122 c 1,0,-1
EndSplineSet
EndChar

StartChar: currency
Encoding: 164 164 102
Width: 2134
GlyphClass: 2
Flags: W
LayerCount: 2
Fore
SplineSet
1548 426 m 1,0,1
 1332.53333333 266 1332.53333333 266 1063.61801802 266 c 128,-1,2
 794.702702703 266 794.702702703 266 586 422 c 1,3,-1
 303 143 l 2,4,5
 234 74 234 74 181.5 74 c 128,-1,6
 129 74 129 74 99.5 106 c 128,-1,7
 70 138 70 138 70 170.5 c 128,-1,8
 70 203 70 203 82 226.5 c 0,9,10
 98.1739130435 258.173913043 98.1739130435 258.173913043 143 303 c 2,11,-1
 422 586 l 1,12,13
 262 798 262 798 262 1070.64864865 c 128,-1,14
 262 1343.2972973 262 1343.2972973 418 1552 c 1,15,-1
 143 1835 l 1,16,17
 70 1897.57142857 70 1897.57142857 70 1951.78571429 c 128,-1,18
 70 2006 70 2006 102 2037 c 128,-1,19
 134 2068 134 2068 182 2068 c 128,-1,20
 230 2068 230 2068 303 1995 c 2,21,-1
 586 1712 l 1,22,23
 799.333333333 1872 799.333333333 1872 1065.66666667 1872 c 128,-1,24
 1332 1872 1332 1872 1548 1712 c 1,25,-1
 1831 1995 l 2,26,27
 1900 2064 1900 2064 1951 2064 c 128,-1,28
 2002 2064 2002 2064 2033 2032 c 128,-1,29
 2064 2000 2064 2000 2064 1967.5 c 128,-1,30
 2064 1935 2064 1935 2052 1911.5 c 0,31,32
 2035.82608696 1879.82608696 2035.82608696 1879.82608696 1991 1835 c 2,33,-1
 1708 1548 l 1,34,35
 1876 1317 1876 1317 1876 1066 c 128,-1,36
 1876 815 1876 815 1708 590 c 1,37,-1
 1991 303 l 1,38,39
 2064 240.428571429 2064 240.428571429 2064 186.714285714 c 128,-1,40
 2064 133 2064 133 2030 101.5 c 128,-1,41
 1996 70 1996 70 1963.5 70 c 128,-1,42
 1931 70 1931 70 1907.5 82 c 0,43,44
 1875.82608696 98.1739130435 1875.82608696 98.1739130435 1831 143 c 2,45,-1
 1548 426 l 1,0,1
571 1358.5 m 128,-1,47
 496 1223 496 1223 496 1064.5 c 128,-1,48
 496 906 496 906 573 774 c 128,-1,49
 650 642 650 642 780.5 567 c 128,-1,50
 911 492 911 492 1064.5 492 c 128,-1,51
 1218 492 1218 492 1350 569 c 128,-1,52
 1482 646 1482 646 1560 779.5 c 128,-1,53
 1638 913 1638 913 1638 1068.5 c 128,-1,54
 1638 1224 1638 1224 1561 1359 c 128,-1,55
 1484 1494 1484 1494 1351.5 1574.5 c 128,-1,56
 1219 1655 1219 1655 1064 1655 c 128,-1,57
 909 1655 909 1655 777.5 1574.5 c 128,-1,46
 646 1494 646 1494 571 1358.5 c 128,-1,47
EndSplineSet
EndChar

StartChar: yen
Encoding: 165 165 103
Width: 2617
GlyphClass: 2
Flags: W
LayerCount: 2
Fore
SplineSet
111 2568 m 1,0,-1
 115 2732 l 1,1,-1
 1032 2732 l 1,2,-1
 1032 2568 l 1,3,-1
 930 2568 l 2,4,5
 825 2568 825 2568 781 2558.5 c 128,-1,6
 737 2549 737 2549 737 2515 c 0,7,8
 737 2487.27956989 737 2487.27956989 877 2269 c 1,9,-1
 1397 1450 l 1,10,-1
 2114 2466 l 1,11,12
 2138 2506 2138 2506 2138 2515 c 0,13,14
 2138 2549 2138 2549 2075 2558.5 c 128,-1,15
 2012 2568 2012 2568 1872 2568 c 2,16,-1
 1806 2568 l 1,17,-1
 1802 2732 l 1,18,-1
 2548 2732 l 1,19,-1
 2548 2568 l 1,20,-1
 2527 2568 l 2,21,22
 2405.53846154 2568 2405.53846154 2568 2373.76923077 2538.5 c 0,23,24
 2316.66396761 2485.47368421 2316.66396761 2485.47368421 2253 2396 c 1,25,-1
 1704 1606 l 1,26,-1
 2142 1606 l 1,27,-1
 2093 1409 l 1,28,-1
 1540 1409 l 1,29,-1
 1454 1270 l 1,30,-1
 1454 1004 l 1,31,-1
 2142 1004 l 1,32,-1
 2093 807 l 1,33,-1
 1454 807 l 1,34,-1
 1454 348 l 2,35,36
 1454 215.153846154 1454 215.153846154 1477.5 197.076923077 c 128,-1,37
 1501 179 1501 179 1531 171 c 0,38,39
 1572.25 160 1572.25 160 1692 160 c 2,40,-1
 1880 160 l 1,41,-1
 1876 0 l 1,42,-1
 725 0 l 1,43,-1
 729 160 l 1,44,-1
 893 160 l 2,45,46
 1043.57894737 160 1043.57894737 160 1070.28947368 177.5 c 128,-1,47
 1097 195 1097 195 1103 207 c 128,-1,48
 1109 219 1109 219 1114.5 239.5 c 0,49,50
 1122 267.454545455 1122 267.454545455 1122 340 c 2,51,-1
 1122 807 l 1,52,-1
 475 807 l 1,53,-1
 524 1004 l 1,54,-1
 1122 1004 l 1,55,-1
 1122 1303 l 1,56,-1
 1061 1409 l 1,57,-1
 475 1409 l 1,58,-1
 524 1606 l 1,59,-1
 909 1606 l 1,60,-1
 451 2318 l 2,61,62
 438 2338 438 2338 415.5 2374 c 128,-1,63
 393 2410 393 2410 382.5 2426 c 128,-1,64
 372 2442 372 2442 354 2467.5 c 2,65,-1
 330 2501.5 l 2,66,67
 288.519855596 2560.26353791 288.519855596 2560.26353791 233.5 2563.5 c 0,68,69
 225 2564 225 2564 200 2566 c 128,-1,70
 175 2568 175 2568 160 2568 c 2,71,-1
 111 2568 l 1,0,-1
EndSplineSet
EndChar

StartChar: brokenbar
Encoding: 166 166 104
Width: 901
GlyphClass: 2
Flags: W
LayerCount: 2
Fore
SplineSet
360 590 m 1,0,-1
 541 590 l 1,1,-1
 541 -946 l 1,2,-1
 360 -946 l 1,3,-1
 360 590 l 1,0,-1
360 1356 m 1,4,-1
 360 2892 l 1,5,-1
 541 2892 l 1,6,-1
 541 1356 l 1,7,-1
 360 1356 l 1,4,-1
EndSplineSet
Position2: "'case' Case-Sensitive Forms in Latin lookup 0 subtable" dx=0 dy=205 dh=0 dv=0
EndChar

StartChar: section
Encoding: 167 167 105
Width: 1839
GlyphClass: 2
Flags: W
LayerCount: 2
Fore
SplineSet
1126 381 m 1,0,1
 1528 12.5 1528 12.5 1528 -356 c 0,2,3
 1528 -603.704402516 1528 -603.704402516 1353.5 -736.5 c 0,4,5
 1191.21487603 -860 1191.21487603 -860 971 -860 c 0,6,7
 687.930434783 -860 687.930434783 -860 509 -679.5 c 0,8,9
 385 -554.412280702 385 -554.412280702 385 -393.206140351 c 128,-1,10
 385 -232 385 -232 454.5 -146.5 c 128,-1,11
 524 -61 524 -61 627 -61 c 0,12,13
 655 -61 655 -61 709 -91 c 128,-1,14
 763 -121 763 -121 809.5 -170 c 128,-1,15
 856 -219 856 -219 856 -257 c 128,-1,16
 856 -295 856 -295 831 -336 c 128,-1,17
 806 -377 806 -377 776 -409.5 c 0,18,19
 696 -496.166666667 696 -496.166666667 696 -538.083333333 c 128,-1,20
 696 -580 696 -580 702.5 -602.5 c 128,-1,21
 709 -625 709 -625 728.5 -649 c 128,-1,22
 748 -673 748 -673 778.5 -691 c 0,23,24
 849.666666667 -733 849.666666667 -733 953.333333333 -733 c 128,-1,25
 1057 -733 1057 -733 1135 -696.5 c 128,-1,26
 1213 -660 1213 -660 1268 -588.5 c 128,-1,27
 1323 -517 1323 -517 1323 -434 c 128,-1,28
 1323 -351 1323 -351 1289.5 -273 c 128,-1,29
 1256 -195 1256 -195 1204 -130 c 128,-1,30
 1152 -65 1152 -65 1072.5 11 c 128,-1,31
 993 87 993 87 918 149.5 c 0,32,33
 703.247191011 328.460674157 703.247191011 328.460674157 577.123595506 459.230337079 c 128,-1,34
 451 590 451 590 368.5 729.5 c 0,35,36
 221 978.909090909 221 978.909090909 221 1208 c 0,37,38
 221 1488.26923077 221 1488.26923077 398 1604 c 0,39,40
 494.352941176 1667 494.352941176 1667 614 1667 c 0,41,42
 625 1667 625 1667 644 1665 c 128,-1,43
 663 1663 663 1663 668 1663 c 1,44,45
 667 1666 667 1666 642 1694.5 c 128,-1,46
 617 1723 617 1723 582.5 1763.5 c 128,-1,47
 548 1804 548 1804 507 1868.5 c 128,-1,48
 466 1933 466 1933 432 2003 c 0,49,50
 352 2167.70588235 352 2167.70588235 352 2312.35294118 c 128,-1,51
 352 2457 352 2457 381.5 2546.5 c 128,-1,52
 411 2636 411 2636 461 2696 c 128,-1,53
 511 2756 511 2756 579 2797 c 0,54,55
 708.365853659 2875 708.365853659 2875 842.682926829 2875 c 128,-1,56
 977 2875 977 2875 1063 2851 c 128,-1,57
 1149 2827 1149 2827 1209 2787 c 128,-1,58
 1269 2747 1269 2747 1312.5 2695 c 0,59,60
 1397 2593.98850575 1397 2593.98850575 1397 2474 c 128,-1,61
 1397 2354 1397 2354 1339 2299.5 c 128,-1,62
 1281 2245 1281 2245 1189 2245 c 128,-1,63
 1097 2245 1097 2245 1013.5 2298.5 c 128,-1,64
 930 2352 930 2352 930 2408 c 128,-1,65
 930 2464 930 2464 977 2538 c 128,-1,66
 1024 2612 1024 2612 1024 2649 c 128,-1,67
 1024 2686 1024 2686 990.5 2713 c 128,-1,68
 957 2740 957 2740 905 2740 c 0,69,70
 557 2740 557 2740 557 2413 c 0,71,72
 557 2222.9375 557 2222.9375 832 1972 c 0,73,74
 912 1899 912 1899 1000 1823 c 128,-1,75
 1088 1747 1088 1747 1175.5 1666.5 c 128,-1,76
 1263 1586 1263 1586 1343 1493 c 128,-1,77
 1423 1400 1423 1400 1484 1302 c 0,78,79
 1618 1086.72131148 1618 1086.72131148 1618 836 c 0,80,81
 1618 639.714285714 1618 639.714285714 1574 560.357142857 c 128,-1,82
 1530 481 1530 481 1496 446 c 128,-1,83
 1462 411 1462 411 1420.5 393 c 0,84,85
 1344.41666667 360 1344.41666667 360 1291.20833333 360 c 128,-1,86
 1238 360 1238 360 1216 363 c 128,-1,87
 1194 366 1194 366 1162.5 373 c 128,-1,88
 1131 380 1131 380 1126 381 c 1,0,1
483.5 1528.5 m 128,-1,90
 406 1464 406 1464 406 1375 c 128,-1,91
 406 1286 406 1286 452.5 1183 c 128,-1,92
 499 1080 499 1080 572.5 979.5 c 128,-1,93
 646 879 646 879 739 780 c 128,-1,94
 832 681 832 681 923.5 606 c 0,95,96
 1128.46 438 1128.46 438 1230.73 438 c 128,-1,97
 1333 438 1333 438 1395.5 488 c 128,-1,98
 1458 538 1458 538 1458 627.5 c 128,-1,99
 1458 717 1458 717 1389.5 848.5 c 128,-1,100
 1321 980 1321 980 1219.5 1106 c 128,-1,101
 1118 1232 1118 1232 1009.5 1344 c 128,-1,102
 901 1456 901 1456 811.5 1524.5 c 128,-1,103
 722 1593 722 1593 688 1593 c 0,104,89
 561 1593 561 1593 483.5 1528.5 c 128,-1,90
EndSplineSet
EndChar

StartChar: copyright
Encoding: 169 169 107
Width: 3309
GlyphClass: 2
Flags: W
LayerCount: 2
Fore
SplineSet
230 566 m 0,0,1
 180 761 180 761 180 966 c 128,-1,2
 180 1171 180 1171 232 1362 c 128,-1,3
 284 1553 284 1553 378.5 1716 c 128,-1,4
 473 1879 473 1879 610 2016.5 c 128,-1,5
 747 2154 747 2154 910.5 2250 c 0,6,7
 1257.9375 2454 1257.9375 2454 1675 2454 c 0,8,9
 2292.98540146 2454 2292.98540146 2454 2715 2016 c 0,10,11
 2979.71887594 1741.25389391 2979.71887594 1741.25389391 3079 1362 c 0,12,13
 3129 1171 3129 1171 3129 971.5 c 128,-1,14
 3129 772 3129 772 3080 581.5 c 128,-1,15
 3031 391 3031 391 2941.5 226 c 128,-1,16
 2852 61 2852 61 2720.5 -77.5 c 128,-1,17
 2589 -216 2589 -216 2430 -315 c 0,18,19
 2094.33333333 -524 2094.33333333 -524 1671 -524 c 0,20,21
 1020.67647059 -524 1020.67647059 -524 597 -94 c 0,22,23
 329.658561821 177.331608898 329.658561821 177.331608898 230 566 c 0,0,1
425 1383 m 0,24,25
 360 1183 360 1183 360 967 c 128,-1,26
 360 751 360 751 423.5 548 c 128,-1,27
 487 345 487 345 605.5 180 c 128,-1,28
 724 15 724 15 884 -108 c 0,29,30
 1218.30894309 -365 1218.30894309 -365 1675 -365 c 0,31,32
 1934 -365 1934 -365 2169 -260.5 c 128,-1,33
 2404 -156 2404 -156 2575 22 c 128,-1,34
 2746 200 2746 200 2847.5 450 c 128,-1,35
 2949 700 2949 700 2949 943.5 c 128,-1,36
 2949 1187 2949 1187 2889 1383.5 c 128,-1,37
 2829 1580 2829 1580 2715.5 1743.5 c 128,-1,38
 2602 1907 2602 1907 2447.5 2030 c 0,39,40
 2120.91463415 2290 2120.91463415 2290 1671 2290 c 0,41,42
 1227.15853659 2290 1227.15853659 2290 890.5 2032 c 0,43,44
 551.489110143 1772.19726198 551.489110143 1772.19726198 425 1383 c 0,24,25
710.5 632 m 128,-1,46
 668 773 668 773 668 920 c 128,-1,47
 668 1067 668 1067 700 1192.5 c 128,-1,48
 732 1318 732 1318 788.5 1415 c 128,-1,49
 845 1512 845 1512 922 1593 c 128,-1,50
 999 1674 999 1674 1088 1730.5 c 128,-1,51
 1177 1787 1177 1787 1275.5 1826 c 0,52,53
 1464.92307692 1901 1464.92307692 1901 1644.96153846 1901 c 128,-1,54
 1825 1901 1825 1901 1962 1876.5 c 128,-1,55
 2099 1852 2099 1852 2168.5 1824 c 128,-1,56
 2238 1796 2238 1796 2296 1767 c 128,-1,57
 2354 1738 2354 1738 2359 1737 c 1,58,-1
 2359 1450 l 2,59,60
 2359 1384 2359 1384 2349 1384 c 128,-1,61
 2339 1384 2339 1384 2322 1403 c 128,-1,62
 2305 1422 2305 1422 2278.5 1452.5 c 128,-1,63
 2252 1483 2252 1483 2215.5 1519.5 c 128,-1,64
 2179 1556 2179 1556 2125.5 1593 c 128,-1,65
 2072 1630 2072 1630 2009 1660.5 c 0,66,67
 1867.50819672 1729 1867.50819672 1729 1690.75409836 1729 c 128,-1,68
 1514 1729 1514 1729 1375 1665.5 c 128,-1,69
 1236 1602 1236 1602 1142 1496.5 c 0,70,71
 942 1272.03191489 942 1272.03191489 942 967 c 0,72,73
 942 571.554404145 942 571.554404145 1257.5 310 c 0,74,75
 1463.76875 139 1463.76875 139 1741 139 c 0,76,77
 2012.75609756 139 2012.75609756 139 2203 289 c 0,78,79
 2289.43243243 357.148648649 2289.43243243 357.148648649 2343.71621622 438.574324324 c 128,-1,80
 2398 520 2398 520 2405.5 520 c 128,-1,81
 2413 520 2413 520 2413 451 c 2,82,-1
 2413 225 l 1,83,84
 2238.82208589 66.6564417178 2238.82208589 66.6564417178 1933.5 2 c 0,85,86
 1806 -25 1806 -25 1645 -25 c 128,-1,87
 1484 -25 1484 -25 1322 25 c 128,-1,88
 1160 75 1160 75 1041.5 163.5 c 128,-1,89
 923 252 923 252 838 371.5 c 128,-1,45
 753 491 753 491 710.5 632 c 128,-1,46
EndSplineSet
EndChar

StartChar: ordfeminine
Encoding: 170 170 108
Width: 1572
GlyphClass: 2
Flags: W
LayerCount: 2
Fore
SplineSet
291 2499 m 0,0,1
 209 2499 209 2499 209 2617 c 0,2,3
 209 2694.34482759 209 2694.34482759 264 2761.67241379 c 128,-1,4
 319 2829 319 2829 368 2864 c 128,-1,5
 417 2899 417 2899 478.5 2926 c 0,6,7
 615.166666667 2986 615.166666667 2986 823 2986 c 0,8,9
 1038.5 2986 1038.5 2986 1109.5 2844 c 0,10,11
 1135 2793 1135 2793 1135 2724 c 2,12,-1
 1135 2105 l 2,13,14
 1135 1919.11956522 1135 1919.11956522 1242 1850.5 c 0,15,16
 1288 1821 1288 1821 1340.5 1809 c 128,-1,17
 1393 1797 1393 1797 1393 1777 c 128,-1,18
 1393 1757 1393 1757 1302 1704.5 c 128,-1,19
 1211 1652 1211 1652 1151 1622 c 1,20,21
 1057.08690869 1686.25632563 1057.08690869 1686.25632563 995.043454345 1763.62816282 c 128,-1,22
 933 1841 933 1841 913 1864 c 1,23,24
 842 1770 842 1770 729 1706 c 128,-1,25
 616 1642 616 1642 531.5 1642 c 128,-1,26
 447 1642 447 1642 391 1657.5 c 128,-1,27
 335 1673 335 1673 287 1702.5 c 0,28,29
 180 1768.26041667 180 1768.26041667 180 1899.13020833 c 128,-1,30
 180 2030 180 2030 271.5 2145.5 c 128,-1,31
 363 2261 363 2261 525 2330.5 c 128,-1,32
 687 2400 687 2400 881 2400 c 1,33,-1
 881 2597 l 2,34,35
 881 2733.63265306 881 2733.63265306 822.5 2779 c 0,36,37
 767.052631579 2822 767.052631579 2822 675.026315789 2822 c 128,-1,38
 583 2822 583 2822 529.5 2812 c 128,-1,39
 476 2802 476 2802 448 2787.5 c 0,40,41
 389.638554217 2757.27710843 389.638554217 2757.27710843 373 2724 c 1,42,-1
 406 2585 l 1,43,44
 406 2552 406 2552 362.5 2525.5 c 128,-1,45
 319 2499 319 2499 291 2499 c 0,0,1
464 2104.5 m 0,46,47
 434 2050 434 2050 434 1986.5 c 128,-1,48
 434 1923 434 1923 481.5 1877 c 128,-1,49
 529 1831 529 1831 617.5 1831 c 128,-1,50
 706 1831 706 1831 757.5 1848 c 128,-1,51
 809 1865 809 1865 834 1893 c 0,52,53
 881 1945.64 881 1945.64 881 2007 c 2,54,-1
 881 2306 l 1,55,56
 574.917431193 2306 574.917431193 2306 464 2104.5 c 0,46,47
EndSplineSet
EndChar

StartChar: logicalnot
Encoding: 172 172 110
Width: 2949
GlyphClass: 2
Flags: W
LayerCount: 2
Fore
SplineSet
328 844 m 1,0,-1
 328 1081 l 1,1,-1
 2621 1081 l 1,2,-1
 2621 -135 l 1,3,-1
 2380 -135 l 1,4,-1
 2380 844 l 1,5,-1
 328 844 l 1,0,-1
EndSplineSet
Position2: "'case' Case-Sensitive Forms in Latin lookup 0 subtable" dx=0 dy=205 dh=0 dv=0
EndChar

StartChar: registered
Encoding: 174 174 112
Width: 2052
GlyphClass: 2
Flags: W
LayerCount: 2
Fore
SplineSet
246 1906 m 128,-1,1
 180 2064 180 2064 180 2238.5 c 128,-1,2
 180 2413 180 2413 246 2573 c 128,-1,3
 312 2733 312 2733 424.5 2848.5 c 128,-1,4
 537 2964 537 2964 694 3032.5 c 128,-1,5
 851 3101 851 3101 1008 3101 c 128,-1,6
 1165 3101 1165 3101 1295.5 3057.5 c 128,-1,7
 1426 3014 1426 3014 1530 2934 c 128,-1,8
 1634 2854 1634 2854 1711 2747.5 c 0,9,10
 1872 2524.81818182 1872 2524.81818182 1872 2236 c 0,11,12
 1872 1879.02803738 1872 1879.02803738 1647 1633 c 0,13,14
 1415.62393162 1380 1415.62393162 1380 1024 1380 c 0,15,16
 851 1380 851 1380 694 1448.5 c 128,-1,17
 537 1517 537 1517 424.5 1632.5 c 128,-1,0
 312 1748 312 1748 246 1906 c 128,-1,1
403.5 2605.5 m 128,-1,19
 307 2432 307 2432 307 2233.5 c 128,-1,20
 307 2035 307 2035 404 1868 c 128,-1,21
 501 1701 501 1701 668.5 1604 c 128,-1,22
 836 1507 836 1507 1042 1507 c 128,-1,23
 1248 1507 1248 1507 1411 1605 c 128,-1,24
 1574 1703 1574 1703 1659.5 1867 c 128,-1,25
 1745 2031 1745 2031 1745 2206.5 c 128,-1,26
 1745 2382 1745 2382 1689 2521 c 128,-1,27
 1633 2660 1633 2660 1538.5 2762 c 0,28,29
 1330.97058824 2986 1330.97058824 2986 1036 2986 c 0,30,31
 837 2986 837 2986 668.5 2882.5 c 128,-1,18
 500 2779 500 2779 403.5 2605.5 c 128,-1,19
647 1868 m 2,32,33
 705 1868 705 1868 705 1880 c 2,34,-1
 705 2662 l 2,35,36
 705 2683 705 2683 694 2689 c 128,-1,37
 683 2695 683 2695 651 2695 c 2,38,-1
 594 2695 l 1,39,-1
 598 2793 l 1,40,-1
 934 2793 l 2,41,42
 1159.02325581 2793 1159.02325581 2793 1259.51162791 2713 c 128,-1,43
 1360 2633 1360 2633 1360 2494 c 0,44,45
 1360 2318.02912621 1360 2318.02912621 1163 2253 c 1,46,-1
 1430 1901 l 1,47,48
 1453 1868 1453 1868 1479 1868 c 2,49,-1
 1520 1868 l 1,50,-1
 1524 1769 l 1,51,-1
 1319 1769 l 1,52,-1
 1004 2220 l 1,53,-1
 979 2220 l 1,54,-1
 864 2224 l 1,55,-1
 864 1884 l 2,56,57
 864 1872 864 1872 867 1870 c 128,-1,58
 870 1868 870 1868 884 1868 c 2,59,-1
 983 1868 l 1,60,-1
 979 1769 l 1,61,-1
 606 1769 l 1,62,-1
 606 1868 l 1,63,-1
 647 1868 l 2,32,33
864 2310 m 1,64,65
 880 2306 880 2306 975.5 2306 c 0,66,67
 1176 2306 1176 2306 1176 2474 c 0,68,69
 1176 2573 1176 2573 1101 2634 c 128,-1,70
 1026 2695 1026 2695 889 2695 c 0,71,72
 873 2695 873 2695 868.5 2688 c 128,-1,73
 864 2681 864 2681 864 2646 c 2,74,-1
 864 2310 l 1,64,65
EndSplineSet
EndChar

StartChar: degree
Encoding: 176 176 114
Width: 1351
GlyphClass: 2
Flags: W
LayerCount: 2
Fore
SplineSet
180 2490 m 128,-1,1
 180 2625 180 2625 246.5 2739 c 128,-1,2
 313 2853 313 2853 427 2919.5 c 128,-1,3
 541 2986 541 2986 676 2986 c 128,-1,4
 811 2986 811 2986 925 2919.5 c 128,-1,5
 1039 2853 1039 2853 1105 2739 c 128,-1,6
 1171 2625 1171 2625 1171 2507 c 128,-1,7
 1171 2389 1171 2389 1132 2297.5 c 128,-1,8
 1093 2206 1093 2206 1026.5 2139.5 c 0,9,10
 882 1995 882 1995 676 1995 c 0,11,12
 541 1995 541 1995 427 2061 c 128,-1,13
 313 2127 313 2127 246.5 2241 c 128,-1,0
 180 2355 180 2355 180 2490 c 128,-1,1
328 2490 m 128,-1,15
 328 2345 328 2345 430 2241.5 c 128,-1,16
 532 2138 532 2138 676.5 2138 c 128,-1,17
 821 2138 821 2138 924.5 2241.5 c 128,-1,18
 1028 2345 1028 2345 1028 2489.5 c 128,-1,19
 1028 2634 1028 2634 924.5 2736.5 c 128,-1,20
 821 2839 821 2839 676 2839 c 128,-1,21
 531 2839 531 2839 429.5 2737 c 128,-1,14
 328 2635 328 2635 328 2490 c 128,-1,15
EndSplineSet
EndChar

StartChar: plusminus
Encoding: 177 177 115
Width: 2969
GlyphClass: 2
Flags: W
LayerCount: 2
Fore
SplineSet
328 -94 m 1,0,-1
 328 147 l 1,1,-1
 2642 147 l 1,2,-1
 2642 -94 l 1,3,-1
 328 -94 l 1,0,-1
328 1184 m 1,4,-1
 328 1421 l 1,5,6
 1123 1421 1123 1421 1318 1409 c 2,7,-1
 1384 1405 l 1,8,9
 1364 1570 1364 1570 1364 2298 c 1,10,-1
 1606 2298 l 1,11,12
 1606 1660.66666667 1606 1660.66666667 1590 1474 c 1,13,-1
 1585 1405 l 1,14,15
 1792 1421 1792 1421 2642 1421 c 1,16,-1
 2642 1184 l 1,17,18
 1845 1184 1845 1184 1650 1196 c 2,19,-1
 1585 1200 l 1,20,21
 1606 1039 1606 1039 1606 307 c 1,22,-1
 1364 307 l 1,23,24
 1364 952 1364 952 1379 1138 c 2,25,-1
 1384 1200 l 1,26,27
 1219 1184 1219 1184 328 1184 c 1,4,-1
EndSplineSet
Position2: "'case' Case-Sensitive Forms in Latin lookup 0 subtable" dx=0 dy=205 dh=0 dv=0
EndChar

StartChar: uni00B5
Encoding: 181 181 119
Width: 2121
GlyphClass: 2
Flags: W
LayerCount: 2
Fore
SplineSet
1421 -86 m 0,0,1
 1257 -86 1257 -86 1257 184 c 0,2,3
 1257 284 1257 284 1298 510 c 128,-1,4
 1339 736 1339 736 1339 747 c 128,-1,5
 1339 758 1339 758 1330.5 758 c 128,-1,6
 1322 758 1322 758 1306 733 c 128,-1,7
 1290 708 1290 708 1261.5 657.5 c 128,-1,8
 1233 607 1233 607 1194.5 544.5 c 0,9,10
 1099.82588161 390.80824937 1099.82588161 390.80824937 963.912940806 241.404124685 c 0,11,12
 676.989790467 -74 676.989790467 -74 463 -74 c 0,13,14
 420 -74 420 -74 388 -46.5 c 128,-1,15
 356 -19 356 -19 343 14 c 128,-1,16
 330 47 330 47 320.5 74.5 c 128,-1,17
 311 102 311 102 305 102 c 128,-1,18
 299 102 299 102 281 21.5 c 0,19,20
 233 -193.166666667 233 -193.166666667 233 -300.083333333 c 128,-1,21
 233 -407 233 -407 256.5 -482 c 128,-1,22
 280 -557 280 -557 304 -614.5 c 128,-1,23
 328 -672 328 -672 328 -684 c 128,-1,24
 328 -696 328 -696 324.5 -709 c 128,-1,25
 321 -722 321 -722 311.5 -741 c 128,-1,26
 302 -760 302 -760 287.5 -776 c 0,27,28
 252.15625 -815 252.15625 -815 188 -815 c 128,-1,29
 124 -815 124 -815 97 -767.5 c 128,-1,30
 70 -720 70 -720 70 -581.5 c 128,-1,31
 70 -443 70 -443 107 -264 c 128,-1,32
 144 -85 144 -85 217 170.5 c 0,33,34
 334 580 334 580 422 1018.5 c 128,-1,35
 510 1457 510 1457 525 1502.5 c 128,-1,36
 540 1548 540 1548 569 1548 c 0,37,38
 592.263157895 1548 592.263157895 1548 641.631578947 1534 c 0,39,40
 741 1505.82089552 741 1505.82089552 741 1454 c 0,41,42
 741 1417 741 1417 649 899.5 c 128,-1,43
 557 382 557 382 557 331.5 c 128,-1,44
 557 281 557 281 563 253 c 0,45,46
 578.642857143 180 578.642857143 180 644.821428571 180 c 128,-1,47
 711 180 711 180 810.5 258 c 128,-1,48
 910 336 910 336 1004 456.5 c 128,-1,49
 1098 577 1098 577 1193.5 731 c 0,50,51
 1365.62874251 1008.56886228 1365.62874251 1008.56886228 1495 1303 c 1,52,53
 1553.45859873 1424.41401274 1553.45859873 1424.41401274 1571.22929936 1479.20700637 c 128,-1,54
 1589 1534 1589 1534 1596 1539 c 0,55,56
 1608.6 1548 1608.6 1548 1650.8 1548 c 128,-1,57
 1693 1548 1693 1548 1754 1526 c 128,-1,58
 1815 1504 1815 1504 1815 1481 c 128,-1,59
 1815 1458 1815 1458 1750.5 1198 c 0,60,61
 1556 413.968992248 1556 413.968992248 1556 295 c 0,62,63
 1556 254 1556 254 1586 227.5 c 128,-1,64
 1616 201 1616 201 1661 201 c 128,-1,65
 1706 201 1706 201 1749 242 c 128,-1,66
 1792 283 1792 283 1816 332 c 0,67,68
 1880.16326531 463 1880.16326531 463 1921 463 c 0,69,70
 1970 463 1970 463 1970 406.5 c 128,-1,71
 1970 350 1970 350 1943 287 c 128,-1,72
 1916 224 1916 224 1864.5 159 c 128,-1,73
 1813 94 1813 94 1747.5 39 c 0,74,75
 1598.63636364 -86 1598.63636364 -86 1421 -86 c 0,0,1
EndSplineSet
EndChar

StartChar: paragraph
Encoding: 182 182 120
Width: 2871
GlyphClass: 2
Flags: W
LayerCount: 2
Fore
SplineSet
2437 -676 m 1,0,-1
 2466 -573 l 1,1,2
 2466 -438.512676056 2466 -438.512676056 2071.5 -348.5 c 0,3,4
 1894 -308 1894 -308 1704.5 -272.5 c 0,5,6
 1190.42339008 -176.195410807 1190.42339008 -176.195410807 988.711695041 -83.5977054034 c 128,-1,7
 787 9 787 9 630 159.5 c 128,-1,8
 473 310 473 310 375 502.5 c 0,9,10
 180 885.535714286 180 885.535714286 180 1397 c 0,11,12
 180 2035.60215054 180 2035.60215054 631.5 2451.5 c 0,13,14
 904.116238656 2702.61961769 904.116238656 2702.61961769 1296 2797 c 0,15,16
 1487 2843 1487 2843 1654.5 2843 c 128,-1,17
 1822 2843 1822 2843 1926.5 2822 c 128,-1,18
 2031 2801 2031 2801 2086 2769 c 0,19,20
 2195 2705.58181818 2195 2705.58181818 2195 2658.29090909 c 128,-1,21
 2195 2611 2195 2611 2172 2589.5 c 128,-1,22
 2149 2568 2149 2568 2122.5 2568 c 128,-1,23
 2096 2568 2096 2568 2053.5 2590.5 c 128,-1,24
 2011 2613 2011 2613 1967 2640 c 0,25,26
 1849.66666667 2712 1849.66666667 2712 1651 2712 c 1,27,-1
 1421 2691 l 1,28,-1
 1421 -57 l 1,29,30
 1561.74558304 -90.6996466431 1561.74558304 -90.6996466431 1732.37279152 -104.349823322 c 128,-1,31
 1903 -118 1903 -118 2017 -131.5 c 128,-1,32
 2131 -145 2131 -145 2229 -160.5 c 128,-1,33
 2327 -176 2327 -176 2419.5 -207 c 128,-1,34
 2512 -238 2512 -238 2577 -278.5 c 0,35,36
 2720 -367.6 2720 -367.6 2720 -532 c 0,37,38
 2720 -629 2720 -629 2673 -705.5 c 128,-1,39
 2626 -782 2626 -782 2548 -782 c 0,40,41
 2437 -782 2437 -782 2437 -676 c 1,0,-1
860 176 m 1,42,43
 1016.82646547 42.8798607081 1016.82646547 42.8798607081 1270 -25 c 1,44,-1
 1270 2650 l 1,45,46
 1021 2589 1021 2589 860 2449 c 1,47,-1
 860 176 l 1,42,43
EndSplineSet
EndChar

StartChar: periodcentered
Encoding: 183 183 121
Width: 823
GlyphClass: 2
Flags: W
LayerCount: 2
Fore
SplineSet
303.5 1257.5 m 128,-1,1
 238 1323 238 1323 238 1367.5 c 128,-1,2
 238 1412 238 1412 309.5 1478 c 128,-1,3
 381 1544 381 1544 423 1544 c 128,-1,4
 465 1544 465 1544 525.5 1471.5 c 128,-1,5
 586 1399 586 1399 586 1356 c 128,-1,6
 586 1313 586 1313 517.5 1252.5 c 128,-1,7
 449 1192 449 1192 409 1192 c 128,-1,0
 369 1192 369 1192 303.5 1257.5 c 128,-1,1
EndSplineSet
Substitution2: "'c2sc' Capitals to Small Capitals in Latin lookup 13 subtable" periodcentered.c2
Substitution2: "'smcp' Lowercase to Small Capitals in Latin lookup 12 subtable" periodcentered.sc
AlternateSubs2: "'aalt' Access All Alternates in Latin lookup 1 subtable" periodcentered.c2 periodcentered.sc
AlternateSubs2: "'aalt' Access All Alternates lookup 0 subtable" periodcentered.c2 periodcentered.sc
EndChar

StartChar: ordmasculine
Encoding: 186 186 124
Width: 1650
GlyphClass: 2
Flags: W
LayerCount: 2
Fore
SplineSet
180 2323.5 m 0,0,1
 180 2426 180 2426 203 2523 c 128,-1,2
 226 2620 226 2620 276 2707 c 128,-1,3
 326 2794 326 2794 397.5 2858 c 0,4,5
 553.90625 2998 553.90625 2998 803 2998 c 0,6,7
 1225.78974359 2998 1225.78974359 2998 1388 2661.5 c 0,8,9
 1470 2491.39361702 1470 2491.39361702 1470 2319.69680851 c 128,-1,10
 1470 2148 1470 2148 1423.5 2028 c 128,-1,11
 1377 1908 1377 1908 1293 1819.5 c 0,12,13
 1113.13559322 1630 1113.13559322 1630 811 1630 c 0,14,15
 455.988764045 1630 455.988764045 1630 279.5 1935 c 0,16,17
 180 2106.95145631 180 2106.95145631 180 2323.5 c 0,0,1
553.5 2753.5 m 128,-1,19
 463 2628 463 2628 463 2437.5 c 128,-1,20
 463 2247 463 2247 508.5 2103.5 c 128,-1,21
 554 1960 554 1960 644 1862.5 c 128,-1,22
 734 1765 734 1765 834 1765 c 128,-1,23
 934 1765 934 1765 998 1809.5 c 128,-1,24
 1062 1854 1062 1854 1097.5 1931 c 0,25,26
 1167 2081.74647887 1167 2081.74647887 1167 2259.37323944 c 128,-1,27
 1167 2437 1167 2437 1135.5 2550.5 c 128,-1,28
 1104 2664 1104 2664 1049.5 2734.5 c 0,29,30
 937.794326241 2879 937.794326241 2879 790.897163121 2879 c 128,-1,18
 644 2879 644 2879 553.5 2753.5 c 128,-1,19
EndSplineSet
EndChar

StartChar: questiondown
Encoding: 191 191 129
Width: 1626
GlyphClass: 2
Flags: W
LayerCount: 2
Fore
SplineSet
1241 270 m 2,0,1
 1298 270 1298 270 1298 221 c 0,2,3
 1298 164.949494949 1298 164.949494949 1216.5 94.9747474747 c 0,4,5
 1062.78823529 -37 1062.78823529 -37 934 -37 c 0,6,7
 846.342857143 -37 846.342857143 -37 724.671428571 46.5 c 128,-1,8
 603 130 603 130 525.5 207 c 128,-1,9
 448 284 448 284 386 369 c 0,10,11
 246 560.935483871 246 560.935483871 246 758 c 0,12,13
 246 859 246 859 270 927 c 128,-1,14
 294 995 294 995 363.5 1077 c 128,-1,15
 433 1159 433 1159 526.5 1247.5 c 128,-1,16
 620 1336 620 1336 688.5 1395 c 128,-1,17
 757 1454 757 1454 819 1516 c 0,18,19
 946 1643 946 1643 946 1761 c 0,20,21
 946 1897.14285714 946 1897.14285714 822 2014.5 c 0,22,23
 754 2078.85714286 754 2078.85714286 754 2109 c 0,24,25
 754 2163 754 2163 811 2163 c 0,26,27
 886.32967033 2163 886.32967033 2163 962.164835165 2096 c 128,-1,28
 1038 2029 1038 2029 1082 1969.5 c 128,-1,29
 1126 1910 1126 1910 1155 1823 c 128,-1,30
 1184 1736 1184 1736 1184 1642 c 128,-1,31
 1184 1548 1184 1548 1144 1461 c 128,-1,32
 1104 1374 1104 1374 1040.5 1305 c 128,-1,33
 977 1236 977 1236 900.5 1169.5 c 128,-1,34
 824 1103 824 1103 747 1038.5 c 128,-1,35
 670 974 670 974 606.5 909 c 0,36,37
 463 762.11023622 463 762.11023622 463 602 c 0,38,39
 463 529 463 529 537.5 451 c 128,-1,40
 612 373 612 373 736.5 319.5 c 128,-1,41
 861 266 861 266 991 266 c 1,42,-1
 1241 270 l 2,0,1
722 2422 m 128,-1,44
 651 2497 651 2497 651 2540.5 c 128,-1,45
 651 2584 651 2584 725.5 2658 c 128,-1,46
 800 2732 800 2732 848 2732 c 128,-1,47
 896 2732 896 2732 970 2655.5 c 128,-1,48
 1044 2579 1044 2579 1044 2532 c 128,-1,49
 1044 2485 1044 2485 966 2416 c 128,-1,50
 888 2347 888 2347 840.5 2347 c 128,-1,43
 793 2347 793 2347 722 2422 c 128,-1,44
EndSplineSet
Position2: "'cpsp' Capital Spacing in Latin lookup 1 subtable" dx=16 dy=0 dh=33 dv=0
EndChar

StartChar: Adieresis
Encoding: 196 196 134
Width: 2973
GlyphClass: 2
Flags: HW
LayerCount: 2
Fore
SplineSet
111 160 m 1,0,-1
 160 160 l 2,1,2
 270 160 270 160 307 198 c 128,-1,3
 344 236 344 236 392.5 344.5 c 128,-1,4
 441 453 441 453 517.5 623.5 c 128,-1,5
 594 794 594 794 711 1054.5 c 128,-1,6
 828 1315 828 1315 880 1430 c 128,-1,7
 932 1545 932 1545 970 1627.5 c 128,-1,8
 1008 1710 1008 1710 1022 1743 c 128,-1,9
 1036 1776 1036 1776 1053 1815 c 2,10,-1
 1470 2830 l 1,11,-1
 1556 2830 l 1,12,13
 1804 2183 1804 2183 2183 1265.5 c 128,-1,14
 2562 348 2562 348 2602 273 c 128,-1,15
 2642 198 2642 198 2684.5 179 c 128,-1,16
 2727 160 2727 160 2802 160 c 2,17,-1
 2863 160 l 1,18,-1
 2859 0 l 1,19,-1
 1925 0 l 1,20,-1
 1929 160 l 1,21,-1
 2052 160 l 2,22,23
 2154 160 2154 160 2193 168.5 c 128,-1,24
 2232 177 2232 177 2232 209 c 0,25,26
 2232 231.526367188 2232 231.526367188 2213.5 278.262695312 c 128,-1,27
 2195 325 2195 325 2191 336 c 2,28,-1
 1888 1081 l 1,29,-1
 938 1081 l 1,30,-1
 614 360 l 1,31,32
 573 260 573 260 573 221 c 128,-1,33
 573 182 573 182 604.5 171 c 128,-1,34
 636 160 636 160 741 160 c 2,35,-1
 909 160 l 1,36,-1
 909 0 l 1,37,-1
 115 0 l 1,38,-1
 111 160 l 1,0,-1
1016 1262 m 1,39,-1
 1819 1262 l 1,40,-1
 1430 2232 l 1,41,-1
 1016 1262 l 1,39,-1
1105.5 3204 m 128,-1,43
 1040 3271 1040 3271 1040 3316 c 128,-1,44
 1040 3361 1040 3361 1113 3427 c 128,-1,45
 1186 3493 1186 3493 1228.5 3493 c 128,-1,46
 1271 3493 1271 3493 1329.5 3421 c 128,-1,47
 1388 3349 1388 3349 1388 3305.5 c 128,-1,48
 1388 3262 1388 3262 1319 3199.5 c 128,-1,49
 1250 3137 1250 3137 1210.5 3137 c 128,-1,42
 1171 3137 1171 3137 1105.5 3204 c 128,-1,43
1708.5 3204 m 128,-1,51
 1643 3271 1643 3271 1643 3316 c 128,-1,52
 1643 3361 1643 3361 1714.5 3427 c 128,-1,53
 1786 3493 1786 3493 1828 3493 c 128,-1,54
 1870 3493 1870 3493 1930.5 3420.5 c 128,-1,55
 1991 3348 1991 3348 1991 3305 c 128,-1,56
 1991 3262 1991 3262 1922 3199.5 c 128,-1,57
 1853 3137 1853 3137 1813.5 3137 c 128,-1,50
 1774 3137 1774 3137 1708.5 3204 c 128,-1,51
EndSplineSet
Substitution2: "'c2sc' Capitals to Small Capitals in Latin lookup 13 subtable" Adieresis.c2
AlternateSubs2: "'aalt' Access All Alternates in Latin lookup 1 subtable" Adieresis.c2
AlternateSubs2: "'aalt' Access All Alternates lookup 0 subtable" Adieresis.c2
Position2: "'cpsp' Capital Spacing in Latin lookup 1 subtable" dx=16 dy=0 dh=33 dv=0
EndChar

StartChar: AE
Encoding: 198 198 136
Width: 4313
GlyphClass: 2
Flags: W
LayerCount: 2
Fore
SplineSet
2769 188 m 0,0,1
 3588 196 3588 196 3744.5 209 c 128,-1,2
 3901 222 3901 222 3923 244 c 128,-1,3
 3945 266 3945 266 3956.5 298.5 c 128,-1,4
 3968 331 3968 331 4022 655 c 1,5,-1
 4162 635 l 1,6,-1
 4059 0 l 1,7,-1
 1987 0 l 1,8,-1
 1987 160 l 1,9,-1
 2044 160 l 2,10,11
 2210 160 2210 160 2251 170.5 c 128,-1,12
 2292 181 2292 181 2301 213 c 128,-1,13
 2310 245 2310 245 2310 315 c 2,14,-1
 2310 1081 l 1,15,-1
 1208 1081 l 1,16,-1
 696 360 l 2,17,18
 623 256 623 256 623 217.5 c 128,-1,19
 623 179 623 179 666.5 169.5 c 128,-1,20
 710 160 710 160 823 160 c 2,21,-1
 946 160 l 1,22,-1
 946 0 l 1,23,-1
 111 0 l 1,24,-1
 115 160 l 1,25,-1
 184 160 l 2,26,27
 291.31884058 160 291.31884058 160 361.5 234.5 c 0,28,29
 436.928769018 314.570539419 436.928769018 314.570539419 541 463 c 2,30,-1
 2032 2572 l 1,31,-1
 1769 2568 l 1,32,-1
 1765 2732 l 1,33,-1
 4010 2732 l 1,34,35
 4017 2350 4017 2350 4030 2089 c 1,36,-1
 3871 2081 l 1,37,38
 3855.55940959 2485.02878229 3855.55940959 2485.02878229 3809.5 2534.5 c 0,39,40
 3796 2549 3796 2549 3763.5 2552.5 c 128,-1,41
 3731 2556 3731 2556 3572 2556 c 2,42,-1
 2875 2556 l 2,43,44
 2708.33333333 2556 2708.33333333 2556 2684.16666667 2536 c 128,-1,45
 2660 2516 2660 2516 2656 2505.5 c 128,-1,46
 2652 2495 2652 2495 2647.5 2470.5 c 0,47,48
 2642 2440.55555556 2642 2440.55555556 2642 2363 c 2,49,-1
 2642 1794 l 2,50,51
 2642 1673.78571429 2642 1673.78571429 2654.5 1660.39285714 c 128,-1,52
 2667 1647 2667 1647 2684 1639.5 c 0,53,54
 2705.53333333 1630 2705.53333333 1630 2777 1630 c 2,55,-1
 3391 1630 l 2,56,57
 3496.85714286 1630 3496.85714286 1630 3514.42857143 1650.5 c 128,-1,58
 3532 1671 3532 1671 3538 1696 c 0,59,60
 3547 1733.5 3547 1733.5 3547 1827 c 2,61,-1
 3547 1991 l 1,62,-1
 3699 1987 l 1,63,-1
 3699 1008 l 1,64,-1
 3547 1008 l 1,65,-1
 3547 1280.5 l 2,66,67
 3547 1305 3547 1305 3545 1330.5 c 128,-1,68
 3543 1356 3543 1356 3542 1370 c 128,-1,69
 3541 1384 3541 1384 3535 1399 c 128,-1,70
 3529 1414 3529 1414 3526.5 1421 c 128,-1,71
 3524 1428 3524 1428 3512.5 1435 c 128,-1,72
 3501 1442 3501 1442 3494.5 1444 c 128,-1,73
 3488 1446 3488 1446 3470 1448 c 128,-1,74
 3452 1450 3452 1450 3441 1450 c 2,75,-1
 2785 1450 l 2,76,77
 2682.82352941 1450 2682.82352941 1450 2664.91176471 1429 c 0,78,79
 2642 1402.13793103 2642 1402.13793103 2642 1323 c 2,80,-1
 2642 356 l 2,81,82
 2642 249 2642 249 2665.5 218.5 c 128,-1,83
 2689 188 2689 188 2769 188 c 0,0,1
1335 1262 m 1,84,-1
 2310 1262 l 1,85,-1
 2310 2466 l 2,86,87
 2310 2526 2310 2526 2293.5 2547 c 128,-1,88
 2277 2568 2277 2568 2236 2568 c 1,89,-1
 1335 1262 l 1,84,-1
EndSplineSet
Substitution2: "'c2sc' Capitals to Small Capitals in Latin lookup 13 subtable" AE.c2
AlternateSubs2: "'aalt' Access All Alternates in Latin lookup 1 subtable" AE.c2
AlternateSubs2: "'aalt' Access All Alternates lookup 0 subtable" AE.c2
Position2: "'cpsp' Capital Spacing in Latin lookup 1 subtable" dx=16 dy=0 dh=33 dv=0
EndChar

StartChar: Ccedilla
Encoding: 199 199 137
Width: 3018
GlyphClass: 2
Flags: W
LayerCount: 2
Fore
SplineSet
1659 -270 m 1,0,-1
 1729 -266 l 1,1,2
 1914.47142857 -266 1914.47142857 -266 2016.73571429 -317.5 c 0,3,4
 2200 -409.791366906 2200 -409.791366906 2200 -578 c 0,5,6
 2200 -805.509677419 2200 -805.509677419 1916.5 -880.5 c 0,7,8
 1839 -901 1839 -901 1754 -901 c 0,9,10
 1584.76923077 -901 1584.76923077 -901 1491 -848 c 1,11,-1
 1577 -750 l 1,12,13
 1700 -791 1700 -791 1784 -791 c 128,-1,14
 1868 -791 1868 -791 1921 -737 c 128,-1,15
 1974 -683 1974 -683 1974 -607.5 c 128,-1,16
 1974 -532 1974 -532 1947 -491.5 c 128,-1,17
 1920 -451 1920 -451 1874 -430 c 0,18,19
 1784.19047619 -389 1784.19047619 -389 1701.0952381 -389 c 128,-1,20
 1618 -389 1618 -389 1589 -393 c 1,21,-1
 1540 -324 l 1,22,-1
 1626 -66 l 1,23,24
 958.038486966 -43.8018832526 958.038486966 -43.8018832526 588 320 c 0,25,26
 221 680.814606742 221 680.814606742 221 1286 c 0,27,28
 221 1869.92139738 221 1869.92139738 598.5 2270.5 c 0,29,30
 808.137256263 2492.95350774 808.137256263 2492.95350774 1123.5 2623 c 0,31,32
 1407.225 2740 1407.225 2740 1658.6125 2740 c 128,-1,33
 1910 2740 1910 2740 2074.5 2720 c 128,-1,34
 2239 2700 2239 2700 2316 2676.5 c 128,-1,35
 2393 2653 2393 2653 2450 2633 c 128,-1,36
 2507 2613 2507 2613 2527 2613 c 128,-1,37
 2547 2613 2547 2613 2559 2616.5 c 128,-1,38
 2571 2620 2571 2620 2578 2636 c 0,39,40
 2588 2658.85714286 2588 2658.85714286 2588 2739.5 c 1,41,-1
 2589 2765 l 1,42,-1
 2744 2765 l 1,43,44
 2756 2366 2756 2366 2793 1982 c 1,45,-1
 2646 1978 l 1,46,47
 2627.27272727 2137.18181818 2627.27272727 2137.18181818 2625.63636364 2166.09090909 c 128,-1,48
 2624 2195 2624 2195 2618 2228.5 c 128,-1,49
 2612 2262 2612 2262 2610.5 2273 c 128,-1,50
 2609 2284 2609 2284 2597.5 2303.5 c 128,-1,51
 2586 2323 2586 2323 2579.5 2327.5 c 128,-1,52
 2573 2332 2573 2332 2552 2346 c 128,-1,53
 2531 2360 2531 2360 2515 2365.5 c 0,54,55
 2480.66081871 2377.30409357 2480.66081871 2377.30409357 2389.83040936 2424.15204678 c 128,-1,56
 2299 2471 2299 2471 2106.5 2509.5 c 128,-1,57
 1914 2548 1914 2548 1714 2548 c 128,-1,58
 1514 2548 1514 2548 1333 2489 c 128,-1,59
 1152 2430 1152 2430 1014 2323.5 c 128,-1,60
 876 2217 876 2217 775 2074.5 c 0,61,62
 569 1783.85643564 569 1783.85643564 569 1405 c 0,63,64
 569 1081.5 569 1081.5 729 781.5 c 0,65,66
 885.23690205 488.555808656 885.23690205 488.555808656 1166 304.5 c 0,67,68
 1455.06779661 115 1455.06779661 115 1810 115 c 0,69,70
 2152.5 115 2152.5 115 2482.5 335 c 0,71,72
 2663.80733945 455.871559633 2663.80733945 455.871559633 2666 537 c 2,73,-1
 2679 881 l 1,74,-1
 2822 881 l 1,75,-1
 2798 283 l 1,76,77
 2486.20271067 64.7418974661 2486.20271067 64.7418974661 2062.5 -27 c 0,78,79
 1887 -65 1887 -65 1720 -66 c 1,80,-1
 1659 -270 l 1,0,-1
EndSplineSet
Substitution2: "'c2sc' Capitals to Small Capitals in Latin lookup 13 subtable" Ccedilla.c2
AlternateSubs2: "'aalt' Access All Alternates in Latin lookup 1 subtable" Ccedilla.c2
AlternateSubs2: "'aalt' Access All Alternates lookup 0 subtable" Ccedilla.c2
Position2: "'cpsp' Capital Spacing in Latin lookup 1 subtable" dx=16 dy=0 dh=33 dv=0
EndChar

StartChar: Edieresis
Encoding: 203 203 141
Width: 2523
GlyphClass: 2
Flags: HW
LayerCount: 2
Fore
SplineSet
979 188 m 0,0,1
 1798 196 1798 196 1954.5 209 c 128,-1,2
 2111 222 2111 222 2133 244 c 128,-1,3
 2155 266 2155 266 2166.5 298.5 c 128,-1,4
 2178 331 2178 331 2232 655 c 1,5,-1
 2372 635 l 1,6,-1
 2269 0 l 1,7,-1
 193 0 l 1,8,-1
 193 160 l 1,9,-1
 299 160 l 2,10,11
 451.533203125 160 451.533203125 160 474.266601562 175.5 c 128,-1,12
 497 191 497 191 505.5 212 c 0,13,14
 516 237.94140625 516 237.94140625 516 315 c 2,15,-1
 516 2392 l 2,16,17
 516 2514.34472656 516 2514.34472656 471.5 2543.5 c 0,18,19
 434.10546875 2568 434.10546875 2568 229 2568 c 2,20,-1
 115 2568 l 1,21,-1
 111 2732 l 1,22,-1
 2220 2732 l 1,23,24
 2226 2379 2226 2379 2241 2089 c 1,25,-1
 2081 2081 l 1,26,27
 2065.55957031 2485.02832031 2065.55957031 2485.02832031 2019.5 2534.5 c 0,28,29
 2006 2549 2006 2549 1973.5 2552.5 c 128,-1,30
 1941 2556 1941 2556 1782 2556 c 2,31,-1
 1085 2556 l 2,32,33
 916 2556 916 2556 893 2538 c 128,-1,34
 870 2520 870 2520 860 2494.5 c 0,35,36
 848 2463.90039062 848 2463.90039062 848 2363 c 2,37,-1
 848 1794 l 2,38,39
 848 1673.78613281 848 1673.78613281 860.5 1660.39257812 c 128,-1,40
 873 1647 873 1647 890 1639.5 c 0,41,42
 911.533203125 1630 911.533203125 1630 983 1630 c 2,43,-1
 1602 1630 l 2,44,45
 1710.21777344 1630 1710.21777344 1630 1726.10839844 1651.5 c 128,-1,46
 1742 1673 1742 1673 1748.5 1699 c 0,47,48
 1757 1733 1757 1733 1757 1835 c 2,49,-1
 1757 1991 l 1,50,-1
 1909 1987 l 1,51,-1
 1909 1008 l 1,52,-1
 1757 1008 l 1,53,-1
 1757 1221 l 2,54,55
 1757 1391.90429688 1757 1391.90429688 1740 1412.95214844 c 128,-1,56
 1723 1434 1723 1434 1716.5 1438.5 c 128,-1,57
 1710 1443 1710 1443 1689.5 1446.5 c 128,-1,58
 1669 1450 1669 1450 1655.5 1450 c 2,59,-1
 995 1450 l 2,60,61
 892.515625 1450 892.515625 1450 873.2578125 1429.5 c 0,62,63
 848 1402.61328125 848 1402.61328125 848 1323 c 2,64,-1
 848 356 l 2,65,66
 848 250 848 250 873 219 c 128,-1,67
 898 188 898 188 979 188 c 0,0,1
855.5 3204 m 128,-1,69
 790 3271 790 3271 790 3316 c 128,-1,70
 790 3361 790 3361 863 3427 c 128,-1,71
 936 3493 936 3493 978.5 3493 c 128,-1,72
 1021 3493 1021 3493 1079.5 3421 c 128,-1,73
 1138 3349 1138 3349 1138 3305.5 c 128,-1,74
 1138 3262 1138 3262 1069 3199.5 c 128,-1,75
 1000 3137 1000 3137 960.5 3137 c 128,-1,68
 921 3137 921 3137 855.5 3204 c 128,-1,69
1458.5 3204 m 128,-1,77
 1393 3271 1393 3271 1393 3316 c 128,-1,78
 1393 3361 1393 3361 1464.5 3427 c 128,-1,79
 1536 3493 1536 3493 1578 3493 c 128,-1,80
 1620 3493 1620 3493 1680.5 3420.5 c 128,-1,81
 1741 3348 1741 3348 1741 3305 c 128,-1,82
 1741 3262 1741 3262 1672 3199.5 c 128,-1,83
 1603 3137 1603 3137 1563.5 3137 c 128,-1,76
 1524 3137 1524 3137 1458.5 3204 c 128,-1,77
EndSplineSet
Substitution2: "'c2sc' Capitals to Small Capitals in Latin lookup 13 subtable" Edieresis.c2
AlternateSubs2: "'aalt' Access All Alternates in Latin lookup 1 subtable" Edieresis.c2
AlternateSubs2: "'aalt' Access All Alternates lookup 0 subtable" Edieresis.c2
Position2: "'cpsp' Capital Spacing in Latin lookup 1 subtable" dx=16 dy=0 dh=33 dv=0
EndChar

StartChar: Idieresis
Encoding: 207 207 145
Width: 1318
GlyphClass: 2
Flags: HW
LayerCount: 2
Fore
SplineSet
111 2568 m 1,0,-1
 115 2732 l 1,1,-1
 1143 2732 l 1,2,-1
 1143 2568 l 1,3,-1
 1073 2568 l 2,4,5
 930.666992188 2568 930.666992188 2568 907.333007812 2560.5 c 128,-1,6
 884 2553 884 2553 867 2543 c 128,-1,7
 850 2533 850 2533 844.5 2520.5 c 128,-1,8
 839 2508 839 2508 832.5 2487 c 0,9,10
 823 2456.30761719 823 2456.30761719 823 2380 c 2,11,-1
 823 348 l 2,12,13
 823 216.5 823 216.5 845.5 197.75 c 128,-1,14
 868 179 868 179 896 171 c 0,15,16
 934.5 160 934.5 160 1044 160 c 2,17,-1
 1204 160 l 1,18,-1
 1208 0 l 1,19,-1
 160 0 l 1,20,-1
 156 160 l 1,21,-1
 262 160 l 2,22,23
 421.666992188 160 421.666992188 160 446.333007812 178.5 c 128,-1,24
 471 197 471 197 480 221 c 0,25,26
 492 253 492 253 492 340 c 2,27,-1
 492 2421 l 2,28,29
 492 2528 492 2528 472.5 2541 c 128,-1,30
 453 2554 453 2554 425.5 2560.5 c 0,31,32
 393.76953125 2568 393.76953125 2568 283 2568 c 2,33,-1
 111 2568 l 1,0,-1
237.5 3204 m 128,-1,35
 172 3271 172 3271 172 3316 c 128,-1,36
 172 3361 172 3361 245 3427 c 128,-1,37
 318 3493 318 3493 360.5 3493 c 128,-1,38
 403 3493 403 3493 461.5 3421 c 128,-1,39
 520 3349 520 3349 520 3305.5 c 128,-1,40
 520 3262 520 3262 451 3199.5 c 128,-1,41
 382 3137 382 3137 342.5 3137 c 128,-1,34
 303 3137 303 3137 237.5 3204 c 128,-1,35
840.5 3204 m 128,-1,43
 775 3271 775 3271 775 3316 c 128,-1,44
 775 3361 775 3361 846.5 3427 c 128,-1,45
 918 3493 918 3493 960 3493 c 128,-1,46
 1002 3493 1002 3493 1062.5 3420.5 c 128,-1,47
 1123 3348 1123 3348 1123 3305 c 128,-1,48
 1123 3262 1123 3262 1054 3199.5 c 128,-1,49
 985 3137 985 3137 945.5 3137 c 128,-1,42
 906 3137 906 3137 840.5 3204 c 128,-1,43
EndSplineSet
Substitution2: "'c2sc' Capitals to Small Capitals in Latin lookup 13 subtable" Idieresis.c2
AlternateSubs2: "'aalt' Access All Alternates in Latin lookup 1 subtable" Idieresis.c2
AlternateSubs2: "'aalt' Access All Alternates lookup 0 subtable" Idieresis.c2
Position2: "'cpsp' Capital Spacing in Latin lookup 1 subtable" dx=16 dy=0 dh=33 dv=0
EndChar

StartChar: Eth
Encoding: 208 208 146
Width: 3047
GlyphClass: 2
Flags: W
LayerCount: 2
Fore
SplineSet
111 2732 m 1,0,-1
 1217 2732 l 2,1,2
 1818.92105263 2732 1818.92105263 2732 2070.5 2652 c 0,3,4
 2409.25970901 2544.27724735 2409.25970901 2544.27724735 2615.5 2268.5 c 0,5,6
 2867 1932.20306513 2867 1932.20306513 2867 1470 c 0,7,8
 2867 848.35359116 2867 848.35359116 2453.5 428 c 0,9,10
 2032.47826087 -2.41584530158e-13 2032.47826087 -2.41584530158e-13 1241 0 c 2,11,-1
 184 0 l 1,12,-1
 180 160 l 1,13,-1
 279 160 l 2,14,15
 432 160 432 160 457.5 177 c 128,-1,16
 483 194 483 194 487.5 205.5 c 128,-1,17
 492 217 492 217 497.5 238 c 0,18,19
 504 262.818181818 504 262.818181818 504 340 c 2,20,-1
 504 1311 l 1,21,-1
 193 1311 l 1,22,-1
 197 1507 l 1,23,-1
 504 1507 l 1,24,-1
 504 2421 l 2,25,26
 504 2528 504 2528 484.5 2541 c 128,-1,27
 465 2554 465 2554 437.5 2560.5 c 0,28,29
 405.769230769 2568 405.769230769 2568 295 2568 c 2,30,-1
 123 2568 l 1,31,-1
 111 2732 l 1,0,-1
836 348 m 2,32,33
 836 242.5 836 242.5 849.5 222.25 c 128,-1,34
 863 202 863 202 882.5 189.5 c 128,-1,35
 902 177 902 177 924 173.5 c 128,-1,36
 946 170 946 170 986.5 165.5 c 0,37,38
 1036 160 1036 160 1220 160 c 128,-1,39
 1404 160 1404 160 1588 197 c 128,-1,40
 1772 234 1772 234 1905.5 298 c 128,-1,41
 2039 362 2039 362 2143 453 c 128,-1,42
 2247 544 2247 544 2313 646.5 c 128,-1,43
 2379 749 2379 749 2422 869 c 0,44,45
 2499 1083.88372093 2499 1083.88372093 2499 1276.44186047 c 128,-1,46
 2499 1469 2499 1469 2475 1591.5 c 128,-1,47
 2451 1714 2451 1714 2399 1833 c 128,-1,48
 2347 1952 2347 1952 2271 2057 c 128,-1,49
 2195 2162 2195 2162 2084.5 2251 c 128,-1,50
 1974 2340 1974 2340 1839 2404 c 0,51,52
 1552.125 2540 1552.125 2540 1155 2540 c 2,53,-1
 1004 2540 l 2,54,55
 933 2540 933 2540 900.5 2527.5 c 0,56,57
 836 2502.69230769 836 2502.69230769 836 2347 c 2,58,-1
 836 1507 l 1,59,-1
 1671 1507 l 1,60,-1
 1667 1311 l 1,61,-1
 836 1311 l 1,62,-1
 836 348 l 2,32,33
EndSplineSet
Substitution2: "'c2sc' Capitals to Small Capitals in Latin lookup 13 subtable" Eth.c2
AlternateSubs2: "'aalt' Access All Alternates in Latin lookup 1 subtable" Eth.c2
AlternateSubs2: "'aalt' Access All Alternates lookup 0 subtable" Eth.c2
Position2: "'cpsp' Capital Spacing in Latin lookup 1 subtable" dx=16 dy=0 dh=33 dv=0
EndChar

StartChar: Odieresis
Encoding: 214 214 152
Width: 3268
GlyphClass: 2
Flags: HW
LayerCount: 2
Fore
SplineSet
221 1381 m 0,0,1
 221 1575 221 1575 277 1781.5 c 128,-1,2
 333 1988 333 1988 432 2145 c 128,-1,3
 531 2302 531 2302 665.5 2426 c 128,-1,4
 800 2550 800 2550 959 2628.5 c 0,5,6
 1284.08886719 2789 1284.08886719 2789 1642 2789 c 0,7,8
 2114.80664062 2789 2114.80664062 2789 2491 2527.5 c 0,9,10
 2889.00976562 2250.83496094 2889.00976562 2250.83496094 3006 1741.5 c 0,11,12
 3047 1563 3047 1563 3047 1386.5 c 128,-1,13
 3047 1210 3047 1210 3018.5 1060.5 c 128,-1,14
 2990 911 2990 911 2930.5 769 c 128,-1,15
 2871 627 2871 627 2785 502 c 128,-1,16
 2699 377 2699 377 2579.5 272.5 c 128,-1,17
 2460 168 2460 168 2316.5 93 c 0,18,19
 2012.28027344 -66 2012.28027344 -66 1610 -66 c 0,20,21
 1049.43164062 -66 1049.43164062 -66 673 265 c 0,22,23
 221 662.448242188 221 662.448242188 221 1381 c 0,0,1
624 1819 m 128,-1,25
 590 1660 590 1660 590 1496 c 128,-1,26
 590 1332 590 1332 613.5 1190.5 c 128,-1,27
 637 1049 637 1049 685.5 914.5 c 128,-1,28
 734 780 734 780 802.5 659.5 c 128,-1,29
 871 539 871 539 966 438.5 c 128,-1,30
 1061 338 1061 338 1173.5 265 c 0,31,32
 1410.82910156 111 1410.82910156 111 1720 111 c 0,33,34
 1968.54882812 111 1968.54882812 111 2186 237 c 0,35,36
 2401.87792969 362.087890625 2401.87792969 362.087890625 2536.5 619 c 0,37,38
 2675 883.3125 2675 883.3125 2675 1262 c 0,39,40
 2675 1874.28125 2675 1874.28125 2322.5 2266.5 c 0,41,42
 2118.6953125 2493.26855469 2118.6953125 2493.26855469 1831 2580 c 0,43,44
 1695 2621 1695 2621 1583.5 2621 c 128,-1,45
 1472 2621 1472 2621 1385 2605 c 128,-1,46
 1298 2589 1298 2589 1202 2549.5 c 128,-1,47
 1106 2510 1106 2510 1019 2451.5 c 128,-1,48
 932 2393 932 2393 853 2300.5 c 128,-1,49
 774 2208 774 2208 716 2093 c 128,-1,24
 658 1978 658 1978 624 1819 c 128,-1,25
1216.5 3204 m 128,-1,51
 1151 3271 1151 3271 1151 3316 c 128,-1,52
 1151 3361 1151 3361 1224 3427 c 128,-1,53
 1297 3493 1297 3493 1339.5 3493 c 128,-1,54
 1382 3493 1382 3493 1440.5 3421 c 128,-1,55
 1499 3349 1499 3349 1499 3305.5 c 128,-1,56
 1499 3262 1499 3262 1430 3199.5 c 128,-1,57
 1361 3137 1361 3137 1321.5 3137 c 128,-1,50
 1282 3137 1282 3137 1216.5 3204 c 128,-1,51
1819.5 3204 m 128,-1,59
 1754 3271 1754 3271 1754 3316 c 128,-1,60
 1754 3361 1754 3361 1825.5 3427 c 128,-1,61
 1897 3493 1897 3493 1939 3493 c 128,-1,62
 1981 3493 1981 3493 2041.5 3420.5 c 128,-1,63
 2102 3348 2102 3348 2102 3305 c 128,-1,64
 2102 3262 2102 3262 2033 3199.5 c 128,-1,65
 1964 3137 1964 3137 1924.5 3137 c 128,-1,58
 1885 3137 1885 3137 1819.5 3204 c 128,-1,59
EndSplineSet
Substitution2: "'c2sc' Capitals to Small Capitals in Latin lookup 13 subtable" Odieresis.c2
AlternateSubs2: "'aalt' Access All Alternates in Latin lookup 1 subtable" Odieresis.c2
AlternateSubs2: "'aalt' Access All Alternates lookup 0 subtable" Odieresis.c2
Position2: "'cpsp' Capital Spacing in Latin lookup 1 subtable" dx=16 dy=0 dh=33 dv=0
EndChar

StartChar: multiply
Encoding: 215 215 153
Width: 2412
GlyphClass: 2
Flags: W
LayerCount: 2
Fore
SplineSet
246 172 m 1,0,1
 886 812 886 812 1018 926 c 2,2,-1
 1061 963 l 1,3,4
 1010 989 1010 989 246 1753 c 1,5,-1
 418 1921 l 1,6,7
 1117 1222 1117 1222 1204 1106 c 1,8,9
 1268 1194 1268 1194 1995 1921 c 1,10,-1
 2167 1753 l 1,11,12
 1518.14285714 1104.14285714 1518.14285714 1104.14285714 1396 1001 c 1,13,-1
 1352 963 l 1,14,15
 1440 899 1440 899 2167 172 c 1,16,-1
 1995 4 l 1,17,18
 1374.6 624.4 1374.6 624.4 1242 774 c 1,19,-1
 1204 819 l 1,20,21
 1117 703 1117 703 418 4 c 1,22,-1
 246 172 l 1,0,1
EndSplineSet
Position2: "'case' Case-Sensitive Forms in Latin lookup 0 subtable" dx=0 dy=205 dh=0 dv=0
EndChar

StartChar: Oslash
Encoding: 216 216 154
Width: 3268
GlyphClass: 2
Flags: W
LayerCount: 2
Fore
SplineSet
286.5 880.5 m 128,-1,1
 221 1101 221 1101 221 1338 c 128,-1,2
 221 1575 221 1575 277 1781.5 c 128,-1,3
 333 1988 333 1988 432 2145 c 128,-1,4
 531 2302 531 2302 665.5 2426 c 128,-1,5
 800 2550 800 2550 959 2628.5 c 0,6,7
 1284.08917197 2789 1284.08917197 2789 1626.54458599 2789 c 128,-1,8
 1969 2789 1969 2789 2273 2650 c 1,9,-1
 2441 2937 l 1,10,-1
 2609 2839 l 1,11,-1
 2445 2560 l 1,12,13
 2878.23957786 2275.48445633 2878.23957786 2275.48445633 3002.5 1757.5 c 0,14,15
 3047 1572 3047 1572 3047 1391 c 128,-1,16
 3047 1210 3047 1210 3018.5 1060.5 c 128,-1,17
 2990 911 2990 911 2930.5 769 c 128,-1,18
 2871 627 2871 627 2785 502 c 128,-1,19
 2699 377 2699 377 2579.5 272.5 c 128,-1,20
 2460 168 2460 168 2316.5 93 c 0,21,22
 2012.28 -66 2012.28 -66 1641.14 -66 c 128,-1,23
 1270 -66 1270 -66 999 57 c 1,24,-1
 729 -414 l 1,25,-1
 561 -315 l 1,26,-1
 827 147 l 1,27,28
 629 273 629 273 490.5 466.5 c 128,-1,0
 352 660 352 660 286.5 880.5 c 128,-1,1
590 1418 m 0,29,30
 590 1176 590 1176 692.5 896.5 c 128,-1,31
 795 617 795 617 987 422 c 1,32,-1
 2142 2429 l 1,33,34
 1876 2621 1876 2621 1556 2621 c 0,35,36
 1271.07692308 2621 1271.07692308 2621 1019 2451.5 c 0,37,38
 590 2163.03448276 590 2163.03448276 590 1418 c 0,29,30
1139 291 m 1,39,40
 1405 111 1405 111 1720 111 c 0,41,42
 1968.5483871 111 1968.5483871 111 2186 237 c 0,43,44
 2401.87830148 362.088361606 2401.87830148 362.088361606 2536.5 619 c 0,45,46
 2675 883.312977099 2675 883.312977099 2675 1237.15648855 c 0,47,48
 2675 1908.22033898 2675 1908.22033898 2298 2298 c 1,49,-1
 1139 291 l 1,39,40
EndSplineSet
Substitution2: "'c2sc' Capitals to Small Capitals in Latin lookup 13 subtable" Oslash.c2
AlternateSubs2: "'aalt' Access All Alternates in Latin lookup 1 subtable" Oslash.c2
AlternateSubs2: "'aalt' Access All Alternates lookup 0 subtable" Oslash.c2
Position2: "'cpsp' Capital Spacing in Latin lookup 1 subtable" dx=16 dy=0 dh=33 dv=0
EndChar

StartChar: Udieresis
Encoding: 220 220 158
Width: 2953
GlyphClass: 2
Flags: HW
LayerCount: 2
Fore
SplineSet
111 2568 m 1,0,-1
 111 2732 l 1,1,-1
 1094 2732 l 1,2,-1
 1098 2568 l 1,3,-1
 942 2568 l 2,4,5
 820 2568 820 2568 770.5 2540 c 128,-1,6
 721 2512 721 2512 721 2417 c 2,7,-1
 721 901 l 2,8,9
 721 615.784179688 721 615.784179688 900 412 c 0,10,11
 1117.83789062 164 1117.83789062 164 1577 164 c 0,12,13
 2091.09667969 164 2091.09667969 164 2266.5 381.5 c 0,14,15
 2329 459 2329 459 2361 524.5 c 128,-1,16
 2393 590 2393 590 2410 702 c 0,17,18
 2433 853.529296875 2433 853.529296875 2433 1094 c 2,19,-1
 2433 2421 l 2,20,21
 2433 2517.42871094 2433 2517.42871094 2387 2547 c 0,22,23
 2354.33300781 2568 2354.33300781 2568 2208 2568 c 2,24,-1
 2064 2568 l 1,25,-1
 2073 2732 l 1,26,-1
 2843 2732 l 1,27,-1
 2843 2568 l 1,28,-1
 2785 2568 l 2,29,30
 2716 2568 2716 2568 2685.5 2557 c 0,31,32
 2626 2535.54101562 2626 2535.54101562 2626 2388 c 2,33,-1
 2626 934 l 2,34,35
 2626 253.560546875 2626 253.560546875 2154 33 c 0,36,37
 1925.01953125 -74 1925.01953125 -74 1577 -74 c 0,38,39
 691.922851562 -74 691.922851562 -74 464.5 473.5 c 0,40,41
 389 655.258789062 389 655.258789062 389 881 c 2,42,-1
 389 2421 l 2,43,44
 389 2522.73339844 389 2522.73339844 360.5 2542.36621094 c 0,45,46
 323.290039062 2568 323.290039062 2568 221 2568 c 2,47,-1
 111 2568 l 1,0,-1
1142.5 3204 m 128,-1,49
 1077 3271 1077 3271 1077 3316 c 128,-1,50
 1077 3361 1077 3361 1150 3427 c 128,-1,51
 1223 3493 1223 3493 1265.5 3493 c 128,-1,52
 1308 3493 1308 3493 1366.5 3421 c 128,-1,53
 1425 3349 1425 3349 1425 3305.5 c 128,-1,54
 1425 3262 1425 3262 1356 3199.5 c 128,-1,55
 1287 3137 1287 3137 1247.5 3137 c 128,-1,48
 1208 3137 1208 3137 1142.5 3204 c 128,-1,49
1745.5 3204 m 128,-1,57
 1680 3271 1680 3271 1680 3316 c 128,-1,58
 1680 3361 1680 3361 1751.5 3427 c 128,-1,59
 1823 3493 1823 3493 1865 3493 c 128,-1,60
 1907 3493 1907 3493 1967.5 3420.5 c 128,-1,61
 2028 3348 2028 3348 2028 3305 c 128,-1,62
 2028 3262 2028 3262 1959 3199.5 c 128,-1,63
 1890 3137 1890 3137 1850.5 3137 c 128,-1,56
 1811 3137 1811 3137 1745.5 3204 c 128,-1,57
EndSplineSet
Substitution2: "'c2sc' Capitals to Small Capitals in Latin lookup 13 subtable" Udieresis.c2
AlternateSubs2: "'aalt' Access All Alternates in Latin lookup 1 subtable" Udieresis.c2
AlternateSubs2: "'aalt' Access All Alternates lookup 0 subtable" Udieresis.c2
Position2: "'cpsp' Capital Spacing in Latin lookup 1 subtable" dx=16 dy=0 dh=33 dv=0
EndChar

StartChar: Thorn
Encoding: 222 222 160
Width: 2445
GlyphClass: 2
Flags: W
LayerCount: 2
Fore
SplineSet
111 2568 m 1,0,-1
 115 2732 l 1,1,-1
 1143 2732 l 1,2,-1
 1143 2568 l 1,3,-1
 1012 2568 l 2,4,5
 885.363636364 2568 885.363636364 2568 868.181818182 2550 c 128,-1,6
 851 2532 851 2532 840 2510.5 c 0,7,8
 823 2477.27272727 823 2477.27272727 823 2380 c 2,9,-1
 823 2228 l 1,10,-1
 1077 2228 l 2,11,12
 1498.84615385 2228 1498.84615385 2228 1613.92307692 2195 c 0,13,14
 1809.19042896 2139.00421522 1809.19042896 2139.00421522 1942.59521448 2031.00210761 c 128,-1,15
 2076 1923 2076 1923 2170.5 1739.5 c 128,-1,16
 2265 1556 2265 1556 2265 1323 c 0,17,18
 2265 958.371859296 2265 958.371859296 1960.5 736.5 c 0,19,20
 1742.97241379 578 1742.97241379 578 1401 578 c 0,21,22
 1139.33333333 578 1139.33333333 578 857 655 c 0,23,24
 824 664 824 664 823 664 c 1,25,-1
 823 348 l 2,26,27
 823 217.260869565 823 217.260869565 845 198.130434783 c 128,-1,28
 867 179 867 179 894 171 c 0,29,30
 931.125 160 931.125 160 1036 160 c 2,31,-1
 1204 160 l 1,32,-1
 1208 0 l 1,33,-1
 160 0 l 1,34,-1
 156 160 l 1,35,-1
 291 160 l 2,36,37
 428.285714286 160 428.285714286 160 449.642857143 179.5 c 128,-1,38
 471 199 471 199 479.5 221 c 0,39,40
 492 253.352941176 492 253.352941176 492 340 c 2,41,-1
 492 2421 l 2,42,43
 492 2528 492 2528 472.5 2541 c 128,-1,44
 453 2554 453 2554 425.5 2560.5 c 0,45,46
 393.769230769 2568 393.769230769 2568 283 2568 c 2,47,-1
 111 2568 l 1,0,-1
823 786 m 1,48,49
 925.666666667 709 925.666666667 709 1229.33333333 709 c 128,-1,50
 1533 709 1533 709 1706.5 867.5 c 128,-1,51
 1880 1026 1880 1026 1880 1331 c 0,52,53
 1880 1746.86808511 1880 1746.86808511 1494.5 1947 c 0,54,55
 1261.42622951 2068 1261.42622951 2068 946 2068 c 0,56,57
 895 2068 895 2068 871 2056 c 0,58,59
 823 2032 823 2032 823 1876 c 2,60,-1
 823 786 l 1,48,49
EndSplineSet
Substitution2: "'c2sc' Capitals to Small Capitals in Latin lookup 13 subtable" Thorn.c2
AlternateSubs2: "'aalt' Access All Alternates in Latin lookup 1 subtable" Thorn.c2
AlternateSubs2: "'aalt' Access All Alternates lookup 0 subtable" Thorn.c2
Position2: "'cpsp' Capital Spacing in Latin lookup 1 subtable" dx=16 dy=0 dh=33 dv=0
EndChar

